<svg xmlns="http://www.w3.org/2000/svg" xmlns:xlink="http://www.w3.org/1999/xlink" width="500" zoomAndPan="magnify" viewBox="0 0 375 374.999991" height="500" preserveAspectRatio="xMidYMid meet" version="1.0"><defs><g/><clipPath id="417a677133"><path d="M 31.085938 155.601562 L 121.835938 155.601562 L 121.835938 216.351562 L 31.085938 216.351562 Z M 31.085938 155.601562 " clip-rule="nonzero"/></clipPath><clipPath id="7efbeabb6c"><path d="M 38 162 L 115 162 L 115 216.351562 L 38 216.351562 Z M 38 162 " clip-rule="nonzero"/></clipPath><clipPath id="ab5d10a20c"><path d="M 46 168 L 108 168 L 108 216.351562 L 46 216.351562 Z M 46 168 " clip-rule="nonzero"/></clipPath><clipPath id="d5b8a46a60"><path d="M 54 175 L 102 175 L 102 216.351562 L 54 216.351562 Z M 54 175 " clip-rule="nonzero"/></clipPath></defs><g clip-path="url(#417a677133)"><path fill="#f2f6fa" d="M 77.675781 215.851562 C 77.566406 215.339844 77.996094 214.941406 78.207031 214.546875 C 79.761719 211.660156 81.609375 208.894531 83.246094 206.011719 C 84.179688 204.371094 85.152344 202.722656 86.09375 201.089844 C 86.5625 200.277344 87.082031 199.46875 87.457031 198.601562 C 87.820312 197.757812 88.21875 196.851562 88.996094 196.289062 C 93.847656 196.003906 98.496094 196.300781 102.984375 196.230469 C 106.714844 196.171875 109.160156 195.441406 111.34375 193.917969 C 114.679688 191.597656 117.359375 187.480469 116.4375 181.648438 C 115.832031 177.796875 113.910156 174.613281 112.171875 171.691406 C 111.269531 170.171875 110.460938 168.675781 109.386719 167.304688 C 108.386719 166.03125 107.167969 164.863281 105.769531 163.808594 C 103.140625 161.824219 99.710938 160.101562 95.339844 160.015625 C 87.214844 159.851562 78.828125 160.015625 70.382812 160.015625 C 69.332031 160.011719 67.730469 159.777344 66.886719 160.074219 C 66.4375 160.230469 66.03125 161.121094 65.699219 161.675781 C 63.269531 165.726562 61.292969 170.039062 58.882812 174.003906 C 53.039062 184.5625 47.1875 195.113281 41.21875 205.597656 C 40.726562 206.464844 40.25 207.351562 39.738281 208.203125 C 39.210938 209.085938 38.859375 210.035156 38.375 210.929688 C 37.902344 211.804688 37.328125 212.628906 36.835938 213.480469 C 36.332031 214.339844 35.992188 215.300781 35.292969 216.027344 C 34.222656 216.246094 32.578125 216.128906 31.5 215.972656 C 31.5 215.210938 32.046875 214.632812 32.386719 214.015625 C 34.777344 209.714844 37.308594 205.226562 39.679688 200.796875 C 42.382812 195.746094 45.304688 190.808594 48.097656 185.800781 C 50.90625 180.761719 53.507812 175.617188 56.394531 170.625 C 58.546875 166.910156 60.691406 163.199219 62.796875 159.421875 C 63.484375 158.191406 63.964844 156.808594 64.929688 155.746094 C 69.46875 155.480469 74.027344 155.898438 78.5625 155.6875 C 82.808594 155.492188 87.726562 155.6875 92.316406 155.6875 C 93.839844 155.6875 95.316406 155.542969 96.761719 155.6875 C 103.296875 156.339844 107.820312 160.078125 111.222656 164.046875 C 113.316406 166.480469 115.054688 169.375 116.679688 172.285156 C 118.296875 175.1875 120.027344 178.042969 120.828125 181.828125 C 121.089844 183.066406 121.351562 184.515625 121.242188 185.976562 C 120.996094 189.222656 119.535156 191.894531 118.21875 194.277344 C 114.824219 200.410156 111.515625 206.382812 108.023438 212.414062 C 107.347656 213.582031 106.722656 214.808594 105.832031 215.851562 C 101.195312 216.121094 96.367188 215.820312 91.605469 216.03125 C 89.21875 216.136719 86.835938 215.898438 84.492188 215.96875 C 82.167969 216.042969 79.867188 216.089844 77.675781 215.851562 Z M 77.675781 215.851562 " fill-opacity="1" fill-rule="evenodd"/></g><g clip-path="url(#7efbeabb6c)"><path fill="#f2f6fa" d="M 73.523438 215.972656 C 72.421875 216.007812 70.703125 216.199219 69.789062 215.851562 C 69.855469 215.183594 70.257812 214.601562 70.5625 214.015625 C 71.433594 212.320312 72.496094 210.730469 73.464844 209.09375 C 76.699219 203.632812 80.015625 198.261719 83.125 192.675781 C 83.734375 191.589844 84.351562 190.457031 85.203125 189.535156 C 90.675781 189.335938 96.371094 189.785156 101.738281 189.535156 C 104.328125 189.414062 106.324219 188.679688 107.785156 187.222656 C 109.140625 185.867188 110.292969 183.921875 110.035156 181.175781 C 109.824219 178.898438 108.746094 176.808594 107.785156 175.070312 C 106.769531 173.234375 105.644531 171.609375 104.347656 170.152344 C 102.613281 168.722656 100.832031 167.359375 98.179688 166.890625 C 95.460938 166.410156 92.242188 166.773438 88.996094 166.773438 C 82.847656 166.769531 76.460938 166.511719 70.738281 166.773438 C 69.824219 167.574219 69.453125 168.785156 68.839844 169.796875 C 67.019531 172.804688 65.308594 175.925781 63.507812 179.042969 C 62.332031 181.070312 61.074219 183.109375 59.949219 185.207031 C 58.816406 187.324219 57.808594 189.472656 56.511719 191.488281 C 55.257812 193.4375 54.128906 195.546875 52.894531 197.59375 C 49.542969 203.164062 46.570312 208.894531 43.171875 214.605469 C 42.832031 215.183594 42.5 215.871094 42.167969 216.027344 C 41.335938 216.425781 39.550781 216.109375 38.609375 215.96875 C 38.820312 214.648438 39.613281 213.53125 40.269531 212.414062 C 42.210938 209.101562 44.078125 205.714844 46.019531 202.335938 C 49.144531 196.902344 52.429688 191.089844 55.621094 185.445312 C 59.421875 178.71875 63.238281 172.113281 67.0625 165.230469 C 67.703125 164.070312 68.257812 162.226562 69.492188 162.089844 C 70.519531 161.972656 71.605469 162.164062 72.632812 162.148438 C 77.640625 162.085938 83.414062 162.296875 88.578125 162.328125 C 92.824219 162.351562 97.578125 162.15625 100.667969 163.453125 C 105.398438 165.433594 108.082031 168.890625 110.628906 173.230469 C 112.214844 175.941406 114.050781 178.867188 114.421875 182.65625 C 115.011719 188.652344 110.910156 192.875 105.945312 193.800781 C 104.164062 194.132812 101.90625 194.097656 99.664062 194.097656 C 96.734375 194.097656 93.21875 194.214844 89.882812 194.214844 C 88.976562 194.214844 87.527344 193.984375 86.742188 194.214844 C 86.015625 194.429688 85.320312 196.023438 84.90625 196.765625 C 83.28125 199.660156 81.75 202.25 80.101562 205.0625 C 77.949219 208.738281 75.925781 212.542969 73.523438 215.972656 Z M 73.523438 215.972656 " fill-opacity="1" fill-rule="evenodd"/></g><g clip-path="url(#ab5d10a20c)"><path fill="#f2f6fa" d="M 61.492188 215.914062 C 61.539062 215.082031 62.078125 214.371094 62.5 213.71875 C 65.488281 209.085938 67.976562 203.933594 70.917969 199.195312 C 72.59375 196.496094 74.238281 193.746094 75.835938 191.015625 C 76.652344 189.628906 77.464844 188.238281 78.207031 186.808594 C 78.929688 185.425781 79.738281 184.023438 80.695312 182.777344 C 85.625 182.695312 91.113281 182.894531 96.40625 182.894531 C 99.988281 182.894531 103.542969 182.992188 103.515625 179.457031 C 103.5 177.285156 101.757812 175.195312 100.257812 174.359375 C 98.820312 173.558594 96.632812 173.621094 94.390625 173.589844 C 89.074219 173.507812 83.996094 173.527344 78.207031 173.527344 C 77.167969 173.527344 75.664062 173.351562 75.007812 173.589844 C 74.484375 173.777344 74.097656 174.777344 73.703125 175.484375 C 68.0625 185.644531 62.246094 195.511719 56.574219 205.597656 C 54.953125 208.167969 53.539062 210.949219 51.949219 213.597656 C 51.4375 214.457031 50.972656 215.375 50.230469 216.027344 C 49.066406 216.0625 47.234375 216.265625 46.261719 215.910156 C 46.550781 214.792969 47.207031 213.777344 47.800781 212.828125 C 49.5625 210.003906 51.269531 207.058594 52.957031 204.113281 C 54.0625 202.191406 55.273438 200.285156 56.398438 198.304688 C 57.488281 196.382812 58.523438 194.347656 59.65625 192.378906 C 62.960938 186.632812 66.449219 180.792969 69.792969 174.832031 C 70.308594 173.910156 70.871094 172.957031 71.453125 171.867188 C 71.898438 171.042969 72.648438 169.367188 73.289062 169.140625 C 74.042969 168.882812 75.878906 169.058594 76.609375 169.023438 C 78.519531 168.933594 80.433594 169.085938 82.359375 169.085938 C 84.226562 169.082031 86.167969 169.121094 88.050781 169.203125 C 91.660156 169.355469 96.265625 168.734375 99.25 169.617188 C 101.8125 170.371094 103.265625 171.929688 104.703125 174.121094 C 105.988281 176.078125 107.527344 178.332031 107.667969 181.054688 C 107.816406 183.882812 105.882812 186.234375 103.578125 186.984375 C 102.214844 187.425781 100.425781 187.398438 98.65625 187.398438 C 94.398438 187.398438 89.910156 187.332031 85.617188 187.339844 C 84.738281 187.339844 83.816406 187.144531 83.125 187.339844 C 82.167969 187.605469 81.273438 189.832031 80.757812 190.714844 C 78.609375 194.378906 76.433594 198 74.414062 201.625 C 72.375 205.277344 70.140625 208.839844 68.011719 212.46875 C 67.300781 213.683594 66.78125 215.03125 65.761719 215.96875 C 64.484375 216.039062 62.671875 216.136719 61.492188 215.914062 Z M 61.492188 215.914062 " fill-opacity="1" fill-rule="evenodd"/></g><g clip-path="url(#d5b8a46a60)"><path fill="#f2f6fa" d="M 54.082031 215.914062 C 54.769531 214.070312 55.914062 212.4375 56.808594 210.695312 C 57.683594 208.996094 58.753906 207.355469 59.714844 205.71875 C 61.667969 202.382812 63.542969 199.027344 65.464844 195.699219 C 67.394531 192.367188 69.371094 189.058594 71.214844 185.683594 C 73.058594 182.3125 74.789062 178.855469 76.964844 175.664062 C 82.421875 175.558594 88.191406 175.664062 93.621094 175.664062 C 95.492188 175.667969 97.449219 175.535156 98.835938 176.023438 C 99.84375 176.375 101.148438 177.464844 101.089844 178.75 C 100.992188 180.898438 97.65625 180.410156 95.992188 180.410156 C 89.96875 180.410156 84.703125 180.445312 78.683594 180.527344 C 77.523438 181.757812 76.847656 183.382812 75.957031 184.855469 C 73.316406 189.21875 70.785156 193.640625 68.191406 198.132812 C 65.273438 203.1875 62.226562 208.566406 59.359375 213.898438 C 58.992188 214.585938 58.328125 215.792969 57.9375 215.972656 C 57.5 216.179688 56.707031 216.082031 56.042969 216.09375 C 55.320312 216.101562 54.5625 216.195312 54.082031 215.914062 Z M 54.082031 215.914062 " fill-opacity="1" fill-rule="evenodd"/></g><g fill="#f2f6fa" fill-opacity="1"><g transform="translate(121.689006, 203.275933)"><g><path d="M 10.578125 -29.59375 L 10.578125 -20.734375 L 22.453125 -20.734375 L 22.453125 -15.125 L 10.578125 -15.125 L 10.578125 -5.765625 L 23.96875 -5.765625 L 23.96875 0 L 3.484375 0 L 3.484375 -35.359375 L 23.96875 -35.359375 L 23.96875 -29.59375 Z M 10.578125 -29.59375 "/></g></g></g><g fill="#f2f6fa" fill-opacity="1"><g transform="translate(147.019815, 203.275933)"><g><path d="M 1.671875 -14.109375 C 1.671875 -16.941406 2.234375 -19.453125 3.359375 -21.640625 C 4.492188 -23.835938 6.035156 -25.523438 7.984375 -26.703125 C 9.941406 -27.878906 12.117188 -28.46875 14.515625 -28.46875 C 16.335938 -28.46875 18.070312 -28.070312 19.71875 -27.28125 C 21.375 -26.488281 22.691406 -25.4375 23.671875 -24.125 L 23.671875 -37.421875 L 30.859375 -37.421875 L 30.859375 0 L 23.671875 0 L 23.671875 -4.140625 C 22.796875 -2.765625 21.5625 -1.65625 19.96875 -0.8125 C 18.382812 0.03125 16.550781 0.453125 14.46875 0.453125 C 12.101562 0.453125 9.941406 -0.148438 7.984375 -1.359375 C 6.035156 -2.578125 4.492188 -4.289062 3.359375 -6.5 C 2.234375 -8.707031 1.671875 -11.242188 1.671875 -14.109375 Z M 23.71875 -14.015625 C 23.71875 -15.734375 23.378906 -17.207031 22.703125 -18.4375 C 22.035156 -19.664062 21.128906 -20.609375 19.984375 -21.265625 C 18.835938 -21.921875 17.601562 -22.25 16.28125 -22.25 C 14.96875 -22.25 13.753906 -21.925781 12.640625 -21.28125 C 11.523438 -20.644531 10.625 -19.710938 9.9375 -18.484375 C 9.25 -17.253906 8.90625 -15.796875 8.90625 -14.109375 C 8.90625 -12.421875 9.25 -10.941406 9.9375 -9.671875 C 10.625 -8.410156 11.53125 -7.441406 12.65625 -6.765625 C 13.789062 -6.097656 15 -5.765625 16.28125 -5.765625 C 17.601562 -5.765625 18.835938 -6.09375 19.984375 -6.75 C 21.128906 -7.40625 22.035156 -8.347656 22.703125 -9.578125 C 23.378906 -10.816406 23.71875 -12.296875 23.71875 -14.015625 Z M 23.71875 -14.015625 "/></g></g></g><g fill="#f2f6fa" fill-opacity="1"><g transform="translate(179.732582, 203.275933)"><g><path d="M 29.9375 -28.015625 L 29.9375 0 L 22.8125 0 L 22.8125 -3.546875 C 21.894531 -2.328125 20.703125 -1.367188 19.234375 -0.671875 C 17.773438 0.015625 16.1875 0.359375 14.46875 0.359375 C 12.269531 0.359375 10.328125 -0.101562 8.640625 -1.03125 C 6.960938 -1.957031 5.640625 -3.320312 4.671875 -5.125 C 3.710938 -6.9375 3.234375 -9.085938 3.234375 -11.578125 L 3.234375 -28.015625 L 10.3125 -28.015625 L 10.3125 -12.59375 C 10.3125 -10.363281 10.867188 -8.648438 11.984375 -7.453125 C 13.097656 -6.265625 14.613281 -5.671875 16.53125 -5.671875 C 18.488281 -5.671875 20.023438 -6.265625 21.140625 -7.453125 C 22.253906 -8.648438 22.8125 -10.363281 22.8125 -12.59375 L 22.8125 -28.015625 Z M 29.9375 -28.015625 "/></g></g></g><g fill="#f2f6fa" fill-opacity="1"><g transform="translate(211.585801, 203.275933)"><g><path d="M 1.765625 -17.703125 C 1.765625 -21.171875 2.546875 -24.28125 4.109375 -27.03125 C 5.679688 -29.78125 7.820312 -31.921875 10.53125 -33.453125 C 13.25 -34.992188 16.296875 -35.765625 19.671875 -35.765625 C 23.617188 -35.765625 27.078125 -34.75 30.046875 -32.71875 C 33.015625 -30.695312 35.085938 -27.898438 36.265625 -24.328125 L 28.125 -24.328125 C 27.3125 -26.015625 26.171875 -27.28125 24.703125 -28.125 C 23.234375 -28.96875 21.539062 -29.390625 19.625 -29.390625 C 17.5625 -29.390625 15.726562 -28.90625 14.125 -27.9375 C 12.53125 -26.976562 11.285156 -25.625 10.390625 -23.875 C 9.492188 -22.125 9.046875 -20.066406 9.046875 -17.703125 C 9.046875 -15.378906 9.492188 -13.332031 10.390625 -11.5625 C 11.285156 -9.789062 12.53125 -8.421875 14.125 -7.453125 C 15.726562 -6.492188 17.5625 -6.015625 19.625 -6.015625 C 21.539062 -6.015625 23.234375 -6.441406 24.703125 -7.296875 C 26.171875 -8.160156 27.3125 -9.4375 28.125 -11.125 L 36.265625 -11.125 C 35.085938 -7.519531 33.019531 -4.710938 30.0625 -2.703125 C 27.113281 -0.703125 23.648438 0.296875 19.671875 0.296875 C 16.296875 0.296875 13.25 -0.46875 10.53125 -2 C 7.820312 -3.53125 5.679688 -5.660156 4.109375 -8.390625 C 2.546875 -11.128906 1.765625 -14.234375 1.765625 -17.703125 Z M 1.765625 -17.703125 "/></g></g></g><g fill="#f2f6fa" fill-opacity="1"><g transform="translate(248.849094, 203.275933)"><g><path d="M 15.9375 0.453125 C 13.238281 0.453125 10.804688 -0.144531 8.640625 -1.34375 C 6.484375 -2.539062 4.789062 -4.234375 3.5625 -6.421875 C 2.332031 -8.617188 1.71875 -11.148438 1.71875 -14.015625 C 1.71875 -16.878906 2.347656 -19.40625 3.609375 -21.59375 C 4.878906 -23.789062 6.609375 -25.484375 8.796875 -26.671875 C 10.992188 -27.867188 13.441406 -28.46875 16.140625 -28.46875 C 18.835938 -28.46875 21.28125 -27.867188 23.46875 -26.671875 C 25.65625 -25.484375 27.378906 -23.789062 28.640625 -21.59375 C 29.910156 -19.40625 30.546875 -16.878906 30.546875 -14.015625 C 30.546875 -11.148438 29.894531 -8.617188 28.59375 -6.421875 C 27.300781 -4.234375 25.550781 -2.539062 23.34375 -1.34375 C 21.132812 -0.144531 18.664062 0.453125 15.9375 0.453125 Z M 15.9375 -5.71875 C 17.21875 -5.71875 18.421875 -6.03125 19.546875 -6.65625 C 20.679688 -7.28125 21.582031 -8.210938 22.25 -9.453125 C 22.925781 -10.703125 23.265625 -12.222656 23.265625 -14.015625 C 23.265625 -16.671875 22.5625 -18.71875 21.15625 -20.15625 C 19.757812 -21.59375 18.050781 -22.3125 16.03125 -22.3125 C 14.007812 -22.3125 12.316406 -21.59375 10.953125 -20.15625 C 9.585938 -18.71875 8.90625 -16.671875 8.90625 -14.015625 C 8.90625 -11.347656 9.566406 -9.296875 10.890625 -7.859375 C 12.222656 -6.429688 13.90625 -5.71875 15.9375 -5.71875 Z M 15.9375 -5.71875 "/></g></g></g><g fill="#f2f6fa" fill-opacity="1"><g transform="translate(279.539408, 203.275933)"><g><path d="M 1.671875 -14.109375 C 1.671875 -16.941406 2.234375 -19.453125 3.359375 -21.640625 C 4.492188 -23.835938 6.035156 -25.523438 7.984375 -26.703125 C 9.941406 -27.878906 12.117188 -28.46875 14.515625 -28.46875 C 16.335938 -28.46875 18.070312 -28.070312 19.71875 -27.28125 C 21.375 -26.488281 22.691406 -25.4375 23.671875 -24.125 L 23.671875 -37.421875 L 30.859375 -37.421875 L 30.859375 0 L 23.671875 0 L 23.671875 -4.140625 C 22.796875 -2.765625 21.5625 -1.65625 19.96875 -0.8125 C 18.382812 0.03125 16.550781 0.453125 14.46875 0.453125 C 12.101562 0.453125 9.941406 -0.148438 7.984375 -1.359375 C 6.035156 -2.578125 4.492188 -4.289062 3.359375 -6.5 C 2.234375 -8.707031 1.671875 -11.242188 1.671875 -14.109375 Z M 23.71875 -14.015625 C 23.71875 -15.734375 23.378906 -17.207031 22.703125 -18.4375 C 22.035156 -19.664062 21.128906 -20.609375 19.984375 -21.265625 C 18.835938 -21.921875 17.601562 -22.25 16.28125 -22.25 C 14.96875 -22.25 13.753906 -21.925781 12.640625 -21.28125 C 11.523438 -20.644531 10.625 -19.710938 9.9375 -18.484375 C 9.25 -17.253906 8.90625 -15.796875 8.90625 -14.109375 C 8.90625 -12.421875 9.25 -10.941406 9.9375 -9.671875 C 10.625 -8.410156 11.53125 -7.441406 12.65625 -6.765625 C 13.789062 -6.097656 15 -5.765625 16.28125 -5.765625 C 17.601562 -5.765625 18.835938 -6.09375 19.984375 -6.75 C 21.128906 -7.40625 22.035156 -8.347656 22.703125 -9.578125 C 23.378906 -10.816406 23.71875 -12.296875 23.71875 -14.015625 Z M 23.71875 -14.015625 "/></g></g></g><g fill="#f2f6fa" fill-opacity="1"><g transform="translate(312.25217, 203.275933)"><g><path d="M 29.53125 -14.609375 C 29.53125 -13.597656 29.460938 -12.691406 29.328125 -11.890625 L 8.84375 -11.890625 C 9.019531 -9.859375 9.726562 -8.269531 10.96875 -7.125 C 12.21875 -5.976562 13.753906 -5.40625 15.578125 -5.40625 C 18.203125 -5.40625 20.070312 -6.535156 21.1875 -8.796875 L 28.828125 -8.796875 C 28.015625 -6.097656 26.460938 -3.878906 24.171875 -2.140625 C 21.878906 -0.410156 19.066406 0.453125 15.734375 0.453125 C 13.035156 0.453125 10.613281 -0.144531 8.46875 -1.34375 C 6.332031 -2.539062 4.664062 -4.234375 3.46875 -6.421875 C 2.269531 -8.617188 1.671875 -11.148438 1.671875 -14.015625 C 1.671875 -16.910156 2.257812 -19.453125 3.4375 -21.640625 C 4.613281 -23.835938 6.265625 -25.523438 8.390625 -26.703125 C 10.515625 -27.878906 12.960938 -28.46875 15.734375 -28.46875 C 18.390625 -28.46875 20.769531 -27.894531 22.875 -26.75 C 24.988281 -25.601562 26.625 -23.976562 27.78125 -21.875 C 28.945312 -19.769531 29.53125 -17.347656 29.53125 -14.609375 Z M 22.203125 -16.640625 C 22.171875 -18.460938 21.515625 -19.921875 20.234375 -21.015625 C 18.953125 -22.109375 17.382812 -22.65625 15.53125 -22.65625 C 13.769531 -22.65625 12.289062 -22.125 11.09375 -21.0625 C 9.90625 -20 9.175781 -18.523438 8.90625 -16.640625 Z M 22.203125 -16.640625 "/></g></g></g></svg>