<svg xmlns="http://www.w3.org/2000/svg" xmlns:xlink="http://www.w3.org/1999/xlink" width="500" zoomAndPan="magnify" viewBox="0 0 375 374.999991" height="500" preserveAspectRatio="xMidYMid meet" version="1.0"><defs><g/><clipPath id="15936497c0"><path d="M 31.085938 155.601562 L 121.835938 155.601562 L 121.835938 216.351562 L 31.085938 216.351562 Z M 31.085938 155.601562 " clip-rule="nonzero"/></clipPath><clipPath id="ff9d8a83b0"><path d="M 38 162 L 115 162 L 115 216.351562 L 38 216.351562 Z M 38 162 " clip-rule="nonzero"/></clipPath><clipPath id="6d5cd9c6d9"><path d="M 46 168 L 108 168 L 108 216.351562 L 46 216.351562 Z M 46 168 " clip-rule="nonzero"/></clipPath><clipPath id="c7dacf6c41"><path d="M 54 175 L 102 175 L 102 216.351562 L 54 216.351562 Z M 54 175 " clip-rule="nonzero"/></clipPath></defs><g clip-path="url(#15936497c0)"><path fill="#ffffff" d="M 77.675781 215.851562 C 77.566406 215.339844 77.996094 214.941406 78.207031 214.546875 C 79.761719 211.660156 81.609375 208.894531 83.246094 206.011719 C 84.179688 204.371094 85.152344 202.722656 86.09375 201.089844 C 86.5625 200.277344 87.082031 199.46875 87.457031 198.601562 C 87.820312 197.757812 88.21875 196.851562 88.996094 196.289062 C 93.847656 196.007812 98.496094 196.300781 102.984375 196.230469 C 106.714844 196.171875 109.160156 195.441406 111.34375 193.917969 C 114.679688 191.597656 117.359375 187.480469 116.4375 181.648438 C 115.832031 177.796875 113.910156 174.613281 112.171875 171.691406 C 111.269531 170.171875 110.460938 168.675781 109.386719 167.304688 C 108.386719 166.03125 107.167969 164.863281 105.769531 163.808594 C 103.140625 161.824219 99.710938 160.101562 95.339844 160.015625 C 87.214844 159.851562 78.828125 160.015625 70.382812 160.015625 C 69.332031 160.015625 67.730469 159.777344 66.886719 160.074219 C 66.4375 160.230469 66.03125 161.121094 65.699219 161.675781 C 63.269531 165.726562 61.292969 170.039062 58.882812 174.003906 C 53.039062 184.5625 47.1875 195.113281 41.21875 205.597656 C 40.726562 206.464844 40.25 207.351562 39.738281 208.203125 C 39.210938 209.085938 38.859375 210.035156 38.375 210.929688 C 37.902344 211.804688 37.328125 212.628906 36.835938 213.480469 C 36.332031 214.339844 35.992188 215.300781 35.292969 216.027344 C 34.222656 216.246094 32.578125 216.128906 31.5 215.972656 C 31.5 215.210938 32.046875 214.632812 32.386719 214.015625 C 34.777344 209.714844 37.308594 205.226562 39.679688 200.796875 C 42.382812 195.746094 45.304688 190.808594 48.097656 185.800781 C 50.90625 180.761719 53.507812 175.617188 56.394531 170.625 C 58.546875 166.910156 60.691406 163.199219 62.796875 159.421875 C 63.484375 158.191406 63.964844 156.808594 64.929688 155.746094 C 69.46875 155.480469 74.027344 155.898438 78.5625 155.6875 C 82.808594 155.492188 87.726562 155.6875 92.316406 155.6875 C 93.839844 155.6875 95.316406 155.542969 96.761719 155.6875 C 103.296875 156.339844 107.820312 160.078125 111.222656 164.046875 C 113.316406 166.480469 115.054688 169.375 116.679688 172.285156 C 118.296875 175.1875 120.027344 178.042969 120.828125 181.828125 C 121.089844 183.066406 121.351562 184.515625 121.242188 185.976562 C 120.996094 189.222656 119.535156 191.894531 118.21875 194.277344 C 114.824219 200.414062 111.515625 206.382812 108.023438 212.414062 C 107.347656 213.582031 106.722656 214.808594 105.832031 215.851562 C 101.195312 216.121094 96.367188 215.820312 91.605469 216.03125 C 89.21875 216.136719 86.835938 215.898438 84.492188 215.96875 C 82.167969 216.042969 79.867188 216.089844 77.675781 215.851562 Z M 77.675781 215.851562 " fill-opacity="1" fill-rule="evenodd"/></g><g clip-path="url(#ff9d8a83b0)"><path fill="#ffffff" d="M 73.523438 215.972656 C 72.421875 216.007812 70.703125 216.199219 69.789062 215.851562 C 69.855469 215.183594 70.257812 214.601562 70.5625 214.015625 C 71.433594 212.320312 72.496094 210.730469 73.464844 209.09375 C 76.699219 203.632812 80.015625 198.261719 83.125 192.675781 C 83.734375 191.589844 84.351562 190.457031 85.203125 189.535156 C 90.675781 189.335938 96.371094 189.785156 101.738281 189.535156 C 104.328125 189.414062 106.324219 188.679688 107.785156 187.222656 C 109.140625 185.867188 110.292969 183.921875 110.035156 181.175781 C 109.824219 178.898438 108.746094 176.808594 107.785156 175.070312 C 106.769531 173.234375 105.644531 171.609375 104.347656 170.152344 C 102.613281 168.722656 100.832031 167.359375 98.179688 166.890625 C 95.460938 166.410156 92.242188 166.773438 88.996094 166.773438 C 82.847656 166.769531 76.460938 166.511719 70.738281 166.773438 C 69.824219 167.574219 69.453125 168.785156 68.839844 169.796875 C 67.019531 172.804688 65.308594 175.925781 63.507812 179.042969 C 62.332031 181.070312 61.074219 183.109375 59.949219 185.207031 C 58.816406 187.324219 57.808594 189.472656 56.511719 191.488281 C 55.257812 193.4375 54.128906 195.546875 52.894531 197.59375 C 49.542969 203.164062 46.570312 208.894531 43.171875 214.605469 C 42.832031 215.183594 42.5 215.871094 42.167969 216.027344 C 41.335938 216.425781 39.550781 216.109375 38.609375 215.96875 C 38.820312 214.648438 39.613281 213.53125 40.269531 212.414062 C 42.210938 209.101562 44.078125 205.714844 46.019531 202.335938 C 49.144531 196.902344 52.429688 191.089844 55.621094 185.445312 C 59.421875 178.71875 63.238281 172.113281 67.0625 165.230469 C 67.703125 164.070312 68.257812 162.226562 69.492188 162.089844 C 70.519531 161.972656 71.605469 162.164062 72.632812 162.148438 C 77.640625 162.085938 83.414062 162.296875 88.578125 162.328125 C 92.824219 162.351562 97.578125 162.15625 100.667969 163.453125 C 105.398438 165.433594 108.082031 168.890625 110.628906 173.234375 C 112.214844 175.941406 114.050781 178.867188 114.421875 182.65625 C 115.011719 188.652344 110.910156 192.875 105.945312 193.800781 C 104.164062 194.132812 101.90625 194.097656 99.664062 194.097656 C 96.734375 194.097656 93.21875 194.214844 89.882812 194.214844 C 88.976562 194.214844 87.527344 193.984375 86.742188 194.214844 C 86.015625 194.429688 85.320312 196.023438 84.90625 196.765625 C 83.28125 199.660156 81.75 202.25 80.101562 205.0625 C 77.949219 208.738281 75.925781 212.542969 73.523438 215.972656 Z M 73.523438 215.972656 " fill-opacity="1" fill-rule="evenodd"/></g><g clip-path="url(#6d5cd9c6d9)"><path fill="#ffffff" d="M 61.492188 215.914062 C 61.539062 215.082031 62.078125 214.371094 62.5 213.71875 C 65.488281 209.085938 67.976562 203.933594 70.917969 199.195312 C 72.59375 196.496094 74.238281 193.746094 75.835938 191.015625 C 76.652344 189.628906 77.464844 188.238281 78.207031 186.808594 C 78.929688 185.425781 79.738281 184.023438 80.695312 182.777344 C 85.625 182.695312 91.113281 182.894531 96.40625 182.894531 C 99.988281 182.894531 103.542969 182.992188 103.515625 179.457031 C 103.5 177.285156 101.757812 175.195312 100.257812 174.359375 C 98.820312 173.558594 96.632812 173.621094 94.390625 173.589844 C 89.074219 173.507812 83.996094 173.527344 78.207031 173.527344 C 77.167969 173.527344 75.664062 173.351562 75.007812 173.589844 C 74.484375 173.777344 74.097656 174.777344 73.703125 175.484375 C 68.0625 185.644531 62.246094 195.511719 56.574219 205.597656 C 54.953125 208.167969 53.539062 210.949219 51.949219 213.597656 C 51.4375 214.457031 50.972656 215.375 50.230469 216.027344 C 49.066406 216.0625 47.234375 216.265625 46.261719 215.910156 C 46.550781 214.792969 47.207031 213.78125 47.800781 212.828125 C 49.5625 210.003906 51.269531 207.058594 52.957031 204.113281 C 54.0625 202.191406 55.273438 200.285156 56.398438 198.304688 C 57.488281 196.382812 58.523438 194.347656 59.65625 192.378906 C 62.960938 186.632812 66.449219 180.792969 69.792969 174.832031 C 70.308594 173.910156 70.871094 172.957031 71.453125 171.867188 C 71.898438 171.042969 72.648438 169.367188 73.289062 169.140625 C 74.042969 168.882812 75.878906 169.058594 76.609375 169.023438 C 78.519531 168.933594 80.433594 169.085938 82.359375 169.085938 C 84.226562 169.082031 86.167969 169.125 88.050781 169.203125 C 91.660156 169.355469 96.265625 168.734375 99.25 169.617188 C 101.8125 170.371094 103.265625 171.929688 104.703125 174.121094 C 105.988281 176.078125 107.527344 178.332031 107.667969 181.054688 C 107.816406 183.882812 105.882812 186.234375 103.578125 186.984375 C 102.214844 187.425781 100.425781 187.398438 98.65625 187.398438 C 94.398438 187.398438 89.910156 187.332031 85.617188 187.339844 C 84.738281 187.339844 83.816406 187.144531 83.125 187.339844 C 82.167969 187.605469 81.273438 189.832031 80.757812 190.714844 C 78.609375 194.378906 76.433594 198 74.414062 201.625 C 72.375 205.277344 70.140625 208.839844 68.011719 212.46875 C 67.300781 213.683594 66.78125 215.03125 65.761719 215.96875 C 64.484375 216.039062 62.671875 216.136719 61.492188 215.914062 Z M 61.492188 215.914062 " fill-opacity="1" fill-rule="evenodd"/></g><g clip-path="url(#c7dacf6c41)"><path fill="#ffffff" d="M 54.082031 215.914062 C 54.769531 214.070312 55.914062 212.4375 56.808594 210.695312 C 57.683594 208.996094 58.753906 207.355469 59.714844 205.71875 C 61.667969 202.382812 63.542969 199.027344 65.464844 195.699219 C 67.394531 192.367188 69.371094 189.058594 71.214844 185.683594 C 73.058594 182.3125 74.789062 178.855469 76.964844 175.664062 C 82.421875 175.558594 88.191406 175.664062 93.621094 175.664062 C 95.492188 175.667969 97.449219 175.535156 98.835938 176.023438 C 99.84375 176.375 101.148438 177.464844 101.089844 178.75 C 100.992188 180.898438 97.65625 180.410156 95.992188 180.410156 C 89.96875 180.410156 84.703125 180.445312 78.683594 180.527344 C 77.523438 181.757812 76.847656 183.382812 75.957031 184.855469 C 73.316406 189.21875 70.785156 193.640625 68.191406 198.132812 C 65.273438 203.1875 62.226562 208.566406 59.359375 213.898438 C 58.992188 214.585938 58.328125 215.792969 57.9375 215.972656 C 57.5 216.179688 56.707031 216.082031 56.042969 216.09375 C 55.320312 216.101562 54.5625 216.195312 54.082031 215.914062 Z M 54.082031 215.914062 " fill-opacity="1" fill-rule="evenodd"/></g><g fill="#ffffff" fill-opacity="1"><g transform="translate(121.689006, 203.044206)"><g><path d="M 11.78125 -28.578125 L 11.78125 -21.390625 L 23.359375 -21.390625 L 23.359375 -14.71875 L 11.78125 -14.71875 L 11.78125 -6.921875 L 24.890625 -6.921875 L 24.890625 0 L 3.140625 0 L 3.140625 -35.5 L 24.890625 -35.5 L 24.890625 -28.578125 Z M 11.78125 -28.578125 "/></g></g></g><g fill="#ffffff" fill-opacity="1"><g transform="translate(147.477622, 203.044206)"><g><path d="M 1.421875 -14.15625 C 1.421875 -17.0625 1.96875 -19.609375 3.0625 -21.796875 C 4.15625 -23.992188 5.644531 -25.679688 7.53125 -26.859375 C 9.425781 -28.035156 11.535156 -28.625 13.859375 -28.625 C 15.710938 -28.625 17.40625 -28.234375 18.9375 -27.453125 C 20.476562 -26.679688 21.6875 -25.640625 22.5625 -24.328125 L 22.5625 -37.421875 L 31.203125 -37.421875 L 31.203125 0 L 22.5625 0 L 22.5625 -4.046875 C 21.75 -2.691406 20.59375 -1.609375 19.09375 -0.796875 C 17.59375 0.00390625 15.847656 0.40625 13.859375 0.40625 C 11.535156 0.40625 9.425781 -0.191406 7.53125 -1.390625 C 5.644531 -2.585938 4.15625 -4.289062 3.0625 -6.5 C 1.96875 -8.707031 1.421875 -11.257812 1.421875 -14.15625 Z M 22.5625 -14.109375 C 22.5625 -16.265625 21.960938 -17.96875 20.765625 -19.21875 C 19.566406 -20.46875 18.109375 -21.09375 16.390625 -21.09375 C 14.671875 -21.09375 13.210938 -20.476562 12.015625 -19.25 C 10.816406 -18.019531 10.21875 -16.320312 10.21875 -14.15625 C 10.21875 -12 10.816406 -10.285156 12.015625 -9.015625 C 13.210938 -7.753906 14.671875 -7.125 16.390625 -7.125 C 18.109375 -7.125 19.566406 -7.75 20.765625 -9 C 21.960938 -10.25 22.5625 -11.953125 22.5625 -14.109375 Z M 22.5625 -14.109375 "/></g></g></g><g fill="#ffffff" fill-opacity="1"><g transform="translate(180.244409, 203.044206)"><g><path d="M 31 -28.21875 L 31 0 L 22.359375 0 L 22.359375 -3.84375 C 21.484375 -2.59375 20.289062 -1.585938 18.78125 -0.828125 C 17.28125 -0.078125 15.625 0.296875 13.8125 0.296875 C 11.65625 0.296875 9.75 -0.179688 8.09375 -1.140625 C 6.4375 -2.097656 5.15625 -3.488281 4.25 -5.3125 C 3.34375 -7.132812 2.890625 -9.273438 2.890625 -11.734375 L 2.890625 -28.21875 L 11.484375 -28.21875 L 11.484375 -12.890625 C 11.484375 -11.003906 11.972656 -9.535156 12.953125 -8.484375 C 13.929688 -7.441406 15.242188 -6.921875 16.890625 -6.921875 C 18.578125 -6.921875 19.910156 -7.441406 20.890625 -8.484375 C 21.867188 -9.535156 22.359375 -11.003906 22.359375 -12.890625 L 22.359375 -28.21875 Z M 31 -28.21875 "/></g></g></g><g fill="#ffffff" fill-opacity="1"><g transform="translate(212.758359, 203.044206)"><g><path d="M 1.671875 -17.796875 C 1.671875 -21.304688 2.425781 -24.4375 3.9375 -27.1875 C 5.457031 -29.9375 7.570312 -32.078125 10.28125 -33.609375 C 13 -35.140625 16.078125 -35.90625 19.515625 -35.90625 C 23.734375 -35.90625 27.34375 -34.789062 30.34375 -32.5625 C 33.34375 -30.34375 35.347656 -27.3125 36.359375 -23.46875 L 26.859375 -23.46875 C 26.148438 -24.945312 25.144531 -26.070312 23.84375 -26.84375 C 22.550781 -27.625 21.078125 -28.015625 19.421875 -28.015625 C 16.753906 -28.015625 14.59375 -27.085938 12.9375 -25.234375 C 11.289062 -23.378906 10.46875 -20.898438 10.46875 -17.796875 C 10.46875 -14.703125 11.289062 -12.226562 12.9375 -10.375 C 14.59375 -8.519531 16.753906 -7.59375 19.421875 -7.59375 C 21.078125 -7.59375 22.550781 -7.976562 23.84375 -8.75 C 25.144531 -9.519531 26.148438 -10.648438 26.859375 -12.140625 L 36.359375 -12.140625 C 35.347656 -8.296875 33.34375 -5.269531 30.34375 -3.0625 C 27.34375 -0.851562 23.734375 0.25 19.515625 0.25 C 16.078125 0.25 13 -0.515625 10.28125 -2.046875 C 7.570312 -3.578125 5.457031 -5.707031 3.9375 -8.4375 C 2.425781 -11.175781 1.671875 -14.296875 1.671875 -17.796875 Z M 1.671875 -17.796875 "/></g></g></g><g fill="#ffffff" fill-opacity="1"><g transform="translate(249.722167, 203.044206)"><g><path d="M 15.984375 0.40625 C 13.210938 0.40625 10.722656 -0.179688 8.515625 -1.359375 C 6.304688 -2.546875 4.570312 -4.234375 3.3125 -6.421875 C 2.050781 -8.617188 1.421875 -11.179688 1.421875 -14.109375 C 1.421875 -17.015625 2.0625 -19.570312 3.34375 -21.78125 C 4.625 -23.988281 6.375 -25.679688 8.59375 -26.859375 C 10.820312 -28.035156 13.316406 -28.625 16.078125 -28.625 C 18.847656 -28.625 21.34375 -28.035156 23.5625 -26.859375 C 25.789062 -25.679688 27.546875 -23.988281 28.828125 -21.78125 C 30.109375 -19.570312 30.75 -17.015625 30.75 -14.109375 C 30.75 -11.210938 30.097656 -8.660156 28.796875 -6.453125 C 27.503906 -4.242188 25.734375 -2.546875 23.484375 -1.359375 C 21.242188 -0.179688 18.742188 0.40625 15.984375 0.40625 Z M 15.984375 -7.078125 C 17.640625 -7.078125 19.046875 -7.679688 20.203125 -8.890625 C 21.367188 -10.109375 21.953125 -11.847656 21.953125 -14.109375 C 21.953125 -16.367188 21.382812 -18.101562 20.25 -19.3125 C 19.125 -20.53125 17.734375 -21.140625 16.078125 -21.140625 C 14.398438 -21.140625 13.003906 -20.539062 11.890625 -19.34375 C 10.773438 -18.144531 10.21875 -16.398438 10.21875 -14.109375 C 10.21875 -11.847656 10.765625 -10.109375 11.859375 -8.890625 C 12.953125 -7.679688 14.328125 -7.078125 15.984375 -7.078125 Z M 15.984375 -7.078125 "/></g></g></g><g fill="#ffffff" fill-opacity="1"><g transform="translate(280.365162, 203.044206)"><g><path d="M 1.421875 -14.15625 C 1.421875 -17.0625 1.96875 -19.609375 3.0625 -21.796875 C 4.15625 -23.992188 5.644531 -25.679688 7.53125 -26.859375 C 9.425781 -28.035156 11.535156 -28.625 13.859375 -28.625 C 15.710938 -28.625 17.40625 -28.234375 18.9375 -27.453125 C 20.476562 -26.679688 21.6875 -25.640625 22.5625 -24.328125 L 22.5625 -37.421875 L 31.203125 -37.421875 L 31.203125 0 L 22.5625 0 L 22.5625 -4.046875 C 21.75 -2.691406 20.59375 -1.609375 19.09375 -0.796875 C 17.59375 0.00390625 15.847656 0.40625 13.859375 0.40625 C 11.535156 0.40625 9.425781 -0.191406 7.53125 -1.390625 C 5.644531 -2.585938 4.15625 -4.289062 3.0625 -6.5 C 1.96875 -8.707031 1.421875 -11.257812 1.421875 -14.15625 Z M 22.5625 -14.109375 C 22.5625 -16.265625 21.960938 -17.96875 20.765625 -19.21875 C 19.566406 -20.46875 18.109375 -21.09375 16.390625 -21.09375 C 14.671875 -21.09375 13.210938 -20.476562 12.015625 -19.25 C 10.816406 -18.019531 10.21875 -16.320312 10.21875 -14.15625 C 10.21875 -12 10.816406 -10.285156 12.015625 -9.015625 C 13.210938 -7.753906 14.671875 -7.125 16.390625 -7.125 C 18.109375 -7.125 19.566406 -7.75 20.765625 -9 C 21.960938 -10.25 22.5625 -11.953125 22.5625 -14.109375 Z M 22.5625 -14.109375 "/></g></g></g><g fill="#ffffff" fill-opacity="1"><g transform="translate(313.131952, 203.044206)"><g><path d="M 29.734375 -14.5625 C 29.734375 -13.757812 29.6875 -12.914062 29.59375 -12.03125 L 10.015625 -12.03125 C 10.148438 -10.28125 10.710938 -8.941406 11.703125 -8.015625 C 12.703125 -7.085938 13.925781 -6.625 15.375 -6.625 C 17.53125 -6.625 19.03125 -7.535156 19.875 -9.359375 L 29.078125 -9.359375 C 28.609375 -7.503906 27.757812 -5.832031 26.53125 -4.34375 C 25.300781 -2.863281 23.757812 -1.703125 21.90625 -0.859375 C 20.050781 -0.015625 17.972656 0.40625 15.671875 0.40625 C 12.910156 0.40625 10.453125 -0.179688 8.296875 -1.359375 C 6.140625 -2.546875 4.453125 -4.234375 3.234375 -6.421875 C 2.023438 -8.617188 1.421875 -11.179688 1.421875 -14.109375 C 1.421875 -17.046875 2.015625 -19.609375 3.203125 -21.796875 C 4.398438 -23.992188 6.078125 -25.679688 8.234375 -26.859375 C 10.398438 -28.035156 12.878906 -28.625 15.671875 -28.625 C 18.410156 -28.625 20.84375 -28.050781 22.96875 -26.90625 C 25.09375 -25.757812 26.75 -24.125 27.9375 -22 C 29.132812 -19.875 29.734375 -17.394531 29.734375 -14.5625 Z M 20.890625 -16.84375 C 20.890625 -18.320312 20.382812 -19.5 19.375 -20.375 C 18.363281 -21.257812 17.097656 -21.703125 15.578125 -21.703125 C 14.128906 -21.703125 12.90625 -21.28125 11.90625 -20.4375 C 10.914062 -19.59375 10.300781 -18.394531 10.0625 -16.84375 Z M 20.890625 -16.84375 "/></g></g></g></svg>