<svg xmlns="http://www.w3.org/2000/svg" xmlns:xlink="http://www.w3.org/1999/xlink" width="500" zoomAndPan="magnify" viewBox="0 0 375 374.999991" height="500" preserveAspectRatio="xMidYMid meet" version="1.0"><defs><g/><clipPath id="fb314fcc82"><path d="M 31.085938 155.601562 L 121.835938 155.601562 L 121.835938 216.351562 L 31.085938 216.351562 Z M 31.085938 155.601562 " clip-rule="nonzero"/></clipPath><clipPath id="e7b1e45ab4"><path d="M 38 162 L 115 162 L 115 216.351562 L 38 216.351562 Z M 38 162 " clip-rule="nonzero"/></clipPath><clipPath id="8be651d030"><path d="M 46 169 L 108 169 L 108 216.351562 L 46 216.351562 Z M 46 169 " clip-rule="nonzero"/></clipPath><clipPath id="3c14daed07"><path d="M 54 175 L 102 175 L 102 216.351562 L 54 216.351562 Z M 54 175 " clip-rule="nonzero"/></clipPath></defs><g clip-path="url(#fb314fcc82)"><path fill="#000000" d="M 77.753906 215.980469 C 77.644531 215.46875 78.074219 215.066406 78.285156 214.671875 C 79.84375 211.777344 81.695312 209.007812 83.335938 206.121094 C 84.269531 204.476562 85.242188 202.824219 86.183594 201.1875 C 86.65625 200.371094 87.175781 199.5625 87.550781 198.691406 C 87.914062 197.847656 88.3125 196.941406 89.09375 196.375 C 93.953125 196.09375 98.609375 196.386719 103.105469 196.316406 C 106.839844 196.261719 109.289062 195.523438 111.476562 194 C 114.820312 191.675781 117.503906 187.550781 116.582031 181.707031 C 115.976562 177.84375 114.050781 174.65625 112.308594 171.726562 C 111.402344 170.203125 110.59375 168.703125 109.519531 167.332031 C 108.515625 166.054688 107.296875 164.882812 105.894531 163.824219 C 103.261719 161.835938 99.824219 160.109375 95.445312 160.023438 C 87.308594 159.863281 78.90625 160.023438 70.449219 160.023438 C 69.394531 160.023438 67.792969 159.789062 66.945312 160.082031 C 66.496094 160.242188 66.089844 161.132812 65.757812 161.6875 C 63.324219 165.746094 61.34375 170.070312 58.929688 174.042969 C 53.074219 184.625 47.214844 195.195312 41.238281 205.703125 C 40.742188 206.574219 40.265625 207.464844 39.753906 208.316406 C 39.222656 209.203125 38.871094 210.152344 38.386719 211.046875 C 37.914062 211.921875 37.339844 212.75 36.84375 213.601562 C 36.34375 214.464844 36 215.429688 35.300781 216.15625 C 34.226562 216.375 32.582031 216.257812 31.5 216.101562 C 31.5 215.339844 32.046875 214.757812 32.390625 214.140625 C 34.78125 209.828125 37.320312 205.332031 39.691406 200.894531 C 42.398438 195.832031 45.328125 190.882812 48.125 185.867188 C 50.9375 180.816406 53.542969 175.660156 56.4375 170.660156 C 58.59375 166.933594 60.738281 163.214844 62.851562 159.429688 C 63.539062 158.195312 64.019531 156.8125 64.988281 155.75 C 69.535156 155.480469 74.101562 155.898438 78.644531 155.6875 C 82.894531 155.492188 87.824219 155.6875 92.417969 155.6875 C 93.945312 155.6875 95.421875 155.542969 96.871094 155.6875 C 103.417969 156.339844 107.949219 160.089844 111.359375 164.0625 C 113.453125 166.503906 115.199219 169.40625 116.820312 172.320312 C 118.445312 175.230469 120.175781 178.089844 120.976562 181.882812 C 121.238281 183.125 121.503906 184.578125 121.394531 186.042969 C 121.148438 189.292969 119.683594 191.972656 118.367188 194.359375 C 114.964844 200.507812 111.648438 206.492188 108.152344 212.535156 C 107.476562 213.707031 106.851562 214.933594 105.957031 215.980469 C 101.3125 216.25 96.476562 215.949219 91.707031 216.160156 C 89.320312 216.265625 86.929688 216.027344 84.582031 216.097656 C 82.253906 216.171875 79.949219 216.21875 77.753906 215.980469 Z M 77.753906 215.980469 " fill-opacity="1" fill-rule="evenodd"/></g><g clip-path="url(#e7b1e45ab4)"><path fill="#000000" d="M 73.597656 216.101562 C 72.492188 216.136719 70.769531 216.328125 69.855469 215.980469 C 69.921875 215.308594 70.324219 214.726562 70.628906 214.140625 C 71.5 212.441406 72.566406 210.847656 73.539062 209.210938 C 76.777344 203.734375 80.097656 198.351562 83.214844 192.753906 C 83.824219 191.664062 84.441406 190.53125 85.292969 189.605469 C 90.777344 189.410156 96.484375 189.859375 101.855469 189.605469 C 104.449219 189.484375 106.453125 188.75 107.914062 187.289062 C 109.273438 185.933594 110.425781 183.984375 110.167969 181.230469 C 109.957031 178.949219 108.875 176.855469 107.914062 175.113281 C 106.894531 173.269531 105.769531 171.644531 104.46875 170.183594 C 102.734375 168.75 100.949219 167.382812 98.292969 166.914062 C 95.570312 166.433594 92.34375 166.796875 89.09375 166.796875 C 82.933594 166.792969 76.535156 166.535156 70.804688 166.796875 C 69.890625 167.601562 69.519531 168.8125 68.902344 169.824219 C 67.078125 172.839844 65.367188 175.96875 63.558594 179.09375 C 62.382812 181.125 61.125 183.167969 59.996094 185.269531 C 58.863281 187.390625 57.851562 189.546875 56.554688 191.566406 C 55.296875 193.519531 54.164062 195.632812 52.933594 197.683594 C 49.574219 203.265625 46.597656 209.007812 43.195312 214.730469 C 42.851562 215.308594 42.519531 216 42.183594 216.15625 C 41.351562 216.554688 39.566406 216.238281 38.621094 216.097656 C 38.835938 214.773438 39.625 213.65625 40.285156 212.535156 C 42.230469 209.214844 44.101562 205.820312 46.042969 202.4375 C 49.171875 196.988281 52.46875 191.164062 55.664062 185.507812 C 59.46875 178.769531 63.292969 172.148438 67.121094 165.253906 C 67.765625 164.089844 68.320312 162.242188 69.554688 162.101562 C 70.585938 161.988281 71.675781 162.175781 72.703125 162.164062 C 77.71875 162.101562 83.503906 162.3125 88.675781 162.339844 C 92.925781 162.367188 97.691406 162.171875 100.785156 163.46875 C 105.523438 165.457031 108.210938 168.917969 110.761719 173.269531 C 112.351562 175.984375 114.1875 178.917969 114.5625 182.714844 C 115.152344 188.722656 111.042969 192.953125 106.070312 193.882812 C 104.285156 194.214844 102.027344 194.179688 99.777344 194.179688 C 96.84375 194.179688 93.324219 194.300781 89.980469 194.300781 C 89.074219 194.300781 87.625 194.066406 86.835938 194.300781 C 86.109375 194.515625 85.410156 196.109375 84.996094 196.851562 C 83.367188 199.753906 81.832031 202.347656 80.1875 205.167969 C 78.027344 208.851562 76 212.664062 73.597656 216.101562 Z M 73.597656 216.101562 " fill-opacity="1" fill-rule="evenodd"/></g><g clip-path="url(#8be651d030)"><path fill="#000000" d="M 61.542969 216.039062 C 61.589844 215.207031 62.132812 214.496094 62.554688 213.84375 C 65.546875 209.199219 68.039062 204.035156 70.984375 199.289062 C 72.664062 196.582031 74.308594 193.828125 75.914062 191.09375 C 76.726562 189.703125 77.542969 188.304688 78.285156 186.875 C 79.011719 185.488281 79.820312 184.082031 80.78125 182.835938 C 85.714844 182.753906 91.214844 182.953125 96.515625 182.953125 C 100.105469 182.953125 103.667969 183.050781 103.640625 179.507812 C 103.625 177.332031 101.875 175.238281 100.375 174.398438 C 98.9375 173.597656 96.742188 173.660156 94.496094 173.628906 C 89.171875 173.546875 84.085938 173.566406 78.285156 173.566406 C 77.246094 173.566406 75.738281 173.390625 75.082031 173.628906 C 74.558594 173.816406 74.167969 174.816406 73.773438 175.527344 C 68.125 185.707031 62.300781 195.597656 56.617188 205.703125 C 54.992188 208.28125 53.578125 211.066406 51.984375 213.722656 C 51.472656 214.582031 51.003906 215.5 50.265625 216.15625 C 49.097656 216.191406 47.261719 216.394531 46.285156 216.039062 C 46.574219 214.917969 47.234375 213.902344 47.832031 212.949219 C 49.59375 210.117188 51.304688 207.167969 52.996094 204.21875 C 54.101562 202.292969 55.3125 200.378906 56.441406 198.394531 C 57.535156 196.46875 58.566406 194.429688 59.703125 192.457031 C 63.015625 186.699219 66.507812 180.847656 69.859375 174.875 C 70.375 173.949219 70.9375 172.992188 71.519531 171.902344 C 71.964844 171.074219 72.71875 169.394531 73.359375 169.171875 C 74.117188 168.910156 75.957031 169.085938 76.6875 169.054688 C 78.601562 168.960938 80.515625 169.113281 82.445312 169.113281 C 84.316406 169.113281 86.261719 169.152344 88.144531 169.230469 C 91.761719 169.382812 96.375 168.761719 99.367188 169.644531 C 101.929688 170.402344 103.386719 171.964844 104.828125 174.160156 C 106.113281 176.121094 107.65625 178.382812 107.796875 181.109375 C 107.945312 183.941406 106.011719 186.300781 103.699219 187.050781 C 102.335938 187.492188 100.539062 187.464844 98.769531 187.464844 C 94.503906 187.464844 90.011719 187.398438 85.707031 187.40625 C 84.828125 187.40625 83.90625 187.210938 83.214844 187.40625 C 82.253906 187.671875 81.359375 189.90625 80.839844 190.789062 C 78.6875 194.460938 76.507812 198.089844 74.488281 201.722656 C 72.445312 205.382812 70.207031 208.953125 68.074219 212.589844 C 67.363281 213.804688 66.839844 215.160156 65.816406 216.09375 C 64.542969 216.167969 62.722656 216.265625 61.542969 216.039062 Z M 61.542969 216.039062 " fill-opacity="1" fill-rule="evenodd"/></g><g clip-path="url(#3c14daed07)"><path fill="#000000" d="M 54.121094 216.039062 C 54.808594 214.195312 55.957031 212.558594 56.855469 210.8125 C 57.730469 209.109375 58.800781 207.464844 59.761719 205.824219 C 61.71875 202.484375 63.597656 199.121094 65.523438 195.785156 C 67.453125 192.445312 69.433594 189.128906 71.28125 185.746094 C 73.128906 182.367188 74.863281 178.90625 77.042969 175.707031 C 82.507812 175.601562 88.289062 175.707031 93.726562 175.707031 C 95.601562 175.710938 97.5625 175.578125 98.949219 176.066406 C 99.960938 176.421875 101.265625 177.511719 101.207031 178.796875 C 101.109375 180.953125 97.769531 180.460938 96.101562 180.460938 C 90.066406 180.460938 84.796875 180.5 78.765625 180.582031 C 77.601562 181.8125 76.921875 183.445312 76.03125 184.917969 C 73.386719 189.289062 70.851562 193.722656 68.253906 198.222656 C 65.332031 203.289062 62.28125 208.679688 59.410156 214.023438 C 59.039062 214.710938 58.371094 215.921875 57.984375 216.101562 C 57.542969 216.308594 56.75 216.210938 56.082031 216.222656 C 55.359375 216.230469 54.601562 216.324219 54.121094 216.039062 Z M 54.121094 216.039062 " fill-opacity="1" fill-rule="evenodd"/></g><g fill="#000000" fill-opacity="1"><g transform="translate(121.689006, 203.044206)"><g><path d="M 11.78125 -28.578125 L 11.78125 -21.390625 L 23.359375 -21.390625 L 23.359375 -14.71875 L 11.78125 -14.71875 L 11.78125 -6.921875 L 24.890625 -6.921875 L 24.890625 0 L 3.140625 0 L 3.140625 -35.5 L 24.890625 -35.5 L 24.890625 -28.578125 Z M 11.78125 -28.578125 "/></g></g></g><g fill="#000000" fill-opacity="1"><g transform="translate(147.477622, 203.044206)"><g><path d="M 1.421875 -14.15625 C 1.421875 -17.0625 1.96875 -19.609375 3.0625 -21.796875 C 4.15625 -23.992188 5.644531 -25.679688 7.53125 -26.859375 C 9.425781 -28.035156 11.535156 -28.625 13.859375 -28.625 C 15.710938 -28.625 17.40625 -28.234375 18.9375 -27.453125 C 20.476562 -26.679688 21.6875 -25.640625 22.5625 -24.328125 L 22.5625 -37.421875 L 31.203125 -37.421875 L 31.203125 0 L 22.5625 0 L 22.5625 -4.046875 C 21.75 -2.691406 20.59375 -1.609375 19.09375 -0.796875 C 17.59375 0.00390625 15.847656 0.40625 13.859375 0.40625 C 11.535156 0.40625 9.425781 -0.191406 7.53125 -1.390625 C 5.644531 -2.585938 4.15625 -4.289062 3.0625 -6.5 C 1.96875 -8.707031 1.421875 -11.257812 1.421875 -14.15625 Z M 22.5625 -14.109375 C 22.5625 -16.265625 21.960938 -17.96875 20.765625 -19.21875 C 19.566406 -20.46875 18.109375 -21.09375 16.390625 -21.09375 C 14.671875 -21.09375 13.210938 -20.476562 12.015625 -19.25 C 10.816406 -18.019531 10.21875 -16.320312 10.21875 -14.15625 C 10.21875 -12 10.816406 -10.285156 12.015625 -9.015625 C 13.210938 -7.753906 14.671875 -7.125 16.390625 -7.125 C 18.109375 -7.125 19.566406 -7.75 20.765625 -9 C 21.960938 -10.25 22.5625 -11.953125 22.5625 -14.109375 Z M 22.5625 -14.109375 "/></g></g></g><g fill="#000000" fill-opacity="1"><g transform="translate(180.244409, 203.044206)"><g><path d="M 31 -28.21875 L 31 0 L 22.359375 0 L 22.359375 -3.84375 C 21.484375 -2.59375 20.289062 -1.585938 18.78125 -0.828125 C 17.28125 -0.078125 15.625 0.296875 13.8125 0.296875 C 11.65625 0.296875 9.75 -0.179688 8.09375 -1.140625 C 6.4375 -2.097656 5.15625 -3.488281 4.25 -5.3125 C 3.34375 -7.132812 2.890625 -9.273438 2.890625 -11.734375 L 2.890625 -28.21875 L 11.484375 -28.21875 L 11.484375 -12.890625 C 11.484375 -11.003906 11.972656 -9.535156 12.953125 -8.484375 C 13.929688 -7.441406 15.242188 -6.921875 16.890625 -6.921875 C 18.578125 -6.921875 19.910156 -7.441406 20.890625 -8.484375 C 21.867188 -9.535156 22.359375 -11.003906 22.359375 -12.890625 L 22.359375 -28.21875 Z M 31 -28.21875 "/></g></g></g><g fill="#000000" fill-opacity="1"><g transform="translate(212.758359, 203.044206)"><g><path d="M 1.671875 -17.796875 C 1.671875 -21.304688 2.425781 -24.4375 3.9375 -27.1875 C 5.457031 -29.9375 7.570312 -32.078125 10.28125 -33.609375 C 13 -35.140625 16.078125 -35.90625 19.515625 -35.90625 C 23.734375 -35.90625 27.34375 -34.789062 30.34375 -32.5625 C 33.34375 -30.34375 35.347656 -27.3125 36.359375 -23.46875 L 26.859375 -23.46875 C 26.148438 -24.945312 25.144531 -26.070312 23.84375 -26.84375 C 22.550781 -27.625 21.078125 -28.015625 19.421875 -28.015625 C 16.753906 -28.015625 14.59375 -27.085938 12.9375 -25.234375 C 11.289062 -23.378906 10.46875 -20.898438 10.46875 -17.796875 C 10.46875 -14.703125 11.289062 -12.226562 12.9375 -10.375 C 14.59375 -8.519531 16.753906 -7.59375 19.421875 -7.59375 C 21.078125 -7.59375 22.550781 -7.976562 23.84375 -8.75 C 25.144531 -9.519531 26.148438 -10.648438 26.859375 -12.140625 L 36.359375 -12.140625 C 35.347656 -8.296875 33.34375 -5.269531 30.34375 -3.0625 C 27.34375 -0.851562 23.734375 0.25 19.515625 0.25 C 16.078125 0.25 13 -0.515625 10.28125 -2.046875 C 7.570312 -3.578125 5.457031 -5.707031 3.9375 -8.4375 C 2.425781 -11.175781 1.671875 -14.296875 1.671875 -17.796875 Z M 1.671875 -17.796875 "/></g></g></g><g fill="#000000" fill-opacity="1"><g transform="translate(249.722167, 203.044206)"><g><path d="M 15.984375 0.40625 C 13.210938 0.40625 10.722656 -0.179688 8.515625 -1.359375 C 6.304688 -2.546875 4.570312 -4.234375 3.3125 -6.421875 C 2.050781 -8.617188 1.421875 -11.179688 1.421875 -14.109375 C 1.421875 -17.015625 2.0625 -19.570312 3.34375 -21.78125 C 4.625 -23.988281 6.375 -25.679688 8.59375 -26.859375 C 10.820312 -28.035156 13.316406 -28.625 16.078125 -28.625 C 18.847656 -28.625 21.34375 -28.035156 23.5625 -26.859375 C 25.789062 -25.679688 27.546875 -23.988281 28.828125 -21.78125 C 30.109375 -19.570312 30.75 -17.015625 30.75 -14.109375 C 30.75 -11.210938 30.097656 -8.660156 28.796875 -6.453125 C 27.503906 -4.242188 25.734375 -2.546875 23.484375 -1.359375 C 21.242188 -0.179688 18.742188 0.40625 15.984375 0.40625 Z M 15.984375 -7.078125 C 17.640625 -7.078125 19.046875 -7.679688 20.203125 -8.890625 C 21.367188 -10.109375 21.953125 -11.847656 21.953125 -14.109375 C 21.953125 -16.367188 21.382812 -18.101562 20.25 -19.3125 C 19.125 -20.53125 17.734375 -21.140625 16.078125 -21.140625 C 14.398438 -21.140625 13.003906 -20.539062 11.890625 -19.34375 C 10.773438 -18.144531 10.21875 -16.398438 10.21875 -14.109375 C 10.21875 -11.847656 10.765625 -10.109375 11.859375 -8.890625 C 12.953125 -7.679688 14.328125 -7.078125 15.984375 -7.078125 Z M 15.984375 -7.078125 "/></g></g></g><g fill="#000000" fill-opacity="1"><g transform="translate(280.365162, 203.044206)"><g><path d="M 1.421875 -14.15625 C 1.421875 -17.0625 1.96875 -19.609375 3.0625 -21.796875 C 4.15625 -23.992188 5.644531 -25.679688 7.53125 -26.859375 C 9.425781 -28.035156 11.535156 -28.625 13.859375 -28.625 C 15.710938 -28.625 17.40625 -28.234375 18.9375 -27.453125 C 20.476562 -26.679688 21.6875 -25.640625 22.5625 -24.328125 L 22.5625 -37.421875 L 31.203125 -37.421875 L 31.203125 0 L 22.5625 0 L 22.5625 -4.046875 C 21.75 -2.691406 20.59375 -1.609375 19.09375 -0.796875 C 17.59375 0.00390625 15.847656 0.40625 13.859375 0.40625 C 11.535156 0.40625 9.425781 -0.191406 7.53125 -1.390625 C 5.644531 -2.585938 4.15625 -4.289062 3.0625 -6.5 C 1.96875 -8.707031 1.421875 -11.257812 1.421875 -14.15625 Z M 22.5625 -14.109375 C 22.5625 -16.265625 21.960938 -17.96875 20.765625 -19.21875 C 19.566406 -20.46875 18.109375 -21.09375 16.390625 -21.09375 C 14.671875 -21.09375 13.210938 -20.476562 12.015625 -19.25 C 10.816406 -18.019531 10.21875 -16.320312 10.21875 -14.15625 C 10.21875 -12 10.816406 -10.285156 12.015625 -9.015625 C 13.210938 -7.753906 14.671875 -7.125 16.390625 -7.125 C 18.109375 -7.125 19.566406 -7.75 20.765625 -9 C 21.960938 -10.25 22.5625 -11.953125 22.5625 -14.109375 Z M 22.5625 -14.109375 "/></g></g></g><g fill="#000000" fill-opacity="1"><g transform="translate(313.131952, 203.044206)"><g><path d="M 29.734375 -14.5625 C 29.734375 -13.757812 29.6875 -12.914062 29.59375 -12.03125 L 10.015625 -12.03125 C 10.148438 -10.28125 10.710938 -8.941406 11.703125 -8.015625 C 12.703125 -7.085938 13.925781 -6.625 15.375 -6.625 C 17.53125 -6.625 19.03125 -7.535156 19.875 -9.359375 L 29.078125 -9.359375 C 28.609375 -7.503906 27.757812 -5.832031 26.53125 -4.34375 C 25.300781 -2.863281 23.757812 -1.703125 21.90625 -0.859375 C 20.050781 -0.015625 17.972656 0.40625 15.671875 0.40625 C 12.910156 0.40625 10.453125 -0.179688 8.296875 -1.359375 C 6.140625 -2.546875 4.453125 -4.234375 3.234375 -6.421875 C 2.023438 -8.617188 1.421875 -11.179688 1.421875 -14.109375 C 1.421875 -17.046875 2.015625 -19.609375 3.203125 -21.796875 C 4.398438 -23.992188 6.078125 -25.679688 8.234375 -26.859375 C 10.398438 -28.035156 12.878906 -28.625 15.671875 -28.625 C 18.410156 -28.625 20.84375 -28.050781 22.96875 -26.90625 C 25.09375 -25.757812 26.75 -24.125 27.9375 -22 C 29.132812 -19.875 29.734375 -17.394531 29.734375 -14.5625 Z M 20.890625 -16.84375 C 20.890625 -18.320312 20.382812 -19.5 19.375 -20.375 C 18.363281 -21.257812 17.097656 -21.703125 15.578125 -21.703125 C 14.128906 -21.703125 12.90625 -21.28125 11.90625 -20.4375 C 10.914062 -19.59375 10.300781 -18.394531 10.0625 -16.84375 Z M 20.890625 -16.84375 "/></g></g></g></svg>