<svg xmlns="http://www.w3.org/2000/svg" xmlns:xlink="http://www.w3.org/1999/xlink" width="500" zoomAndPan="magnify" viewBox="0 0 375 374.999991" height="500" preserveAspectRatio="xMidYMid meet" version="1.0"><defs><clipPath id="becd410976"><path d="M 142.199219 157.1875 L 232.949219 157.1875 L 232.949219 217.9375 L 142.199219 217.9375 Z M 142.199219 157.1875 " clip-rule="nonzero"/></clipPath><clipPath id="0ffefe8c15"><path d="M 149 163 L 226 163 L 226 217.9375 L 149 217.9375 Z M 149 163 " clip-rule="nonzero"/></clipPath><clipPath id="a07a4f8b7f"><path d="M 157 170 L 219 170 L 219 217.9375 L 157 217.9375 Z M 157 170 " clip-rule="nonzero"/></clipPath><clipPath id="01e4c30483"><path d="M 165 177 L 213 177 L 213 217.9375 L 165 217.9375 Z M 165 177 " clip-rule="nonzero"/></clipPath></defs><g clip-path="url(#becd410976)"><path fill="#000000" d="M 188.867188 217.566406 C 188.757812 217.054688 189.1875 216.652344 189.398438 216.261719 C 190.957031 213.363281 192.808594 210.59375 194.449219 207.707031 C 195.382812 206.0625 196.355469 204.410156 197.296875 202.773438 C 197.769531 201.960938 198.289062 201.148438 198.664062 200.28125 C 199.027344 199.4375 199.425781 198.527344 200.207031 197.964844 C 205.066406 197.679688 209.722656 197.972656 214.21875 197.902344 C 217.953125 197.847656 220.402344 197.109375 222.589844 195.589844 C 225.933594 193.261719 228.617188 189.136719 227.695312 183.292969 C 227.089844 179.429688 225.164062 176.242188 223.421875 173.3125 C 222.515625 171.789062 221.707031 170.289062 220.632812 168.917969 C 219.628906 167.640625 218.410156 166.472656 217.007812 165.414062 C 214.375 163.421875 210.9375 161.695312 206.558594 161.609375 C 198.421875 161.449219 190.019531 161.609375 181.5625 161.609375 C 180.507812 161.609375 178.90625 161.375 178.058594 161.671875 C 177.609375 161.828125 177.203125 162.71875 176.871094 163.273438 C 174.4375 167.335938 172.457031 171.65625 170.042969 175.628906 C 164.1875 186.210938 158.328125 196.78125 152.351562 207.289062 C 151.855469 208.160156 151.378906 209.050781 150.867188 209.902344 C 150.335938 210.789062 149.984375 211.738281 149.5 212.636719 C 149.027344 213.511719 148.453125 214.335938 147.957031 215.1875 C 147.457031 216.050781 147.113281 217.015625 146.414062 217.742188 C 145.339844 217.960938 143.695312 217.847656 142.613281 217.6875 C 142.613281 216.925781 143.160156 216.34375 143.503906 215.726562 C 145.894531 211.414062 148.433594 206.917969 150.804688 202.480469 C 153.511719 197.417969 156.441406 192.46875 159.238281 187.453125 C 162.050781 182.402344 164.65625 177.246094 167.550781 172.246094 C 169.707031 168.519531 171.851562 164.804688 173.964844 161.019531 C 174.652344 159.785156 175.132812 158.398438 176.101562 157.335938 C 180.648438 157.070312 185.214844 157.484375 189.757812 157.277344 C 194.007812 157.078125 198.9375 157.273438 203.53125 157.277344 C 205.058594 157.277344 206.535156 157.132812 207.984375 157.277344 C 214.53125 157.925781 219.0625 161.675781 222.472656 165.648438 C 224.566406 168.09375 226.3125 170.992188 227.933594 173.90625 C 229.558594 176.816406 231.289062 179.675781 232.089844 183.46875 C 232.351562 184.710938 232.617188 186.164062 232.507812 187.628906 C 232.261719 190.878906 230.796875 193.558594 229.480469 195.945312 C 226.078125 202.09375 222.761719 208.078125 219.265625 214.121094 C 218.589844 215.292969 217.964844 216.519531 217.070312 217.566406 C 212.425781 217.835938 207.589844 217.535156 202.820312 217.746094 C 200.433594 217.851562 198.042969 217.613281 195.695312 217.6875 C 193.367188 217.757812 191.0625 217.804688 188.867188 217.566406 Z M 188.867188 217.566406 " fill-opacity="1" fill-rule="evenodd"/></g><g clip-path="url(#0ffefe8c15)"><path fill="#000000" d="M 184.710938 217.6875 C 183.605469 217.722656 181.882812 217.914062 180.96875 217.566406 C 181.035156 216.898438 181.4375 216.316406 181.742188 215.726562 C 182.613281 214.027344 183.679688 212.433594 184.652344 210.796875 C 187.890625 205.320312 191.210938 199.9375 194.328125 194.34375 C 194.9375 193.25 195.554688 192.117188 196.40625 191.191406 C 201.890625 190.996094 207.597656 191.445312 212.96875 191.191406 C 215.5625 191.070312 217.566406 190.339844 219.027344 188.878906 C 220.386719 187.519531 221.539062 185.570312 221.28125 182.820312 C 221.070312 180.535156 219.988281 178.441406 219.027344 176.699219 C 218.007812 174.859375 216.882812 173.230469 215.582031 171.769531 C 213.847656 170.335938 212.0625 168.972656 209.40625 168.5 C 206.683594 168.019531 203.457031 168.382812 200.207031 168.382812 C 194.046875 168.382812 187.648438 168.121094 181.917969 168.382812 C 181.003906 169.1875 180.632812 170.398438 180.015625 171.414062 C 178.191406 174.425781 176.480469 177.558594 174.671875 180.679688 C 173.496094 182.710938 172.238281 184.753906 171.109375 186.855469 C 169.976562 188.980469 168.964844 191.132812 167.667969 193.152344 C 166.410156 195.105469 165.277344 197.21875 164.046875 199.269531 C 160.6875 204.851562 157.710938 210.59375 154.308594 216.320312 C 153.964844 216.894531 153.632812 217.585938 153.296875 217.742188 C 152.464844 218.140625 150.679688 217.824219 149.734375 217.683594 C 149.949219 216.359375 150.738281 215.242188 151.398438 214.121094 C 153.34375 210.800781 155.214844 207.40625 157.15625 204.023438 C 160.285156 198.578125 163.582031 192.753906 166.777344 187.09375 C 170.582031 180.355469 174.40625 173.738281 178.234375 166.839844 C 178.878906 165.675781 179.433594 163.828125 180.667969 163.691406 C 181.699219 163.574219 182.789062 163.761719 183.816406 163.75 C 188.832031 163.6875 194.617188 163.898438 199.789062 163.929688 C 204.039062 163.953125 208.804688 163.757812 211.898438 165.054688 C 216.636719 167.042969 219.324219 170.503906 221.875 174.855469 C 223.464844 177.570312 225.300781 180.503906 225.675781 184.300781 C 226.265625 190.308594 222.15625 194.542969 217.183594 195.46875 C 215.398438 195.800781 213.140625 195.765625 210.890625 195.765625 C 207.957031 195.765625 204.4375 195.886719 201.09375 195.886719 C 200.1875 195.886719 198.738281 195.652344 197.949219 195.886719 C 197.222656 196.101562 196.523438 197.695312 196.109375 198.441406 C 194.480469 201.339844 192.945312 203.933594 191.300781 206.757812 C 189.140625 210.4375 187.113281 214.25 184.710938 217.6875 Z M 184.710938 217.6875 " fill-opacity="1" fill-rule="evenodd"/></g><g clip-path="url(#a07a4f8b7f)"><path fill="#000000" d="M 172.65625 217.628906 C 172.703125 216.792969 173.246094 216.082031 173.667969 215.429688 C 176.660156 210.789062 179.152344 205.625 182.097656 200.875 C 183.777344 198.171875 185.421875 195.414062 187.027344 192.679688 C 187.839844 191.289062 188.65625 189.894531 189.398438 188.460938 C 190.125 187.074219 190.933594 185.667969 191.894531 184.421875 C 196.828125 184.339844 202.328125 184.539062 207.628906 184.539062 C 211.21875 184.539062 214.78125 184.636719 214.753906 181.09375 C 214.738281 178.917969 212.988281 176.824219 211.488281 175.984375 C 210.050781 175.183594 207.855469 175.25 205.609375 175.214844 C 200.285156 175.132812 195.199219 175.152344 189.398438 175.152344 C 188.359375 175.152344 186.851562 174.976562 186.195312 175.214844 C 185.671875 175.402344 185.28125 176.40625 184.886719 177.113281 C 179.238281 187.292969 173.414062 197.183594 167.730469 207.289062 C 166.105469 209.867188 164.691406 212.652344 163.097656 215.308594 C 162.585938 216.167969 162.117188 217.089844 161.378906 217.742188 C 160.210938 217.777344 158.375 217.980469 157.398438 217.625 C 157.6875 216.503906 158.347656 215.488281 158.945312 214.535156 C 160.707031 211.703125 162.417969 208.753906 164.109375 205.804688 C 165.214844 203.878906 166.425781 201.96875 167.554688 199.984375 C 168.648438 198.054688 169.679688 196.019531 170.816406 194.042969 C 174.128906 188.285156 177.621094 182.433594 180.972656 176.460938 C 181.488281 175.539062 182.050781 174.578125 182.632812 173.492188 C 183.078125 172.660156 183.832031 170.984375 184.472656 170.757812 C 185.230469 170.496094 187.070312 170.671875 187.800781 170.640625 C 189.714844 170.546875 191.628906 170.699219 193.558594 170.699219 C 195.429688 170.699219 197.375 170.738281 199.257812 170.816406 C 202.875 170.972656 207.488281 170.351562 210.480469 171.234375 C 213.042969 171.992188 214.5 173.550781 215.941406 175.746094 C 217.226562 177.707031 218.769531 179.96875 218.910156 182.695312 C 219.058594 185.527344 217.125 187.886719 214.8125 188.636719 C 213.449219 189.078125 211.652344 189.050781 209.882812 189.050781 C 205.617188 189.050781 201.125 188.984375 196.820312 188.992188 C 195.941406 188.992188 195.019531 188.800781 194.328125 188.992188 C 193.367188 189.261719 192.472656 191.492188 191.953125 192.378906 C 189.800781 196.046875 187.621094 199.675781 185.601562 203.308594 C 183.558594 206.96875 181.320312 210.542969 179.1875 214.175781 C 178.476562 215.394531 177.953125 216.746094 176.929688 217.683594 C 175.65625 217.753906 173.835938 217.851562 172.65625 217.628906 Z M 172.65625 217.628906 " fill-opacity="1" fill-rule="evenodd"/></g><g clip-path="url(#01e4c30483)"><path fill="#000000" d="M 165.234375 217.628906 C 165.921875 215.78125 167.070312 214.144531 167.96875 212.402344 C 168.84375 210.695312 169.914062 209.054688 170.875 207.410156 C 172.832031 204.070312 174.710938 200.707031 176.636719 197.375 C 178.566406 194.03125 180.546875 190.71875 182.394531 187.335938 C 184.242188 183.953125 185.976562 180.492188 188.15625 177.296875 C 193.621094 177.1875 199.402344 177.296875 204.839844 177.296875 C 206.714844 177.296875 208.675781 177.164062 210.0625 177.652344 C 211.074219 178.007812 212.378906 179.097656 212.320312 180.382812 C 212.222656 182.539062 208.882812 182.046875 207.214844 182.046875 C 201.179688 182.050781 195.910156 182.085938 189.878906 182.167969 C 188.714844 183.402344 188.035156 185.03125 187.144531 186.503906 C 184.5 190.875 181.964844 195.308594 179.367188 199.808594 C 176.445312 204.875 173.394531 210.265625 170.523438 215.609375 C 170.152344 216.300781 169.484375 217.507812 169.097656 217.6875 C 168.65625 217.894531 167.863281 217.796875 167.195312 217.808594 C 166.472656 217.816406 165.714844 217.910156 165.234375 217.628906 Z M 165.234375 217.628906 " fill-opacity="1" fill-rule="evenodd"/></g></svg>