<svg xmlns="http://www.w3.org/2000/svg" xmlns:xlink="http://www.w3.org/1999/xlink" width="500" zoomAndPan="magnify" viewBox="0 0 375 374.999991" height="500" preserveAspectRatio="xMidYMid meet" version="1.0"><defs><clipPath id="15d849bf76"><path d="M 142.199219 157.1875 L 232.949219 157.1875 L 232.949219 217.9375 L 142.199219 217.9375 Z M 142.199219 157.1875 " clip-rule="nonzero"/></clipPath><clipPath id="7c713ee096"><path d="M 149 163 L 226 163 L 226 217.9375 L 149 217.9375 Z M 149 163 " clip-rule="nonzero"/></clipPath><clipPath id="632ec267ee"><path d="M 157 170 L 219 170 L 219 217.9375 L 157 217.9375 Z M 157 170 " clip-rule="nonzero"/></clipPath><clipPath id="8abc3f4722"><path d="M 165 177 L 213 177 L 213 217.9375 L 165 217.9375 Z M 165 177 " clip-rule="nonzero"/></clipPath></defs><g clip-path="url(#15d849bf76)"><path fill="#ffffff" d="M 188.789062 217.441406 C 188.679688 216.929688 189.109375 216.527344 189.320312 216.132812 C 190.875 213.246094 192.722656 210.480469 194.359375 207.601562 C 195.292969 205.957031 196.265625 204.308594 197.207031 202.679688 C 197.675781 201.863281 198.195312 201.054688 198.570312 200.1875 C 198.933594 199.347656 199.332031 198.4375 200.109375 197.878906 C 204.960938 197.59375 209.609375 197.886719 214.097656 197.816406 C 217.828125 197.761719 220.273438 197.027344 222.457031 195.507812 C 225.792969 193.183594 228.472656 189.070312 227.550781 183.238281 C 226.945312 179.382812 225.023438 176.203125 223.285156 173.277344 C 222.382812 171.757812 221.574219 170.261719 220.5 168.890625 C 219.5 167.617188 218.28125 166.449219 216.882812 165.394531 C 214.253906 163.410156 210.824219 161.6875 206.453125 161.601562 C 198.328125 161.441406 189.941406 161.601562 181.496094 161.601562 C 180.445312 161.601562 178.84375 161.367188 178 161.660156 C 177.550781 161.816406 177.144531 162.707031 176.8125 163.261719 C 174.382812 167.3125 172.40625 171.625 169.996094 175.589844 C 164.152344 186.148438 158.300781 196.699219 152.332031 207.183594 C 151.839844 208.054688 151.363281 208.941406 150.851562 209.789062 C 150.324219 210.675781 149.972656 211.621094 149.488281 212.515625 C 149.015625 213.390625 148.441406 214.214844 147.949219 215.066406 C 147.445312 215.925781 147.105469 216.886719 146.40625 217.617188 C 145.335938 217.832031 143.691406 217.71875 142.613281 217.558594 C 142.613281 216.796875 143.160156 216.21875 143.5 215.601562 C 145.890625 211.300781 148.421875 206.8125 150.792969 202.386719 C 153.496094 197.332031 156.417969 192.394531 159.210938 187.386719 C 162.019531 182.347656 164.621094 177.203125 167.507812 172.214844 C 169.660156 168.496094 171.804688 164.789062 173.910156 161.011719 C 174.597656 159.777344 175.078125 158.394531 176.042969 157.335938 C 180.582031 157.070312 185.140625 157.484375 189.675781 157.277344 C 193.921875 157.078125 198.839844 157.273438 203.429688 157.277344 C 204.953125 157.277344 206.429688 157.132812 207.875 157.277344 C 214.410156 157.925781 218.933594 161.667969 222.335938 165.632812 C 224.429688 168.070312 226.167969 170.964844 227.792969 173.871094 C 229.410156 176.773438 231.140625 179.628906 231.941406 183.414062 C 232.203125 184.652344 232.464844 186.101562 232.355469 187.5625 C 232.109375 190.808594 230.648438 193.480469 229.332031 195.863281 C 225.9375 202 222.628906 207.96875 219.136719 214 C 218.460938 215.167969 217.835938 216.394531 216.945312 217.441406 C 212.308594 217.707031 207.480469 217.410156 202.71875 217.617188 C 200.332031 217.722656 197.949219 217.484375 195.605469 217.558594 C 193.28125 217.628906 190.980469 217.675781 188.789062 217.441406 Z M 188.789062 217.441406 " fill-opacity="1" fill-rule="evenodd"/></g><g clip-path="url(#7c713ee096)"><path fill="#ffffff" d="M 184.636719 217.558594 C 183.535156 217.59375 181.816406 217.785156 180.902344 217.441406 C 180.96875 216.769531 181.371094 216.191406 181.675781 215.601562 C 182.546875 213.90625 183.609375 212.316406 184.578125 210.683594 C 187.8125 205.21875 191.128906 199.847656 194.238281 194.261719 C 194.847656 193.175781 195.464844 192.042969 196.316406 191.121094 C 201.789062 190.925781 207.484375 191.371094 212.851562 191.121094 C 215.441406 191 217.4375 190.269531 218.898438 188.808594 C 220.253906 187.453125 221.40625 185.511719 221.148438 182.765625 C 220.9375 180.484375 219.859375 178.398438 218.898438 176.660156 C 217.882812 174.820312 216.757812 173.199219 215.460938 171.738281 C 213.726562 170.308594 211.945312 168.945312 209.292969 168.476562 C 206.574219 167.996094 203.355469 168.359375 200.109375 168.359375 C 193.960938 168.359375 187.574219 168.097656 181.851562 168.359375 C 180.9375 169.160156 180.566406 170.371094 179.953125 171.382812 C 178.132812 174.390625 176.421875 177.515625 174.621094 180.628906 C 173.445312 182.65625 172.1875 184.695312 171.0625 186.792969 C 169.929688 188.910156 168.921875 191.058594 167.625 193.074219 C 166.371094 195.027344 165.242188 197.136719 164.007812 199.183594 C 160.65625 204.75 157.683594 210.480469 154.285156 216.191406 C 153.945312 216.769531 153.613281 217.457031 153.28125 217.617188 C 152.449219 218.011719 150.664062 217.695312 149.722656 217.554688 C 149.933594 216.234375 150.726562 215.121094 151.382812 214 C 153.324219 210.6875 155.191406 207.300781 157.132812 203.925781 C 160.257812 198.488281 163.542969 192.675781 166.734375 187.03125 C 170.535156 180.304688 174.351562 173.703125 178.175781 166.820312 C 178.816406 165.65625 179.371094 163.8125 180.605469 163.675781 C 181.632812 163.5625 182.71875 163.75 183.746094 163.734375 C 188.753906 163.671875 194.527344 163.886719 199.691406 163.914062 C 203.9375 163.9375 208.691406 163.742188 211.78125 165.039062 C 216.511719 167.023438 219.195312 170.476562 221.742188 174.820312 C 223.328125 177.527344 225.164062 180.453125 225.535156 184.242188 C 226.125 190.238281 222.019531 194.460938 217.058594 195.386719 C 215.277344 195.71875 213.019531 195.683594 210.777344 195.683594 C 207.847656 195.683594 204.332031 195.804688 200.996094 195.804688 C 200.089844 195.804688 198.640625 195.570312 197.855469 195.804688 C 197.128906 196.019531 196.433594 197.609375 196.019531 198.351562 C 194.394531 201.246094 192.863281 203.835938 191.214844 206.652344 C 189.0625 210.324219 187.039062 214.128906 184.636719 217.558594 Z M 184.636719 217.558594 " fill-opacity="1" fill-rule="evenodd"/></g><g clip-path="url(#632ec267ee)"><path fill="#ffffff" d="M 172.605469 217.5 C 172.652344 216.667969 173.191406 215.957031 173.613281 215.304688 C 176.601562 210.671875 179.089844 205.519531 182.03125 200.78125 C 183.707031 198.082031 185.351562 195.332031 186.949219 192.605469 C 187.765625 191.214844 188.578125 189.824219 189.320312 188.394531 C 190.042969 187.011719 190.851562 185.609375 191.808594 184.363281 C 196.738281 184.28125 202.226562 184.484375 207.519531 184.484375 C 211.101562 184.484375 214.65625 184.578125 214.628906 181.042969 C 214.613281 178.871094 212.871094 176.78125 211.371094 175.945312 C 209.933594 175.148438 207.746094 175.210938 205.503906 175.175781 C 200.1875 175.09375 195.109375 175.113281 189.320312 175.113281 C 188.28125 175.113281 186.777344 174.9375 186.121094 175.175781 C 185.597656 175.363281 185.210938 176.363281 184.816406 177.070312 C 179.175781 187.230469 173.359375 197.097656 167.6875 207.183594 C 166.066406 209.753906 164.652344 212.535156 163.0625 215.1875 C 162.550781 216.042969 162.085938 216.960938 161.34375 217.617188 C 160.179688 217.648438 158.347656 217.851562 157.375 217.496094 C 157.664062 216.378906 158.320312 215.367188 158.914062 214.414062 C 160.675781 211.589844 162.382812 208.644531 164.070312 205.703125 C 165.175781 203.777344 166.386719 201.871094 167.511719 199.890625 C 168.601562 197.96875 169.636719 195.9375 170.769531 193.964844 C 174.074219 188.222656 177.5625 182.382812 180.90625 176.421875 C 181.421875 175.5 181.984375 174.542969 182.566406 173.457031 C 183.011719 172.628906 183.761719 170.953125 184.402344 170.730469 C 185.15625 170.46875 186.992188 170.644531 187.722656 170.613281 C 189.632812 170.519531 191.546875 170.671875 193.472656 170.671875 C 195.339844 170.671875 197.28125 170.710938 199.164062 170.789062 C 202.773438 170.941406 207.378906 170.320312 210.363281 171.203125 C 212.925781 171.960938 214.378906 173.515625 215.816406 175.707031 C 217.101562 177.664062 218.640625 179.917969 218.78125 182.644531 C 218.929688 185.46875 216.996094 187.820312 214.691406 188.570312 C 213.328125 189.011719 211.539062 188.984375 209.769531 188.984375 C 205.507812 188.984375 201.023438 188.917969 196.730469 188.925781 C 195.851562 188.925781 194.929688 188.730469 194.238281 188.925781 C 193.28125 189.191406 192.386719 191.421875 191.871094 192.304688 C 189.722656 195.964844 187.546875 199.585938 185.527344 203.210938 C 183.488281 206.863281 181.253906 210.429688 179.125 214.054688 C 178.414062 215.269531 177.894531 216.621094 176.875 217.554688 C 175.597656 217.625 173.785156 217.722656 172.605469 217.5 Z M 172.605469 217.5 " fill-opacity="1" fill-rule="evenodd"/></g><g clip-path="url(#8abc3f4722)"><path fill="#ffffff" d="M 165.195312 217.5 C 165.882812 215.65625 167.027344 214.023438 167.921875 212.285156 C 168.796875 210.582031 169.867188 208.945312 170.828125 207.304688 C 172.78125 203.96875 174.65625 200.613281 176.578125 197.289062 C 178.507812 193.953125 180.484375 190.644531 182.328125 187.269531 C 184.171875 183.898438 185.902344 180.441406 188.078125 177.253906 C 193.535156 177.144531 199.304688 177.253906 204.734375 177.253906 C 206.605469 177.253906 208.5625 177.121094 209.949219 177.609375 C 210.957031 177.960938 212.261719 179.050781 212.203125 180.335938 C 212.105469 182.488281 208.769531 181.996094 207.105469 181.996094 C 201.082031 181.996094 195.816406 182.035156 189.796875 182.113281 C 188.636719 183.34375 187.960938 184.972656 187.070312 186.441406 C 184.429688 190.804688 181.898438 195.226562 179.304688 199.71875 C 176.386719 204.773438 173.339844 210.152344 170.472656 215.488281 C 170.105469 216.171875 169.441406 217.382812 169.050781 217.5625 C 168.613281 217.765625 167.820312 217.667969 167.15625 217.679688 C 166.433594 217.6875 165.675781 217.78125 165.195312 217.5 Z M 165.195312 217.5 " fill-opacity="1" fill-rule="evenodd"/></g></svg>