<svg transform="scale(1)" id="MdbBkfrJq9" xmlns="http://www.w3.org/2000/svg" viewBox="0 0 500 500" class="pbimage_pbimage__wrapper__image__0LEis false"><title>Translate</title><defs><style> .cls-1{fill:#fff;} .cls-2{fill:#f5d94a;} .cls-3{opacity:.11;} .cls-4{opacity:.15;} .cls-5{opacity:.55;} .cls-6{fill:#231f20;}
 .cls-6{fill:#231F20;}
 .cls-2{fill:#00669C;}
 .cls-1{fill:#FFFFFF;}</style></defs><g id="comment"><g><path class="cls-1" d="M317.67,60.13c32.52,.18,58.79,18.03,58.67,39.87-.07,11.75-7.76,22.26-19.92,29.44,1.57,5.34,3.14,10.69,4.71,16.04,.48,1.64,.72,3.89-.83,4.62-.58,.27-1.27,.22-1.9,.08-2.45-.54-4.48-2.2-6.4-3.81-4.02-3.35-8.03-6.7-12.05-10.05-6.99,1.92-14.66,2.96-22.7,2.92-32.52-.18-58.79-18.03-58.67-39.87,.12-21.84,26.58-39.4,59.11-39.22Z"></path><path class="cls-6" d="M318.87,61.49c15.36,.12,31.84,3.97,44.05,13.74,4.69,3.75,8.46,8.56,10.5,14.25,2.22,6.2,2.07,13.07-.35,19.19-3.34,8.44-10.3,14.88-17.96,19.44l-.02,.12c1.38,4.72,2.77,9.43,4.15,14.15,.46,1.57,1.43,3.77,.69,5.41-.94,2.08-3.8,.86-5.22,.04-1.97-1.13-3.67-2.79-5.41-4.24-1.88-1.57-3.77-3.14-5.65-4.71-.88-.73-1.76-1.47-2.64-2.2-.65-.54-1.52-1.62-2.38-1.7-.43-.04-1.05,.28-1.48,.39-.5,.13-1,.25-1.5,.36-1.16,.27-2.32,.51-3.49,.73-16,2.98-33.42,1.49-48.33-5.23-10.76-4.85-20.89-12.92-23.37-25.05-2.39-11.7,3.52-22.65,12.34-30.01,11.05-9.23,25.77-13.58,39.95-14.49,2.04-.13,4.08-.18,6.12-.18,.48,0-.51-1.16-.59-1.25-.34-.4-1.19-1.46-1.8-1.47-12.98-.04-26.25,2.6-37.7,8.89-9.04,4.96-17.41,12.62-20.4,22.79-2.81,9.54,0,19.25,5.99,26.94,7.17,9.22,17.52,15.51,28.52,19.14,13.67,4.52,28.68,5.22,42.78,2.43,1.88-.37,3.74-.81,5.59-1.32l-.88-.44c2.89,2.41,5.77,4.82,8.66,7.23,2.46,2.05,4.87,4.37,7.67,5.95,1.86,1.05,5.55,2.42,6.06-.74,.19-1.16-.12-2.31-.44-3.42-.55-1.89-1.11-3.77-1.66-5.66-.51-1.73-1.01-3.46-1.52-5.19-.23-.79-.46-1.57-.69-2.36-.13-.45-.34-.95-.42-1.41-.11-.71-.13-.79,.41-1.25,1.1-.94,2.54-1.62,3.71-2.48,1.27-.92,2.49-1.9,3.66-2.94,3.96-3.52,7.35-7.76,9.48-12.64,3.66-8.41,2.87-17.81-1.65-25.71s-12.3-14.6-20.54-19.03c-11.18-6.02-24.01-8.68-36.64-8.78-.48,0,.52,1.16,.59,1.25,.34,.4,1.18,1.46,1.8,1.47Z"></path></g></g><g id="translate"><g><path class="cls-6" d="M343.27,84.24c7.26,.74,13.25,6.1,16.68,12.28,3.37,6.07,5.89,15.93,.47,21.54-2.51,2.59-5.94,4.06-9.33,5.3-34.43,12.6-74.08,7.87-106.24-9.72-2.12-1.16-6.01-2.23-7.7-3.81-1.55-1.46-.9-2.39-1.11-4.5-.34-3.45-2.08-6.74-3.66-9.77-.89-1.71-8.13-12.52-2.09-11.25,4.81,1.01,91.02,.33,112.98-.07"></path><path class="cls-6" d="M342.34,84.85c6.6,.75,12.13,5.45,15.52,10.95,2.98,4.84,5.17,11.27,3.97,16.98-1.51,7.22-9.02,9.58-15.23,11.59-6.88,2.23-14,3.75-21.18,4.61-14.45,1.72-29.16,.82-43.35-2.36-7.08-1.58-14.03-3.73-20.77-6.4-3.41-1.35-6.76-2.84-10.04-4.47-2.86-1.41-5.61-2.95-8.57-4.17-1.36-.56-2.84-1.13-3.98-2.09-1.19-1-1.18-2.06-1.18-3.49,0-3.68-1.75-7.08-3.4-10.26s-3.89-5.96-4.64-9.38c-.07-.32-.14-.66-.13-1,0-.13,.24-.83,.23-.86,0,0-.97,.41-1.05,.32,.03,.04,.5,.06,.57,.07,.07,.01,.15,.03,.22,.04,.59,.09,1.19,.13,1.78,.16,2.05,.12,4.1,.16,6.16,.2,7.3,.14,14.59,.15,21.89,.16,9.61,.01,19.22-.02,28.83-.07s19.18-.12,28.77-.21c7.43-.07,14.86-.15,22.29-.26,1.2-.02,2.41-.04,3.61-.06,.5,0,1.66-.22,1.94-.7,.3-.52-.26-.52-.69-.51-6.87,.12-13.74,.19-20.6,.26-9.79,.1-19.58,.17-29.36,.23-10.14,.06-20.29,.1-30.43,.09-7.83,0-15.66-.01-23.48-.15-2.28-.04-4.55-.08-6.83-.2-.33-.02-.65-.04-.98-.06-.16-.01-.73-.08-.61-.06,.19,.03-.06-.01-.11-.02-.52-.08-1.03-.16-1.56-.13-.96,.06-2.17,.34-2.89,1.02-1.09,1.04-.41,2.88,.05,4.06,.74,1.9,1.76,3.69,2.79,5.45,1.24,2.11,2.41,4.27,3.35,6.54,.71,1.72,1.29,3.55,1.39,5.42,.07,1.29-.2,2.54,.64,3.65,1.78,2.33,5.34,2.95,7.84,4.2,3.34,1.67,6.6,3.45,10.02,4.98,6.8,3.05,13.85,5.57,21.05,7.5,14.42,3.86,29.48,5.4,44.38,4.32,7.5-.54,14.96-1.75,22.24-3.65,3.59-.93,7.13-2.03,10.61-3.3,3.4-1.24,6.85-2.67,9.59-5.1,4.79-4.27,4.65-11.05,2.89-16.75-1.86-6.02-5.64-11.68-10.96-15.16-2.63-1.72-5.58-2.78-8.7-3.13-.61-.07-1.57,.15-2.05,.55-.41,.35-.43,.6,.18,.67h0Z"></path></g><g><path class="cls-6" d="M168.97,250.88c3.18,7.19,12.45,7.94,18.04,3.34,5.59-4.6,8.25-12.59,10.16-20.28,9.92-39.99,7.4-85.4,7.84-126.51,.08-6.99,.58-14.82,5.17-19.37,3.08-3.05,7.29-4.39,11.38-4.59,41.36-2.05,82.01,.44,120.58,.01-10.75,9.08-14.39,25.41-15.6,40.68-3.19,40.26,7.37,87.32-8.56,123.64-1.41,3.22-3.03,6.38-5.29,8.87-3.02,3.34-7,5.3-11.07,6.58-8.22,2.59-16.92,2.6-25.49,2.6-26.1-.01-56.56-.41-82.34-.41-10.96,0-21.78-4.38-26.79-15.8"></path><path class="cls-1" d="M167.52,251.27c3.34,7.25,12.53,8.25,18.9,4.43,8.12-4.87,10.76-15.76,12.77-24.31,5.07-21.6,6.56-43.89,7.05-66.01,.25-11.12,.22-22.24,.19-33.37-.02-5.58-.04-11.17-.02-16.75,.02-5.11-.15-10.29,.44-15.38,.5-4.38,1.65-9.1,5.09-12.13,4.2-3.71,9.78-3.51,15.04-3.72,12.02-.47,24.05-.6,36.08-.54,23.38,.1,46.75,.9,70.13,.87,2.8,0,5.6-.02,8.4-.05l-.6-1.06c-7.36,6.29-11.28,15.52-13.46,24.76-2.4,10.17-2.93,20.73-3.05,31.14-.24,22.04,1.93,44.06,.85,66.1-.52,10.62-1.81,21.26-4.76,31.5-1.47,5.12-3.29,10.29-5.84,14.98-1.31,2.41-2.89,4.67-4.99,6.45s-4.58,3.04-7.16,3.98c-5.71,2.06-11.88,2.63-17.91,2.81-5.77,.17-11.55,.08-17.33,.06-11.8-.04-23.59-.13-35.39-.22s-23.35-.16-35.03-.18c-4.68,0-9.27-.21-13.73-1.8-4.23-1.5-8.04-4-10.94-7.45-1.56-1.85-2.8-3.92-3.78-6.12-.45-1-3.29-.1-2.9,.78,3.91,8.74,11.83,14.18,21.18,15.7,5.05,.83,10.23,.52,15.32,.54,5.91,.02,11.81,.05,17.72,.09,12.26,.08,24.53,.18,36.79,.25,5.83,.03,11.67,.06,17.5,.06s12.18,.06,18.22-.69c5.69-.71,11.53-2.09,16.5-5.02,4.94-2.91,7.95-7.41,10.27-12.54,4.39-9.7,6.8-20.17,8.09-30.7,2.72-22.34,.74-44.92,.29-67.33-.22-11.01-.19-22.11,1.24-33.05,1.29-9.92,3.76-20.31,9.83-28.48,1.4-1.89,3-3.61,4.8-5.14,.65-.56,.06-1.06-.6-1.06-23.08,.25-46.15-.49-69.23-.75-11.81-.13-23.63-.14-35.45,.15-5.78,.14-11.67,.1-17.43,.69-4.62,.47-9.29,2.35-12.37,5.92-2.88,3.34-3.91,7.87-4.35,12.15-.51,5.05-.36,10.18-.38,15.25-.03,10.94,.07,21.87,.03,32.81-.08,22.1-.64,44.31-4.03,66.19-.83,5.38-1.84,10.74-3.07,16.04-1.11,4.8-2.32,9.63-4.34,14.13-1.72,3.84-4.31,8.08-8.22,10.01-3.11,1.53-6.91,1.35-9.84-.5-1.61-1.02-2.83-2.54-3.63-4.26-.46-1-3.3-.09-2.9,.78h0Z"></path></g><g class="cls-5"><path class="cls-1" d="M168.97,250.88c3.18,7.19,12.45,7.94,18.04,3.34,5.59-4.6,8.25-12.59,10.16-20.28,9.92-39.99,7.4-85.4,7.84-126.51,.08-6.99,.58-14.82,5.17-19.37,3.08-3.05,7.29-4.39,11.38-4.59,41.36-2.05,82.01,.44,120.58,.01-10.75,9.08-14.39,25.41-15.6,40.68-3.19,40.26,7.37,87.32-8.56,123.64-1.41,3.22-3.03,6.38-5.29,8.87-3.02,3.34-7,5.3-11.07,6.58-8.22,2.59-16.92,2.6-25.49,2.6-26.1-.01-56.56-.41-82.34-.41-10.96,0-21.78-4.38-26.79-15.8"></path><path class="cls-1" d="M167.52,251.27c3.38,7.34,12.61,8.69,19.09,4.61,3.75-2.36,6.34-6.32,8.16-10.28,2.06-4.49,3.3-9.33,4.43-14.13,5.09-21.68,6.57-44.04,7.05-66.24,.24-11.2,.21-22.41,.18-33.61-.02-5.57-.03-11.15-.01-16.72,.02-4.96-.13-9.99,.44-14.93,.52-4.52,1.76-9.33,5.48-12.28,4.25-3.36,9.68-3.18,14.81-3.38,12.02-.48,24.05-.6,36.08-.55,23.46,.1,46.91,.9,70.37,.87,2.8,0,5.6-.02,8.4-.05-.28-.59-.56-1.18-.84-1.77-7.4,6.33-11.34,15.46-13.59,24.75-2.45,10.15-3,20.7-3.13,31.11-.28,22.18,1.93,44.34,.85,66.52-.52,10.56-1.78,21.17-4.72,31.35-1.47,5.09-3.3,10.18-5.8,14.86-1.33,2.49-2.97,4.82-5.17,6.61-2.06,1.67-4.44,2.9-6.93,3.8-5.61,2.02-11.6,2.65-17.52,2.87s-11.74,.11-17.6,.09c-11.86-.04-23.73-.13-35.59-.21-11.69-.08-23.38-.16-35.07-.18-4.68,0-9.25-.18-13.72-1.72-4.22-1.45-8.07-3.91-10.96-7.34-1.53-1.83-2.79-3.87-3.76-6.04-.58-1.3-3.46-.47-2.9,.78,1.95,4.36,4.86,8.17,8.78,10.95,3.69,2.62,8.02,4.21,12.45,4.98,5.02,.87,10.2,.56,15.27,.57,5.9,.02,11.8,.05,17.7,.09,12.19,.08,24.38,.18,36.57,.25,5.85,.03,11.69,.06,17.54,.06,6.17,0,12.37,.09,18.51-.67,5.7-.71,11.56-2.06,16.52-5.07s7.82-7.37,10.11-12.42c4.43-9.78,6.87-20.37,8.17-30.99,2.73-22.41,.71-45.07,.28-67.55-.21-10.81-.16-21.7,1.2-32.44,1.25-9.91,3.67-20.37,9.72-28.54,1.39-1.87,2.96-3.59,4.73-5.11,.98-.84,.28-1.78-.84-1.77-23,.25-45.99-.49-68.98-.74-11.9-.13-23.8-.14-35.69,.15-2.98,.07-5.96,.16-8.94,.28-2.82,.11-5.7,.1-8.51,.43-4.57,.55-9.18,2.48-12.12,6.15-2.76,3.45-3.76,7.97-4.18,12.28-.48,4.99-.34,10.05-.36,15.05-.03,11.01,.07,22.02,.03,33.04-.08,22.1-.66,44.31-4.06,66.18-.83,5.31-1.82,10.59-3.03,15.82-1.12,4.83-2.34,9.69-4.42,14.21-1.74,3.79-4.29,7.86-8.19,9.72-3.06,1.46-6.89,1.46-9.8-.37-1.58-.99-2.81-2.42-3.59-4.11-.6-1.29-3.47-.46-2.9,.78h0Z"></path></g><path class="cls-1" d="M287.62,208.74l-9.14-25.96h-35.75l-9.14,25.96h-16.18l34.79-93.87h17.01l34.72,93.87h-16.31Zm-13.11-39.07l-8.89-25.64c-.34-1.11-.83-2.66-1.47-4.67-.64-2-1.28-4.07-1.92-6.2-.64-2.13-1.17-3.92-1.6-5.37-.43,1.75-.95,3.7-1.57,5.85-.62,2.15-1.22,4.18-1.79,6.07-.58,1.9-1.01,3.34-1.31,4.32l-8.95,25.64h27.5Z"></path><g><path class="cls-2" d="M213.24,105.21c5.79,1.36,7.68,5.03,9.97,10.03,2.29,4.99,2.78,10.49,3.13,15.89,2.33,36.44-.9,73.39,7.14,109.15,1.28,5.68,2.89,11.41,6.32,16.3,3.43,4.89,8.98,8.87,15.36,9.41-15.65-.41-145.76,.74-157.85-3.5-1.26-.44-2.53-.99-3.38-1.94-.89-.99-1.21-2.29-1.42-3.55-.81-4.8,.06-13.62,.35-18.47,2.42-40.8,.74-81.8-5.02-122.33-.2-1.43-.41-2.91,.09-4.28,1.21-3.36,5.81-4.38,9.68-4.87,36.74-4.59,74.02-3.52,115.64-1.84"></path><path class="cls-1" d="M212.4,106.15c2.15,.53,4.11,1.46,5.61,3.11,1.35,1.48,2.3,3.28,3.16,5.09,2.52,5.32,3.31,10.89,3.69,16.71,.83,12.6,.96,25.24,1.13,37.86,.34,24.78,.63,50.04,6.63,74.24,1.45,5.86,3.58,11.81,7.69,16.36,3.73,4.12,8.76,6.95,14.33,7.48l1.03-2.02c-5.83-.15-11.68-.1-17.51-.11-10.19-.02-20.37-.02-30.56-.04-12.2-.03-24.4-.08-36.6-.2-11.89-.11-23.77-.27-35.66-.57-9.02-.23-18.06-.49-27.06-1.16-2.71-.2-5.43-.42-8.11-.87-.22-.04-.43-.08-.65-.12-.05,0-.41-.08-.17-.03s-.16-.04-.21-.05c-.32-.08-.63-.16-.94-.26-.98-.32-2.01-.74-2.77-1.47-.86-.82-1.19-1.97-1.41-3.11-.35-1.84-.39-3.73-.39-5.59,.01-4.06,.36-8.1,.63-12.14,.35-5.36,.58-10.73,.77-16.09,.38-11.15,.46-22.32,.23-33.47-.45-22.17-2.11-44.31-4.95-66.3-.35-2.74-.77-5.48-1.12-8.22-.28-2.2,.06-4.19,2.06-5.4,1.59-.96,3.55-1.33,5.36-1.59,2.39-.34,4.79-.59,7.19-.85,9.91-1.07,19.86-1.74,29.82-2.12,20.98-.81,41.99-.34,62.97,.4,5.38,.19,10.76,.4,16.14,.62,.66,.03,1.6-.19,1.89-.87,.27-.62-.24-1.13-.87-1.15-21.66-.87-43.34-1.66-65.02-1.39-10.28,.13-20.55,.5-30.8,1.25-5.14,.37-10.27,.84-15.38,1.41-4.1,.46-8.74,.6-12.45,2.62-1.58,.86-2.99,2.09-3.61,3.82-.84,2.38-.04,5.2,.29,7.61,.76,5.54,1.44,11.08,2.05,16.64,1.24,11.34,2.17,22.71,2.77,34.1,1.19,22.62,1.13,45.3-.2,67.91-.24,4.13-.62,8.24-.7,12.38-.06,3.41-.47,8.6,2.35,11.1,2.21,1.96,5.45,2.37,8.27,2.72,7.66,.94,15.43,1.16,23.13,1.42,11.43,.4,22.86,.6,34.29,.74,12.63,.16,25.26,.24,37.9,.29,11.26,.04,22.53,.06,33.79,.07,4.29,0,8.59,0,12.88,.02,3.16,0,5.74,.02,8.7,.05,.87,.01,1.75,.02,2.62,.04,.66,.02,1.59-.18,1.89-.87,.28-.64-.25-1.09-.87-1.15-5.07-.48-9.62-3.2-12.94-6.99-3.66-4.18-5.63-9.47-7-14.78-3.07-11.89-4.58-24.23-5.5-36.46-1.86-24.9-.86-49.9-2.37-74.82-.39-6.51-1.09-12.73-3.94-18.67-.97-2.03-2.04-4.08-3.66-5.68-1.72-1.7-3.84-2.74-6.18-3.32-.69-.17-1.56-.02-2.05,.55-.4,.47-.32,1.17,.36,1.33h0Z"></path></g><g><path class="cls-1" d="M22.95,303.82c3.05,5.42,11.91,5.98,17.25,2.52,5.35-3.47,7.89-9.49,9.71-15.28,9.49-30.14,7.07-137.17,7.5-168.16,.07-5.27,.56-11.17,4.94-14.6,2.94-2.3,6.98-3.31,10.88-3.46,39.56-1.55,93.62,.33,130.51,0-10.28,6.85-13.76,19.15-14.92,30.67-3.05,30.35,7.05,138.62-8.19,166-1.35,2.43-2.9,4.81-5.06,6.69-2.88,2.51-6.7,4-10.58,4.96-7.86,1.95-16.09,.13-24.28,.12-24.96-.01-67.1-.61-91.76-.61-10.48,0-23.11-1.16-27.91-9.77"></path><path class="cls-2" d="M21.5,304.21c3.03,5.17,10.08,5.77,15.32,4.26,6.79-1.94,10.89-7.78,13.3-14.09,2.85-7.46,3.99-15.48,4.93-23.37,1.21-10.16,1.87-20.38,2.38-30.6,.58-11.8,.9-23.61,1.11-35.43,.2-11.75,.28-23.49,.3-35.24,.02-10.08-.02-20.16-.03-30.24,0-3.86,0-7.72,0-11.58,.02-4.55-.28-9.36,1.03-13.76,1.07-3.58,3.4-6.27,6.93-7.59,3.56-1.33,7.49-1.15,11.23-1.27,7.43-.23,14.86-.34,22.29-.39,15.91-.11,31.81,.04,47.72,.23,15.14,.17,30.27,.4,45.41,.4,3.24,0,6.48-.01,9.71-.04l-.53-.79c-11.02,7.45-14.54,20.96-15.44,33.53-.57,8.02-.46,16.1-.36,24.13,.14,10.92,.43,21.84,.66,32.76,.25,12.04,.45,24.07,.39,36.11-.05,11.4-.3,22.82-1.15,34.2-.67,9.06-1.62,18.25-4,27.04-.85,3.13-1.89,6.25-3.46,9.11-2.01,3.68-4.54,6.88-8.33,8.82s-8.42,2.87-12.84,2.95c-4.7,.08-9.37-.54-14.06-.72-3.31-.12-6.62-.06-9.93-.07-6.97-.03-13.94-.08-20.91-.14-15.02-.12-30.05-.28-45.07-.38-6.36-.04-12.72-.05-19.08-.08-6.62-.03-13.78-.39-19.83-3.38-2.77-1.37-5.17-3.41-6.72-6.11-.46-.81-3.22,.22-2.9,.78,3.26,5.69,9.59,8.05,15.74,9.14,6.53,1.15,13.21,.91,19.81,.93,14.7,.05,29.41,.2,44.11,.34,7.55,.07,15.11,.13,22.66,.19,6.75,.05,13.53-.13,20.27,.12,4.66,.17,9.31,.75,13.98,.74,4.46-.01,8.83-.74,13.03-2.25,3.8-1.37,7.32-3.46,9.88-6.64,1.63-2.03,2.98-4.33,4.05-6.7,3.26-7.25,4.46-15.46,5.41-23.28,1.31-10.82,1.8-21.75,2.05-32.64,.28-12.16,.2-24.34,0-36.5-.18-11.69-.49-23.37-.72-35.06-.18-9.27-.37-18.56-.11-27.83,.31-10.7,1.44-22.2,7.57-31.3,2.01-2.99,4.54-5.54,7.52-7.56,.74-.5,0-.79-.53-.79-14.39,.12-28.78-.05-43.17-.22-15.88-.19-31.75-.4-47.63-.41-7.64,0-15.29,.04-22.93,.16-3.61,.06-7.23,.14-10.84,.25-3.63,.11-7.32,.05-10.88,.84-3.47,.76-7.09,2.28-9.44,5.06-2.12,2.52-2.96,5.77-3.29,8.99-.39,3.87-.27,7.82-.28,11.71-.02,8.8,.02,17.6,.03,26.41,.02,11.13,0,22.25-.1,33.38-.11,11.93-.31,23.87-.7,35.79-.36,11.11-.87,22.23-1.78,33.32-.7,8.55-1.55,17.16-3.3,25.57-1.96,9.4-6.55,24.43-18.75,22.7-2.79-.4-5.47-1.8-6.92-4.28-.48-.81-3.22,.23-2.9,.78h0Z"></path></g><g><path class="cls-2" d="M34.62,312c-10.76-1.21-19.99-11.63-20.42-22.98,36.98-2.39,89.73,1.84,127.44,.65,5.32-.17,10.66-.44,15.99,.12-5.2,7.34-2.96,19.32,4.6,24.5-4.73-.35-105.34,1.14-127.62-2.29"></path><path class="cls-1" d="M35.55,311.39c-11.02-1.34-19.41-12-19.9-22.76l-2.07,.99c17.97-1.15,36.02-.79,54.01-.36,18.89,.46,37.78,1.19,56.68,1.23,4.75,0,9.49-.03,14.24-.15,6.06-.15,12.14-.56,18.19,.06l-.5-.36c-5.31,7.69-2.91,19.44,4.67,24.75,.77-.37,1.53-.74,2.3-1.11-4.12-.29-8.33-.06-12.45-.04-8.83,.03-17.65,.06-26.48,.07-10.94,.01-21.89-.01-32.83-.11-10.54-.09-21.07-.24-31.6-.59-7.46-.25-14.97-.47-22.39-1.37-.57-.07-1.07-.14-1.62-.22-.67-.1-1.42,.05-2.03,.36-.21,.11-1.03,.68-.35,.79,6.85,1.05,13.84,1.26,20.75,1.53,10.27,.4,20.54,.57,30.82,.68,11.08,.12,22.16,.16,33.23,.16,9.29,0,18.57-.04,27.86-.07,4.9-.02,9.81-.15,14.71,.01,.17,0,.34,.01,.5,.02,.29,.02,2.94-.66,2.3-1.11-7.44-5.21-9.74-16.71-4.54-24.25,.19-.28-.38-.35-.5-.36-5.48-.56-10.99-.29-16.48-.11-4.28,.13-8.57,.19-12.85,.2-9.21,.03-18.41-.15-27.61-.37-19.16-.46-38.32-1.2-57.49-1.24-9.77-.02-19.56,.12-29.31,.75-.46,.03-2.1,.3-2.07,.99,.52,11.37,9.5,21.81,20.93,23.2,.61,.07,1.58-.15,2.05-.55,.41-.35,.42-.6-.18-.67h0Z"></path></g><g class="cls-5"><path class="cls-6" d="M76.66,147.86c-1.01,6.96-1.12,8-.91,15.03,20.54,.5,41.1,.29,61.63-.64-1.57,12.23-7.81,23.8-17.17,31.82-5-7.52-10.01-15.05-15.01-22.57-5.18,2.57-7.34,5.45-12.52,8.03,7.14,8.34,11.25,16.38,18.39,24.72-10.45,10.31-23.65,17.81-37.86,21.51,2.16,4.45,4.33,8.91,6.49,13.36,.38,.79,.82,1.63,1.59,2.03,.99,.51,2.19,.14,3.24-.25,14.36-5.41,27.53-13.92,38.35-24.8,6.94,12.08,23.19,24.69,36.81,27.65,2.86-4.24,5.72-8.47,8.57-12.71-12.13-1.71-27.23-13.41-32.6-24.41,12.58-9.95,20.14-29.3,21.29-43.54,6.17-.5,12.34-1,18.52-1.5,.07-5.37,.15-10.75,.22-16.12-14.79,.39-29.59,.21-44.36-.53,.88-4.03,.88-8.25,0-12.27-6.63,.72-11.59-.22-18.22,.5,.19,3.17-1.28,8-1.08,11.17-9.02-.15-26.56,1.79-35.58,1.63"></path><path class="cls-6" d="M75.21,148.07c-.37,2.53-.77,5.07-.92,7.63-.15,2.53-.07,5.06,0,7.58,0,.33,.67,.35,.86,.36,20.54,.5,41.1,.29,61.63-.64l-.86-.54c-1.6,12.11-7.62,23.45-16.88,31.44,.83-.12,1.66-.25,2.5-.37-5-7.52-10.01-15.05-15.01-22.57-.38-.57-1.84,0-2.23,.19-4.46,2.25-8.07,5.77-12.52,8.03-.3,.15-.77,.54-.47,.9,6.67,7.84,11.72,16.88,18.39,24.72l.21-.72c-10.25,10.06-22.98,17.39-36.89,21.05-.27,.07-1.52,.52-1.28,1.02,1.15,2.38,2.31,4.75,3.46,7.13,1.12,2.29,2.12,4.69,3.38,6.91,1.07,1.89,2.86,2.23,4.88,1.73,2.16-.53,4.27-1.53,6.3-2.41,8.22-3.55,16.01-8.09,23.14-13.51,4-3.04,7.76-6.36,11.31-9.91-.93,.13-1.86,.27-2.79,.4,4.01,6.91,9.81,12.73,16.16,17.52s13.45,8.74,21.19,10.47c.63,.14,1.86-.17,2.24-.74,2.86-4.24,5.72-8.47,8.57-12.71,.26-.39-.03-.65-.43-.71-6.79-1-13.15-4.55-18.54-8.66-5.41-4.13-10.47-9.27-13.52-15.42l-.3,.56c10.33-8.25,16.73-21.16,19.88-33.79,.83-3.33,1.42-6.71,1.71-10.13l-1.66,.92c6.17-.5,12.34-1,18.52-1.5,.55-.04,1.66-.41,1.67-1.1,.07-5.37,.15-10.75,.22-16.12,0-.32-.68-.36-.86-.36-14.79,.38-29.59,.2-44.36-.53l.86,.54c.86-4.12,.87-8.34,0-12.46-.09-.44-.94-.36-1.23-.33-6.06,.63-12.15-.13-18.22,.5-.51,.05-1.7,.41-1.67,1.1,.17,3.76-1.25,7.41-1.08,11.17,.68-.38,1.36-.75,2.03-1.13-11.88-.17-23.7,1.81-35.58,1.63-.55,0-1.63,.21-1.92,.76s.25,.72,.75,.73c11.88,.17,23.7-1.81,35.58-1.63,.6,0,2.07-.32,2.03-1.13-.17-3.76,1.25-7.41,1.08-11.17-.56,.37-1.11,.74-1.67,1.1,6.06-.63,12.15,.13,18.22-.5-.41-.11-.82-.22-1.23-.33,.84,4.01,.85,8.08,.01,12.09-.1,.48,.55,.52,.86,.54,14.78,.73,29.57,.91,44.36,.53l-.86-.36c-.07,5.37-.15,10.75-.22,16.12,.56-.37,1.11-.74,1.67-1.1-6.17,.5-12.34,1-18.52,1.5-.41,.03-1.62,.37-1.66,.92-1.05,12.51-5.82,25.3-13.42,35.31-2.21,2.91-4.71,5.57-7.57,7.85-.11,.09-.4,.37-.3,.56,3.16,6.38,8.37,11.72,14.02,15.96,5.6,4.21,12.13,7.75,19.13,8.78l-.43-.71c-2.86,4.24-5.72,8.47-8.57,12.71l2.24-.74c-7.53-1.68-14.53-5.71-20.62-10.35s-11.77-10.3-15.64-16.97c-.51-.89-2.27-.11-2.79,.4-5.63,5.63-11.89,10.64-18.64,14.87-3.34,2.09-6.79,4.01-10.34,5.72-1.79,.87-3.61,1.67-5.45,2.43-.91,.38-1.83,.74-2.75,1.09-.38,.14-.85,.4-1.26,.41-.78,0-1.27-.65-1.62-1.24-1.29-2.19-2.27-4.63-3.38-6.91-1.15-2.38-2.31-4.75-3.46-7.13l-1.28,1.02c14.57-3.83,28.08-11.41,38.84-21.97,.21-.2,.45-.44,.21-.72-6.67-7.84-11.72-16.88-18.39-24.72l-.47,.9c4.46-2.25,8.07-5.77,12.52-8.03l-2.23,.19c5,7.52,10.01,15.05,15.01,22.57,.42,.63,2.1-.02,2.5-.37,9.49-8.2,15.82-19.75,17.47-32.2,.06-.46-.51-.55-.86-.54-20.53,.92-41.08,1.14-61.63,.64l.86,.36c-.07-2.5-.16-5,0-7.5,.16-2.46,.55-4.91,.9-7.35,.15-1-2.76-.48-2.88,.41h0Z"></path></g></g><g id="character"><g class="cls-3"><path class="cls-6" d="M440.69,430.16c22.45-11.96-30.89-35.11-39.86-38.16-15.99-5.44-34.17-6.45-49.42,.82-4.11,1.96-8.49,6.66-5.88,10.39,.84,1.19,2.21,1.87,3.58,2.38,8.26,3.08,17.43,1.41,26.24,1.79,8.81,.38,18.88,4.21,21.14,12.74,.96,3.63,.3,7.54,1.28,11.17,4.66,17.24,33.23,4.04,42.92-1.12Z"></path><g><path class="cls-6" d="M439.3,428.14c.33-.13,.02-.44,.03-.54-.48,.36,.03,.62-.03,.54Z"></path><polygon class="cls-6" points="434.41 431.63 434.44 431.43 433.81 432.17 434.41 431.63"></polygon><path class="cls-6" d="M429.31,433.83c.76,.47,1.82-.87,2.82-1.04l.21,.08,.18-.7c-1.06,.57-2.35,1.53-3.22,1.66Z"></path><path class="cls-6" d="M426.02,433.45c.26,.2-.51,.44,.67-.15-.07,0-.1-.01-.14-.02-.11,.05-.26,.1-.53,.18Z"></path><path class="cls-6" d="M426.54,433.27c.53-.22-.43-.08,0,0h0Z"></path><path class="cls-6" d="M424.11,434.31l.63-.47c-.2-.1-.85,.07-.65-.12-.68,.37-.48,.48,.02,.59Z"></path><path class="cls-6" d="M423.59,435.03l.34-.23c-.09-.04-.19-.03-.34,.23Z"></path><path class="cls-6" d="M424.65,434.33l-.72,.48c.14,.07,.23,.29,.34-.2,0,.22,.09-.02,.38-.28Z"></path><path class="cls-6" d="M425.13,434.28c.45,0,1.01-.09,.37,.4,1.34-.59,.96-.98-.37-.4Z"></path><path class="cls-6" d="M429.32,434.62l.62-.02,.38-.41c-.19,.21-1.11,.24-.99,.43Z"></path><path class="cls-6" d="M419.54,435.3c0,.16,.34,.33,.45,.5l.49-.32c-.3-.02-.84,.03-.94-.19Z"></path><path class="cls-6" d="M419.99,435.8l-.74,.45c.73-.15,.82-.3,.74-.45Z"></path><polygon class="cls-6" points="423.71 435.83 424.85 434.86 423.45 435.92 423.71 435.83"></polygon><path class="cls-6" d="M416.52,435.97l.38-.44c-.23,.24-.46,.45-.69,.67l.32-.24Z"></path><path class="cls-6" d="M414.54,436.37c.28-.33-.52-.43-.2-.65-.52,.13-.94,.43-1.33,.69,.42-.16,.88-.18,1.53-.04Z"></path><path class="cls-6" d="M412.35,436.8c.21-.09,.43-.24,.66-.39-.22,.09-.44,.21-.66,.39Z"></path><path class="cls-6" d="M417.87,436.51c-.08-.08-.25-.28-.72-.29l.4,.35c.1-.02,.21-.04,.32-.06Z"></path><path class="cls-6" d="M417.57,436.58h-.01c-.35,.05-.58,.1-.69,.11,.09-.01,.3-.05,.7-.11Z"></path><path class="cls-6" d="M417.95,436.49s-.05,0-.08,.02c.04,.03,.06,.04,.08-.02Z"></path><path class="cls-6" d="M421.48,436.11c-.4,.36-1.34,.89-.27,.97,.26-.38-.34-.42,.27-.97Z"></path><path class="cls-6" d="M418.46,436.93l.88-.12c-.04-.1-.24-.23-.03-.4l-.85,.52Z"></path><polygon class="cls-6" points="418.07 437.15 418.46 436.93 418.14 436.96 418.07 437.15"></polygon><path class="cls-6" d="M413.82,437.06c-.34,.23-.74,.27-1.19,.35,.49,.03,1,.05,1.48-.02,.05-.14,.23-.41-.29-.32Z"></path><path class="cls-6" d="M415.64,436.91s-.05,.03-.08,.04c.06,.03,.1,.03,.08-.04Z"></path><polygon class="cls-6" points="408.28 437.36 408.34 437.44 408.36 437.37 408.28 437.36"></polygon><path class="cls-6" d="M414.2,437.45c.38,.03,.59-.1,.78-.26-.27,.08-.56,.15-.87,.2-.02,.06-.02,.1,.09,.07Z"></path><path class="cls-6" d="M411.15,437.05c.19,.08,.4,.15,.63,.21-.19-.13-.56-.32-.63-.21Z"></path><path class="cls-6" d="M415.42,436.85l.05-.03c-.13-.07-.11-.03-.05,.03Z"></path><path class="cls-6" d="M415.42,436.85c-.18,.1-.31,.22-.44,.33,.22-.06,.42-.14,.59-.24-.05-.02-.1-.06-.14-.09Z"></path><path class="cls-6" d="M406.48,439.85c.17-.4,1.21-.52,2.05-.05,.91-.22,.38-1.57-.2-2.35-.04,.16-.06,.35-.9,.44,.22,.3,1.78,.72,1.03,1.01-1.17,.09-.91-.27-1.41-.55,.18,.28-.2,.41-.63,.52-.42,.1-.91,.22-.89,.6,.37,0,.73,.03,1.09,0,0,.11-.42,.23-.15,.38Z"></path><path class="cls-6" d="M409.87,437.59l.34-.04c-.38-.08-.66-.22-1.12-.59-.55,.14-.68,.28-.73,.41,.54,.06,1.07,.15,1.63,.16l-.12,.06Z"></path><path class="cls-6" d="M411.74,437.52c-.24,.44-1.09,.66-.56,1.1,1.05-.08,.72-.38,1.32-.61-1.65,.19,.45-.25-.74-.45,.31-.08,.6-.12,.87-.17-.3-.02-.58-.07-.85-.14,.01,.01,.03,.02,.04,.03h0s0,0,0,0c.07,.05,.1,.08,.02,.05,0,0-.02,0-.03,0,0,.06-.04,.11-.06,.17-.47-.07-.08-.11,.06-.17,0-.02,.02-.04,.02-.06h0c-.53,.09-1.07,.21-1.6,.26,.34,.08,.76,.07,1.53-.03Z"></path><path class="cls-6" d="M420.55,438.22c-.06-.02-.07-.05-.08-.08-.1,.08-.13,.12,.08,.08Z"></path><path class="cls-6" d="M419.78,438.15c.11-.09,.17-.28,.58-.34,.38,.04,.05,.2,.11,.33,.22-.17,.76-.53-.04-.52l-.1,.09c-.72,.03-1.72-.27-1.61-.36,.29,.33,.52,.55,1.07,.81Z"></path><path class="cls-6" d="M415.64,438.16l-1.39,.41,.78,.27-.07-.22c.83-.02,.61-.28,.68-.46Z"></path><path class="cls-6" d="M408.16,437.13l.22-.44c-.27,.2-.52,.35-.8,.53l.58-.09Z"></path><polygon class="cls-6" points="406.57 436.88 406.72 436.51 406.26 436.64 406.57 436.88"></polygon><path class="cls-6" d="M364.42,386.25l.43-.19c-.21,.07-.33,.13-.43,.19Z"></path><path class="cls-6" d="M361.21,386.89l-.03,.21c.12-.14,.16-.23,.03-.21Z"></path><path class="cls-6" d="M378.31,405.14c-.62-.45-1.34-1.1-1.3-.64l.17,.45c.48-.03,.83,.06,1.13,.19Z"></path><path class="cls-6" d="M346.33,404.21c.02,.07,.04,.15,.06,.22,.22-.02,.42-.05,.59-.08-.2-.03-.42-.07-.65-.14Z"></path><path class="cls-6" d="M344.73,405.18c-.21-.34-.39-.69-.53-1.06,.07,.26,.22,.63,.53,1.06Z"></path><path class="cls-6" d="M382.15,385.11l.56-.39c-.82-.08-.48,.19-.56,.39Z"></path><path class="cls-6" d="M399.4,423.67c.13-.59,.16-1.07,.13-1.49-.16,.76-.51,1.33-.13,1.49Z"></path><path class="cls-6" d="M364.06,390.99c.24-.12,.33-.23,.3-.32-.25,.12-.38,.23-.3,.32Z"></path><path class="cls-6" d="M399.26,420.4c-.02,.12-.02,.23-.04,.35,.16,.44,.28,.89,.31,1.43,.13-.55,.14-1.22-.28-1.78Z"></path><path class="cls-6" d="M439.95,410.07s.06,.09,.08,.13c.05-.04,0-.08-.08-.13Z"></path><path class="cls-6" d="M443.3,425.77c.05-.13,.21-.29,.29-.47-.06,.07-.16,.2-.29,.47Z"></path><path class="cls-6" d="M401.82,433.67c.2,.23,.06,.02,0,0h0Z"></path><path class="cls-6" d="M401.61,435.99c-.09-.02-.18-.01-.25,.06,.1-.06,.18-.07,.25-.06Z"></path><path class="cls-6" d="M395.23,417.16s-.01-.02-.02-.03c-.01,.15-.01,.12,.02,.03Z"></path><path class="cls-6" d="M401.95,434.14c-.03-.12-.09-.24-.15-.37,0,.07,.06,.18,.15,.37Z"></path><path class="cls-6" d="M402.07,433.96c.05,.09,.1,.16,.14,.22,.08-.02,.09-.07-.14-.22Z"></path><path class="cls-6" d="M401.58,433.32c.1,.14,.17,.29,.22,.44,0-.07,0-.1,.02-.1-.05-.07-.12-.17-.24-.34Z"></path><path class="cls-6" d="M410.09,394.34s.04,.04,.06,.07c.45,0,.27-.04-.06-.07Z"></path><path class="cls-6" d="M367.5,409.42s.03-.02,.05-.02c-.02,0-.04,0-.06-.01v.04Z"></path><path class="cls-6" d="M366.05,409.78c.61-.56,.97-.5,1.44-.4l-.52-1.24-.93,1.63Z"></path><path class="cls-6" d="M372.16,385.24l-1.09-.31c1.25-.74,2.22-.56,1.17-1.05-.08,1.36-4.19,.43-4.19,1.86l-.73-.2c.2-.01,.22-.09,.42-.11-1.45-.46-.89,1.05-2.63,1.17-.62,0-1.07-.12-.69-.35l-1.28,.57c-.4,.04-.35-.2,.05-.25-.68,.16-1.34,.38-2.01,.56v-.04c-.24,.28-.81,.75-1.09,.96-.56-.07,.22-.2,.05-.33-.35,.18-.68,.41-1.02,.62-.54-.19,.27-.83,1.06-.96-1.4-1.05-.83,.58-3.29,.48l1-.48c-.91-.53-1.66-.04-3.01-.04,.18,.07,.88,.13,1.38,.29,.51,.17,.83,.42,.28,.76-.36,.02-.82,.14-1.37,.63-.17-.45-.76-.11-1.53,.2l-.18-.61c-.78,.5-.58,.8-.96,1.27-.94,.34-1.33-.03-1.73-.31-1.53,.56,1.35,.27-.34,1.15-1.45,.44-2.24,1.23-3.33,2.6-.91,.5-.12-.42-.51-.32-.12,.33-.24,.65-.34,.99-.17,.15-.22-.02-.25-.1-.4,.69,.38,.48-.28,1.47,.15,.34-.41,.61-1.06,1.11-.62,.5-1.35,1.3-1.21,2.25-.3,.34-.31-.31-.58-.27-.13,1.25-.03,1.82,.08,2.3,.05,.24,.11,.46,.26,.74,.14,.27,.29,.61,.63,1,.02,.57,.18,1.09,.36,1.65-.12-.67,.17-.69,.57-.53,.41,.17,1,.47,1.55,.61-.11-.39-.14-.72-.17-.91,.41,.3,.86,.51,1.34,.67,.09,.18-.14,.3-.51,.38,.12,.02,.23,.03,.33,.03,.36,.48-.05,.68-.63,.74-.11-.22-.21-.46-.28-.68-.56,.06-1.2,.02-1.39,.35,.15,.05,.38,.18,.61,.33-.17,0-.29,.01-.29,.1,0,.1,.27,.14,.63,.19-.02,.28-.03,.56-.02,.85l.25-.18c.67,.59,1.38,1.07,2.07,1.49,1.84-.12,3.41-.7,5.85-.57-.69,.42-.28,.82-.42,1.43-.55-.77-1.99-.1-3.26-.61,.65,.25,.43,.49,.23,.54,.83,.03,1.65,.01,2.46-.03-.15,.49,.42,.48,1,.78-.3-1.05,1.83-.39,2.8-.63,.03,.34-.23,.66-1.38,.45,1.21,.9,1.75-1,2.93-.28-.28-.01-.43-.07-.55,.09,.67-.23,2.24,.04,1.86,.33h-.28c1.86,.21,5.6,.03,5.84-.83,.02,.11-.22,1.03-.32,1.2l3.16-2.94c-.26,.74,.87,2.45-.62,2.9,.43,.09,.97,.2,1.86-.08-.29-.1-.75-1.04-.35-1.12,1.11,.79,.77,.41,2.12,1.09-.43-.15,.03-1.3,.73-1.27-.11,.17,.06,1.13-.19,1.25l1.71-1.12c-.43,.2-.08,.95,.28,1.27-.17-.22,1.45,.05,1.88-.02-.22-.11-.45-.2-.69-.29,1.84,.27,1.96-1.48,3.88-1.19-.27,.2-.74,1.33,.16,1.62,.48-.51,2.4-2.43,4.28-2.37l.24,.41c.47,0,.94,.01,1.42,.05-1.12,.49-3.79,1.71-5.04,2.2,.63,.38,.11,.42,1.12,.6,.28,.38-.64,.34-.93,.29,.75,.23,1.49,.45,2.21,.74,.09-.7,1.9-.13,1.99-.67-.89-.08-1.79-.08-2.66-.07,.03-.67,1.96-1.48,3.61-.76,.31,.41-.73,1-.76,1.24,.29-.16,1.64,.18,1.72,.39l-.8,.06c.38,.29,.81,.22,1.24,.25,.43,.03,.9,.08,1.22,.64,.32,.24,.53,1.3,.78,1-.1-.95,.94-3.08,1.67-3.33,.13,.11,1.53,1.89,1.61,2.51,.12,.88-1.67,.48-1.55,1.25,.13-.13,.54-.08,.7-.05,.21,.38-.49,.33,.22,.81,.56-.4,1.19,1.29,.68-.13,.75,.48,.57,.73,1.2,1.49,.07-.26,.5-.32,1.03-.21,.51,.11,1.07,.44,1.41,.8-.18,.04-.26,.33-.3,.47,.38,.87,.63,1.55,.74,2.26,.16,.69,.25,1.36,.38,2.21-.14,.19-.23,1.03-.56,.72,.14,.23,.41,.42,.47,.96-.5,1.07-.2-1.16-.83-.32,.4,.02,.66,1.31,.93,2.08,.6-.27,.03-1.8-.31-2.51,.84-.13,1.87,1.19,2.32,3.06,.27,1.46-.52,.66-.39,.91,0,1.37,.42,1.91,.79,2.37,.38,.46,.66,.82,.61,1.86-.27,.92-1.02,.33-1.34,.6-.52-1.1-.05-1.84-.16-2.61-.05,.33-.09,.67-.12,1.01-.24-.34-.47-1.13-.35-1.57-.21,.4-.14,1.58,.17,2.9,.17,.65,.39,1.35,.61,2,.27,.64,.46,1.27,.7,1.78,.37,.24,.87,.68,.88,.29l-.42-.52c.05-.72,1.15,.69,.88-.11,.72,.54,1.63,.82,2.31,1.68l-.19,.61c.05-.08-.07-.25-.21-.43-.14-.19-.33-.36-.51-.4,.28,.05,.43,.53,.75,.88,.29,.37,.66,.72,1.1,.47-.18-.24-.33-.5-.46-.77,.83,.21,1.93-.03,2.73,.46-.19-.72-.24-.02-.58-.9,.09,.51-.46,.31-.91,.04-.48-.21-.85-.54-.74,.12-.06-.54-.22-.76-.43-.98-.16-.25-.37-.51-.4-1.01-.12,.15-.1,.48-.47-.12-.06,.02-.17,0-.24,0,0-.02-.01-.03-.02-.05v.04s-.04,0,.01,.02c.04,.19,.05,.36,0,.49-.28,0-.65-.2-.96-.5-.29-.31-.58-.63-.79-.76-.12-.49,.29,.07,.37-.27l-.6-.43c.36-.26,.18-1.4,.86-.54-.15-.27-.23-.59-.32-.9,.03-.62-.04-1.36-.31-1.82,.02-.47-.65-1.16-.25-.77-.16-.53-.29-1.11-.42-1.69l.11-.02c-.06-1.78-.81-3.72-.43-6.23-.23-.69-.56-1.39-.84-2.59l.29-.37c-.21-.44-.47-1.12-.69-1.75-.23-.63-.57-1.12-.84-1.2,.19-.74-.51-1.76-1.39-2.67-.46-.43-.94-.87-1.41-1.23-.47-.35-.89-.68-1.19-.98l-.36,.36c-.44-.33-.9-.62-1.41-.89-.51-.27-1.08-.47-1.7-.72l-.14,.43c-.58-.12-1.19-.48-1.86-.94-.69-.4-1.44-.93-2.29-1.16,.17-.12,.58,.05,.84,.27-.82-.83-1.97-1.03-3.07-1.08-.55-.05-1.1-.04-1.61-.11-.51-.07-.99-.2-1.43-.45-.49,.08-.82-.03-1.13-.19,.04,0,.08,0,.12,0-.05-.01-.12-.03-.19-.03-.2-.1-.4-.21-.62-.31,.18,.13,.36,.24,.52,.3-.36-.03-.92-.04-1.46,0l-.18-.5s-.08,0-.13,0c-.52-.21-.44,.2-.19,.58-.28,.06-.53,.14-.73,.24-.39-.82-1.39,.19-1.93-.65-.37,.38-2.62,.28-2.89,1.14-.02-.11-.17-.16,.11-.17-.57-.09-1.15-.18-1.65,.07l-.25-.61-1.22,.85c-.76-.35-1.08-.56-.34-1.05-1.79,.77-1.45,.31-2.96,1.06l.07-.4c-.54,.02-1.4,.58-1.73,.25-1.2-.72-6-.1-8.81-1.35,.19,.61-.14,.45-.53,.2-.39-.25-.85-.54-1-.11-.11-.3-.47-.54,.04-.68-.75-.03-1.25-.3-1.72-.47-.45-.2-.86-.33-1.47-.13-.06-.31,.44-.28,.35-.48-.13,.02-.51,.07-.58-.13-.06-.2,.27-.14,.51-.18-.66-.22-1.03-.16-1.36,.03-.32,.19-.57,.52-.81,.84-.42-.69-.61-.79-1.32-.77,.04-.36,.05-.74,.58-.31-.15-.14-.42-.65-.57-1.11-.18-.43-.22-.88-.54-.92,.14-.11,.1-.55,.06-.68,.14-.47,.26-.72,.4-.97,.12-.25,.27-.5,.53-.97l-.24,.2c-.42-.8,.39-.88,.92-1.62l.04,.07c.95-.57,1.09-.73,1.22-.94,.13-.19,.29-.39,1.33-.73l-.36-.33c-.21-.48,.29-.64,.94-.75,.32-.05,.68-.08,1.02-.16,.36-.07,.7-.18,.95-.4l-.55-.06c.53-.61,2.38,.47,3.06,.35,.18,.03-.18,.21-.34,.36,1.92-.08-.02-.67,1.22-1.28,.35,.23,0,.92,.87,.67,.48,.07,2.19-1.87,3.59-1.6-.33-.17-.67-.34-.1-.72,.95-.31,2.8,.33,3.5-.63,.14,.05,.2,.11,.21,.17,.7-.33,2.34-.8,2.74-1.27,.47,.78,1.59,.43,2.65,.09,1.06-.29,2.06-.6,2.09,.17,.77-.1,1.54-.14,2.32-.18l-.06,.16c1.48,.06,2-.31,2.54-.65,.34,.11,.09,.25,.06,.33,1.09,.18,1.68,.26,2.24,.2,.56-.03,1.08-.2,2.02-.52l.15,.51c.26-.13,1.03,.11,2,.4,.97,.27,2.14,.51,3.23,.41-.03,.05-.09,.14-.27,.18,.61-.05,1.27,.07,1.91,.24,.64,.19,1.27,.46,1.87,.67,1.19,.41,2.19,.71,2.83-.07l1.66-.06c-1.99-.62,.49-.69-.27-1.18,.84,.07,1.92,1.09,.92,.89l-.13-.13c-.6,.81,2.4,1.02,2.17,1.62,.98,.28,1.93,.62,2.87,.96,.93,.34,1.81,.75,2.72,1.17,1.79,.84,3.54,1.73,5.29,2.52l-.11-.85,1.21,.58c.25,.3,.2,.71-.66,.3,.29,.58,1.6,.33,1.7,.2,1.58,1.04-1.02,.48-.5,.73l.73,.27-.12-.15c.7-.01,.88-.28,1.91,.24,.6,.44,.15,.57,.4,.71-.02,.05,.05,.11,.39,.2l1.5,.78-.36-.81c.8,.06,1.42,.72,1-.21,.61,1.39,5.49,3.13,5.96,3.76,1.12,.12,2.04,.62,3.13,1.28-.22-.26-.07-.92,.86-.31-1.01,.97,1.48,1.5,1.76,2.79-.35-.96,2.76,1.47,2.16,.05,.73,.57-.21,.46,.21,1.09,2.13,.71,3.86,2.86,6.08,4.3,.14-.12-.06-.6,.56-.47l.58,1.55c.45,.26,1.02-.49,1.36,.59,0-.2-.02-.5,.29-.32,1.71,1.99,3.73,3.68,5.16,5.72,.7,1,1.26,2.11,1.33,3.18,.11,1.07-.31,2-1.09,2.56,.52-.27,.43,.03,.22,.38,.2-.19,.37,.23,.6,.31-.51,.41-1.08,.73-1.69,.99,.11,.36-.29,.72-.71,1.03-.42,.31-.85,.59-.78,.92l.49-.46c-.16,.55,.31,.74,.93,.86,.6,.11,1.34,.12,1.59,.54,.19-.7,.95-.96,1.76-1.51,.79-.52,1.62-1.5,1.36-2.75,.33-.41,.17,.49,.46,.31-.21-.69-.11-1.32,.06-2.57l.11,.14c-.12-1.77-.49-2.92-.88-4.07-.42-1.14-.94-2.29-1.93-3.73l-.21,.5c-.41-.62-.41-.81-.54-1.16-1.08-.17,1.3,1.6,.19,1.52,.09-.69-.76-1.67-1.6-2.54-.84-.89-1.7-1.68-1.58-2.31-.82-.72-.11,.62-.94-.09l-.03-.41-.45,.12c-.51-.5-.56-1.01-.42-1.22,.12,.13,.43,.25,.59,.35-.5-.87-2.13-1.52-2.32-1.79l.72,.77c-2.5-1.57-5.27-3.87-7.98-4.8l.06,.3c-2.04-.75-1.33-1.1-3.46-2.1h.1c-.52-.04-1.11-.25-1.66-.58,.64,.06-.72-.98,.09-.86-2.24-.72-1.17-.24-2.9-.23l-.14-.49c-.62,.06-.73,.19-1.81-.26,.99,.15-.4-.84,.74-.73-1.81-1.85-3.6-.91-4.08-2.46-1.45,.43,1.64,1.44,.98,1.36,.32,.53-1.17,.28-1.81-.15-.69-.36-.62-1.76-2.41-2.58,.17,.09,.22,.02,.39,.11-.56-.55-1.45-.29-2.1-1.05-.72,.36-1.05-.52-1.51,.15l1.71,.57c-1.02-.24-2.26,.21-3.61-.87,.18-.1,.72-.09,1.09-.05-.35-.41-.93-.24-1.3-.66,.45-.67,2.07,.72,3.31,.62-.34-.53-2.12-.32-1.27-.88-1.16,.68-1.72-.91-3.28-.67l.27-.4c-.22-.01-.71,.02-1.07-.14l.89-.29c-1.2,.06-1.75-1.23-2.84-1.35,2.04,.8,.24,.71,.97,1.38-2.74-.41-.92-1.74-3.95-2.6,.45,.08,1.4,.81,.71,.79-.52-.3-1.22-.72-1.47-1.06-1.96-.52,.14,.56-.77,.57-.48-.76-1.01-.08-1.9-.17l.13-.46c-2.12-.92-.86,.8-2.73-.11l1.01-.41-1.08-.12,.36-.47c-1.23,.07-1.56-.08-2.65-.51,.18,.39-.35,.82-1.33,.6-.61-.43,.48-.38-.94-.59,.38-.23,.82-.55,1.33,.04,.1-.14,.38-.22,.48-.36-.65-.51-1.83-.47-2.34-.57,.19,.06,.43,.13,.53,.22l-2.18,.25c-.29-.24,0-.33,.27-.42-.42-.04-.75,.15-1.37,.09,.22-.36,.25-.77,1.16-.81l-2.05,.12c-.1-.19-.95-.62-.67-.73-1.08-.4-2.81,.41-4.24-.03-.08,.07-.24,.13-.56,.17-1.37-.19-2.58-.77-4.25-.25l-.93-.73c-1.29,.13,1.25,.9-.89,1.15-1.51,.26-.57-.59-1.11-.77-.76,.37-2.03,1.11-3.45,.66,.45-.16,.82-.09,1.25-.17Zm-15.58,3.15c.26-.18,.76-.66,1.06-.45-.17,.63-.51,.45-1.06,.45Zm-8.66,17.83c-.28,.05-.6-.18-.89-.55,.29,.11,.59,.28,.89,.55Zm52.09,24.42s-.02-.01-.03-.02c.05-.58,.03-.37,.03,.02Zm.16,1.16c.1,.09,.16,.06,.21-.01-.14-.03-.23-.28-.29-.57-.09,.12-.13,.29,.08,.58Zm12.51-32.71l-.19-.23c.6,.13,.4,.17,.19,.23Z"></path><path class="cls-6" d="M344.94,405.09c-.02-.13,.02-.22,.07-.3-.16-.05-.24,0-.07,.3Z"></path><path class="cls-6" d="M382.04,385.18h.05s.05-.05,.06-.07l-.1,.07Z"></path><path class="cls-6" d="M390.51,414.48c-.15-.21-.2-.37-.22-.51-.08,.08-.06,.24,.22,.51Z"></path><path class="cls-6" d="M404.18,435.52c-.2-.07-.39-.17-.59-.25,.27,.15,.3,.31,.39,.46,.05-.11,.03-.31,.2-.21Z"></path><path class="cls-6" d="M410.05,439.89c.13-.06,.27,0,.4-.06l-.03-.22c-.54,0-.93,.18-.37,.28Z"></path><path class="cls-6" d="M404.02,437.23c-.06,.2,.03,.32,.21,.42,.19,.08,.46,.12,.73,.19-.03-.01-.06-.02-.09-.03,.36-.5-.27-.46-.85-.57Z"></path><path class="cls-6" d="M405.09,437.87c.17,.04,.33,.11,.49,.16,.13-.2-.19-.09-.49-.16Z"></path><path class="cls-6" d="M401,432.98c.03,.25,.53-.14,.45,.05,.29-.04-.06-.23-.31-.39-.27-.15-.53-.18-.14,.34Z"></path><path class="cls-6" d="M403.88,438.65c0-.18,0-.37,0-.55l-.47,.21c.15,.11,.3,.24,.46,.34Z"></path><path class="cls-6" d="M400.3,435.53c.18,.26,.33,.56,.53,.81,.05-.07,.17-.02,.31,.05-.45-.38-.72-.98-.84-.86Z"></path><path class="cls-6" d="M401.14,436.38c.22,.21,.44,.4,.62,.44-.12-.1-.39-.33-.62-.44Z"></path><path class="cls-6" d="M402.6,438.18c-.07-.08-.13-.17-.19-.25l-.56-.42c.25,.22,.49,.45,.75,.67Z"></path><path class="cls-6" d="M397.59,425.77l-.19-1.07c-.18-.1-.27,.2-.18,.59,.13,.25,.21,.65,.37,.48Z"></path><path class="cls-6" d="M396.45,429.15c.07-.31,.18-.34,.32-.53l-.62,.03,.3,.5Z"></path><path class="cls-6" d="M396.08,425.95c-.18-.1-.56-1.53-.46-.18,.18,.1,.36,1.18,.46,.18Z"></path><polygon class="cls-6" points="390.3 412.19 390.52 412.33 391.08 411.48 390.3 412.19"></polygon><path class="cls-6" d="M376.79,410.19c1.14,.38,.35-.59,1.38-.17,.31-.21-.84-.35-.53-.52-.75,.16-1.11,0-.84,.69Z"></path><path class="cls-6" d="M377.63,409.5c.12-.03,.25-.06,.39-.11-.22,.04-.32,.08-.39,.11Z"></path><path class="cls-6" d="M441.19,426.99l-.69,.2,.56,.04c.04-.08,.09-.16,.13-.24Z"></path><path class="cls-6" d="M440.44,428.36l-.47-.48-.1,.73c.13-.11,.39-.32,.57-.26Z"></path><path class="cls-6" d="M353.88,387.98v.17c.18,.11,.38,.05,.77-.06l-.77-.11Z"></path><polygon class="cls-6" points="365.38 385.44 365.18 385.46 365.64 385.97 365.38 385.44"></polygon><path class="cls-6" d="M375.11,383.9c-.4-.02-.87,.12-1.28,.11,.88-.12,1.39,.62,1.28-.11Z"></path></g></g><g><path class="cls-6" d="M441.97,396.63c-.64,8.69-2.26,17.32-4.81,25.65-9.33,1.65-18.65,3.31-27.98,4.96-.74,.13-1.52,.26-2.21-.02-.98-.39-1.49-1.45-1.92-2.42-1.39-3.18-2.77-6.36-4.16-9.54-.16-.36-.32-.75-.24-1.14,.09-.4,.41-.7,.73-.97,5.13-4.46,10.26-8.92,15.39-13.38,.24-.21,.5-.51,.36-.8s-.68,.13-.38,.23"></path><path class="cls-6" d="M440.52,396.81c-.66,8.7-2.27,17.3-4.81,25.65l1.64-1c-4.83,.86-9.65,1.71-14.48,2.57-2.45,.44-4.91,.87-7.36,1.31-1.15,.2-2.29,.41-3.44,.61-1.11,.2-2.55,.71-3.68,.61s-1.61-1.48-1.99-2.35c-.5-1.13-.99-2.27-1.49-3.41-.46-1.06-.92-2.12-1.39-3.18-.23-.53-.46-1.06-.69-1.59-.2-.46-.87-1.52-.73-2.06,.1-.41,.72-.79,1-1.03,.44-.38,.88-.76,1.31-1.14,.94-.82,1.88-1.63,2.82-2.45,1.88-1.63,3.75-3.26,5.63-4.9,1-.87,2-1.74,3-2.61,.79-.69,2.23-1.52,2.63-2.52,.72-1.82-2.65-1.41-3.2-.24-.1,.21-.18,.43,0,.62l.09,.09c.72,.75,3.48-.33,2.69-1.15l-.09-.09v.62c-.08,.07-.16,.13-.25,.2l-1.1,.37,.16-.02-1.15-.25c-.14-.11-4.69,4.08-5.13,4.47-1.81,1.58-3.63,3.15-5.44,4.73-1.72,1.49-3.67,2.9-5.22,4.57-1.45,1.56,.05,3.54,.76,5.16,.96,2.19,1.91,4.39,2.87,6.58,.69,1.57,1.47,2.98,3.33,3.22,1.05,.13,2.1-.11,3.13-.29l3.68-.65c2.37-.42,4.75-.84,7.12-1.26,5.4-.96,10.8-1.92,16.2-2.87,.59-.1,1.44-.34,1.64-1,2.54-8.35,4.15-16.95,4.81-25.65,.09-1.2-2.82-.66-2.9,.35h0Z"></path></g><g><path class="cls-6" d="M395.01,379.33c1.92,5.53,3.66,11.12,5.23,16.76-14.38,2.4-29,3.31-43.57,2.72,7.01-5.22,13.83-10.71,20.44-16.44"></path><path class="cls-6" d="M393.56,379.71c1.91,5.53,3.66,11.12,5.23,16.76l1.59-1.41c-14.26,2.37-28.75,3.3-43.19,2.72l.44,1.65c7.01-5.23,13.83-10.71,20.44-16.44,1.48-1.28-.84-2.19-1.9-1.26-6.61,5.73-13.43,11.21-20.44,16.44-.76,.56-.6,1.61,.44,1.65,14.7,.59,29.42-.31,43.94-2.71,.61-.1,1.83-.54,1.59-1.41-1.57-5.64-3.31-11.23-5.23-16.76-.44-1.28-3.33-.47-2.9,.78h0Z"></path></g><g><path class="cls-2" d="M450.65,270.61c1.05,43.14-1.06,86.34-6.29,129.08-11.74,1.45-23.52,2.53-35.33,3.25,1.1-34.14-.71-68.41-5.39-102.27-3.63,27.64,.43,55.94-2.55,83.66-8.95-.43-17.9-.86-26.85-1.29-3.42-40.59-6.84-81.17-10.27-121.76"></path><path class="cls-2" d="M449.2,271c.4,16.79,.34,33.59-.21,50.38-.55,16.86-1.58,33.7-3.09,50.5-.85,9.42-1.85,18.82-2.99,28.2l2.08-.95c-11.74,1.45-23.52,2.53-35.33,3.25l.82,.18c.84-26.61-.05-53.26-2.71-79.75-.75-7.52-1.65-15.03-2.68-22.52-.08-.59-2.81,.1-2.9,.78-2.8,21.64-.99,43.48-1.45,65.22-.13,6.16-.45,12.32-1.1,18.45l2.39-.96c-8.95-.43-17.9-.86-26.85-1.29l.51,.19c-2.67-31.64-5.34-63.28-8-94.92-.75-8.95-1.51-17.89-2.26-26.84-.04-.5-2.96,.02-2.9,.78,2.67,31.64,5.34,63.28,8,94.92,.75,8.95,1.51,17.89,2.26,26.84,.01,.17,.43,.18,.51,.19,8.95,.43,17.9,.86,26.85,1.29,.56,.03,2.31-.23,2.39-.96,2.3-21.7,.37-43.51,1.11-65.26,.21-6.15,.65-12.3,1.44-18.4-.97,.26-1.93,.52-2.9,.78,3.64,26.37,5.55,52.98,5.69,79.6,.04,7.56-.06,15.11-.3,22.66,0,.25,.72,.18,.82,.18,11.81-.72,23.59-1.8,35.33-3.25,.51-.06,2-.27,2.08-.95,2.03-16.65,3.6-33.36,4.69-50.09,1.09-16.84,1.7-33.7,1.83-50.58,.07-9.47,0-18.94-.24-28.41-.01-.45-2.92-.02-2.9,.78h0Z"></path></g><path class="cls-1" d="M376.24,386.4c.85,1.57,.11,3.48-1.19,4.44-.06,.04-.22,.14-.07,.06-.1,.06-.2,.11-.31,.16,.39-.18-.26,.08,.08-.03-.02,0-.47,.11-.18,.06-.35,.07-.79,.08-1.3,.03-1.13-.13-2.22-.56-3.23-1.07-.23-.12-.7-.06-.93-.02-.37,.06-.77,.18-1.1,.35-.38,.2-.89,.6-.32,.89,2.79,1.41,6.25,1.77,9.05,.16,1.92-1.1,3.59-3.6,2.39-5.8-.44-.81-3.21,.2-2.9,.78h0Z"></path><path class="cls-1" d="M423.83,405.62c-.04,3.66-2.41,7.37-5.82,8.55-.74,.26-1.74,.56-2.49,.2s-1.22-1.23-1.47-2.02c-.67-2.16-.18-4.61,.86-6.56,.33-.63-.3-1.07-.86-1.13-.67-.07-1.56,.23-1.89,.86-1.06,1.99-1.55,4.31-1.23,6.56,.25,1.82,1.26,3.63,3.09,4.23,2.03,.67,4.56-.09,6.38-1.07,1.78-.95,3.27-2.29,4.42-3.94,1.2-1.73,1.92-3.82,1.94-5.94,.01-1.44-2.91-.96-2.93,.26h0Z"></path><path class="cls-1" d="M442.59,282.51c1.56,29.92,.62,59.96-2.82,89.73-.48,4.15-1.01,8.29-1.58,12.42-.29,2.11-.6,4.21-.92,6.32-.15,.97-.3,1.94-.45,2.91-.09,.57-.1,2.81-.63,3.14l1.09-.38c.41,.26,.6,.25,.57-.02l-.53,.68,.16-.12c.47-.33,.77-.88,.21-1.28s-1.58-.11-2.06,.23c-.98,.69-.94,1.87,.29,2.27,1.41,.45,2.92-.53,3.31-1.88,.54-1.85,.66-3.93,.95-5.84,.32-2.1,.62-4.21,.92-6.32,1.15-8.27,2.11-16.56,2.87-24.88,1.52-16.55,2.28-33.16,2.26-49.78,0-9.33-.26-18.65-.75-27.97-.06-1.09-2.96-.46-2.9,.78h0Z"></path><path class="cls-1" d="M400.37,275.72c-.82,7.51-.53,15.08,.91,22.49l2.8-.92c-5.26-6.54-8.12-14.77-8.13-23.15,0-.69-2.9-.21-2.9,.78,.02,8.52,2.99,16.8,8.32,23.44,.46,.57,2.97-.09,2.8-.92-1.42-7.3-1.74-14.76-.93-22.15,.1-.95-2.79-.39-2.88,.44h0Z"></path><path class="cls-1" d="M395.16,287.65c-1.71,24.7-1.42,49.49-.67,74.23,.21,6.96,.46,13.91,.7,20.87,.03,.94,2.94,.36,2.9-.78-.87-24.6-1.74-49.22-1.03-73.83,.2-6.95,.53-13.9,1.01-20.84,.08-1.19-2.83-.64-2.9,.35h0Z"></path><g><path class="cls-1" d="M332.42,234.6c-13.02,4.02-28.25-.47-37.01-10.9-.88-1.05-1.74-2.49-1.09-3.7,3.05,1.79,5.84,4.02,8.25,6.62-2.99-2.03-6.27-4.74-6.13-8.35,4.31,2.35,8.37,5.16,12.08,8.38-3.12-1.36-5.82-3.69-7.62-6.58,3.3-.55,5.9,2.52,8.56,4.54,2.3,1.75,5.08,2.84,7.95,3.13-.96-1.27-2.62-1.75-3.98-2.58s-2.55-2.55-1.76-3.94c4.88,2.76,10.4,4.39,16,4.74"></path><path class="cls-6" d="M332.24,233.92c-6.82,2.06-14.18,1.7-20.86-.71-3.33-1.2-6.49-2.87-9.31-5.01-1.36-1.04-2.65-2.17-3.84-3.41-1.19-1.23-3.26-3.09-2.46-4.97-.87,.29-1.74,.58-2.6,.87,2.99,1.77,5.68,3.96,8.06,6.49l2.7-1.11c-2.83-1.93-6.05-4.42-6.03-8.19l-2.61,1.07c4.25,2.33,8.22,5.09,11.89,8.26,.84-.41,1.67-.82,2.51-1.24-3.08-1.39-5.61-3.61-7.43-6.46-.52,.44-1.04,.88-1.56,1.32,2.8-.36,5.28,2.68,7.28,4.22,2.49,1.92,5.43,3.09,8.55,3.45,.46,.05,3.01-.4,2.24-1.31-.99-1.18-2.38-1.71-3.69-2.43s-2.69-2.14-1.96-3.73c-.87,.29-1.74,.58-2.6,.87,5.11,2.85,10.75,4.45,16.58,4.84,1.06,.07,3.09-1.44,1.15-1.57-5.43-.37-10.67-1.99-15.41-4.63-.75-.42-2.25,.11-2.6,.87-1.71,3.72,4.19,4.91,5.84,6.88,.75-.44,1.5-.88,2.24-1.31-3.69-.42-6.56-2.1-9.35-4.45-2.31-1.95-4.68-3.63-7.85-3.22-.51,.07-2.05,.54-1.56,1.32,1.9,2.97,4.6,5.26,7.81,6.7,.57,.26,3.35-.51,2.51-1.24-3.78-3.26-7.89-6.11-12.27-8.51-.72-.39-2.6,.12-2.61,1.07-.02,3.87,3.32,6.53,6.23,8.52,.65,.44,3.5-.26,2.7-1.11-2.49-2.65-5.32-4.89-8.44-6.74-.72-.43-2.28,.11-2.6,.87-1.14,2.7,2.49,5.65,4.24,7.23,2.23,2.02,4.74,3.74,7.4,5.14,5.43,2.85,11.61,4.32,17.74,4.28,3.5-.03,6.99-.55,10.34-1.56,.39-.12,1.42-.48,1.27-1.07s-1.27-.4-1.63-.29h0Z"></path></g><g><path class="cls-6" d="M388.12,168.55c-3.73-.95-7.76-.25-11.24,1.39-3.48,1.64-6.48,4.18-9.14,6.96-9.58,9.99-15.15,23.06-20.52,35.82-3.49-1.61-7.09-2.98-10.77-4.1-.5-.15-1.06-.3-1.53-.07-.36,.17-.6,.52-.81,.86-2.26,3.6-3.83,7.57-5.39,11.52-3.24,8.2-6.48,16.41-9.73,24.61-.09,.22-.18,.48-.07,.7,.09,.17,.27,.27,.45,.35,6.5,3.01,13.45,5.04,20.55,6,7.2,.97,14.75,.81,21.42-2.05,8.6-3.69,14.87-11.49,18.87-19.95s6.05-17.68,8.54-26.7"></path><path class="cls-6" d="M388.61,167.43c-8.95-2.12-17.05,3.52-22.82,9.76-5.87,6.35-10.25,13.93-13.96,21.69-2.14,4.48-4.08,9.06-6,13.63l2.22-.83c-2.52-1.15-5.08-2.2-7.7-3.1-2.08-.72-4.96-2.2-6.87-.4-.78,.74-1.29,1.85-1.8,2.78-.7,1.26-1.33,2.55-1.92,3.86-1.15,2.54-2.14,5.15-3.17,7.75-2.17,5.49-4.34,10.99-6.52,16.48-.52,1.32-1.04,2.63-1.56,3.95-.38,.97-1.5,2.68-.98,3.75,.44,.89,1.84,1.24,2.68,1.6,1.26,.54,2.53,1.05,3.82,1.52,9.9,3.62,21.22,5.68,31.69,3.54,9.44-1.93,17.05-8.17,22.24-16.12,6.54-10.03,9.06-21.85,12.19-33.23,.46-1.67-2.42-1.75-2.79-.41-2.61,9.49-4.74,19.25-9.21,28.09-3.72,7.34-9.3,14.16-16.93,17.61-8.82,4-19.31,2.9-28.44,.64-2.47-.61-4.91-1.38-7.31-2.26-1.07-.4-2.14-.82-3.19-1.26-.56-.24-1.11-.52-1.67-.74-1.06-.4-.21-.18-.22,0,.02-.32,.33-.85,.46-1.16,1.99-5.03,3.98-10.06,5.96-15.09,2.1-5.31,4.01-10.76,6.51-15.9,.61-1.26,1.25-2.53,2.02-3.7,0,0,.25-.43,.31-.46-.4,.13,.96,.52,.86,.49,.66,.21,1.32,.43,1.97,.65,2.69,.92,5.33,1.99,7.92,3.18,.74,.34,1.9-.07,2.22-.83,3.13-7.44,6.29-14.9,10.32-21.91,3.93-6.82,8.88-13.77,15.42-18.3,3.89-2.69,8.59-4.15,13.28-3.04,1.51,.36,2.87-1.79,.97-2.24h0Z"></path></g><g><path class="cls-6" d="M447.39,200.75c-.96-7.97-2.42-16-5.94-23.3-3.52-7.3-9.33-13.89-17.07-17.14l-.41,.14c-9.27-2.24-19.24-1.71-28.19,1.52-8.37,3.02-15.8,8.4-21.18,15.27l-.94,.32c-17.18,27.58-22.59,60.69-20.81,92.75,31.72-.09,63.44-.09,95.17-.02,1.07-23.18,2.14-46.47-.65-69.53Z"></path><path class="cls-6" d="M352.39,270.79l-.03-.47c-1.99-35.75,5.24-67.92,20.88-93.04l.09-.15,.96-.33c5.42-6.87,12.98-12.3,21.31-15.31,8.96-3.24,19.01-3.79,28.33-1.57l.45-.15,.18,.07c7.23,3.04,13.39,9.21,17.33,17.38,3.71,7.69,5.11,16.17,5.99,23.46h0c2.8,23.16,1.71,46.78,.65,69.61l-.02,.48h-.48c-31.56-.08-63.58-.07-95.17,.02h-.47Zm21.61-92.83c-15.4,24.8-22.55,56.54-20.66,91.83,31.28-.08,62.97-.09,94.22-.02,1.05-22.65,2.11-46.05-.66-68.97-.87-7.21-2.25-15.59-5.9-23.15-3.8-7.89-9.71-13.85-16.64-16.82l-.36,.12-.14-.03c-9.17-2.22-19.08-1.68-27.9,1.5-8.2,2.96-15.64,8.33-20.95,15.1l-.09,.12-.91,.31Z"></path></g><path class="cls-1" d="M354.31,269.9c-1.35-24.84,1.54-50.22,11-73.36,2.7-6.6,5.93-12.98,9.69-19.04,.61-.98-2.24-.59-2.66,.09-13.34,21.49-19.7,46.42-21,71.54-.37,7.18-.32,14.37,.07,21.55,.04,.7,2.95,.17,2.9-.78h0Z"></path><path class="cls-1" d="M423.23,161.01c6.97,2.99,12.45,8.66,15.99,15.29,4.09,7.65,5.68,16.31,6.72,24.83,.12,.98,3.03,.33,2.9-.78-1.07-8.77-2.73-17.7-7.09-25.5-3.7-6.62-9.18-12.24-16.22-15.26-.64-.27-1.49-.1-2.05,.27-.36,.23-.9,.87-.25,1.15h0Z"></path><path class="cls-1" d="M403,118.53c6.68,.7,12.67,5.2,15.83,11.13,2.37,4.44,3.24,9.52,3.58,14.54,.41,6.11,.06,12.27-1.03,18.29-1.61,8.92-11.26,13.88-19.49,10.08l-8.07-3.73c-1.61-.74-3.25-1.51-4.51-2.76-2.31-2.31-2.87-5.81-3.09-9.07-.64-9.49,1.48-18.79,1.15-28.2-.27-7.54,9.21-10.94,15.63-10.27Z"></path><path class="cls-6" d="M393.1,146.09c.28-.16,.05-.03,0,.01-.06,.04-.12,.09-.18,.14-.04,.04-.15,.1-.16,.16,.03-.09,.1-.12,0,0-.19,.23-.32,.48-.44,.75,.05-.12,.03-.1,0,.01-.02,.07-.04,.15-.06,.22-.03,.14-.05,.27-.06,.41,0,.08,0,.15-.01,.23,0,.2-.03-.17,0,.05,.02,.14,.04,.27,.08,.41,.02,.06,.04,.12,.06,.18,.01,.04,.03,.07,.04,.11,.03,.07,.02,.05-.03-.07-.02,.01,.2,.34,.22,.36,.04,.06,.09,.12,.14,.18,.08,.11-.17-.16-.01-.02,.11,.1,.24,.2,.35,.3l-.14-.1s.09,.06,.13,.08c.06,.03,.11,.06,.17,.09,.12,.07-.34-.13-.05-.02,.06,.02,.12,.04,.18,.06,.27,.1-.36-.06-.08-.02,0,0,.23,.04,.23,.03,0-.02-.43,0-.08-.01,.08,0,.15,0,.23-.01,.35-.03,.8,.09,1.1,.27,.22,.13,.53,.38,.58,.66,.12,.71-.64,.94-1.19,.99-1.92,.16-4.03-.99-4.66-2.87-.26-.79-.16-1.63,.14-2.39,.32-.81,.93-1.4,1.67-1.84,.28-.16,.76-.16,1.06-.11,.32,.05,.74,.19,.98,.43,.19,.18,.38,.44,.32,.72-.07,.3-.27,.44-.52,.59h0Z"></path><path class="cls-6" d="M414.36,148.58c1.93-2.86,6.07-3.27,8.8-1.37,1.23,.86,2.2,2.23,2.39,3.74,.11,.87,.02,1.76-.45,2.52-.4,.65-1.03,1.13-1.7,1.47-1.81,.93-4.13,.79-5.98,.07-.48-.19-1.2-.68-.83-1.28,.34-.56,1.34-.57,1.88-.36,.16,.06,.32,.12,.48,.17,.07,.02,.14,.04,.21,.06-.06-.02-.25-.05,.05,0,.14,.03,.29,.05,.43,.07,.09,.01,.19,.03,.29,.03-.16,0-.05,0,.05,0,.15,0,.31-.01,.46-.01s-.06,0-.08,.01c.08-.01,.15-.02,.23-.03,.13-.02,.26-.06,.39-.09,.14-.03-.02,0-.04,.02,.07-.02,.14-.05,.22-.08,.12-.05,.25-.1,.36-.16,.02-.01,.23-.12,.12-.06-.09,.06,.06-.04,.06-.04,.1-.08,.21-.15,.31-.24,.04-.04,.08-.07,.12-.11l.08-.08s-.04,.04,0,0c.36-.46,.51-.97,.5-1.55,0-.49-.17-1.08-.36-1.47-.08-.17-.25-.44-.39-.63-.08-.11-.16-.22-.25-.32,.1,.11-.13-.12-.17-.16-.1-.09-.21-.18-.31-.27-.03-.03-.2-.15-.01-.02-.05-.03-.1-.06-.15-.09-.12-.07-.23-.14-.35-.2-.02-.01-.2-.09-.05-.03,.17,.08-.16-.06-.16-.06-.11-.04-.22-.07-.33-.1,.34,.1-.05,0-.14,0-.06,0-.12-.01-.17-.02,.32,.04,.12,0,.04,0-.16,0-.31,0-.46,.02,.28-.02-.12,.03-.22,.05-.07,.02-.46,.14-.25,.06-.23,.08-.6,.25-.72,.31-.44,.25-.9,.68-1.21,1.15-.38,.56-1.3,.58-1.88,.36-.46-.17-1.23-.7-.83-1.28h0Z"></path><path class="cls-6" d="M402.13,141.18c.11,.32,.14,.64,.14,.97,0,.25-.03,.5-.11,.74-.02,.14-.07,.26-.17,.35-.08,.12-.19,.21-.32,.26-.15,.07-.3,.12-.46,.12-.18,.03-.35,.03-.53,0-.32-.07-.68-.19-.92-.45l-.18-.23c-.1-.16-.14-.33-.12-.52,.08-.25,.12-.52,.1-.79v.26c0-.23-.04-.45-.12-.66-.04-.14-.03-.27,.03-.39,.03-.14,.1-.25,.21-.33,.11-.1,.24-.17,.38-.21,.15-.07,.31-.1,.48-.09,.35,0,.73,.07,1.03,.28l.25,.2c.14,.13,.24,.29,.29,.48h0Z"></path><path class="cls-6" d="M391.96,140.23c.05,.09,.09,.18,.13,.28,0,.02,.02,.04,.02,.05,.01,.04,.02,.07,.03,.11,.02,.11,.02,.23,.03,.34,0,.04,0,.08,0,.12-.01,.15-.08,.3-.14,.44-.03,.07-.07,.14-.12,.2-.08,.12-.18,.21-.31,.26-.13,.09-.28,.14-.44,.17-.18,.04-.37,.05-.55,.02-.2,0-.39-.04-.57-.11l-.33-.14c-.19-.1-.34-.23-.47-.4l-.11-.24c-.04-.17-.02-.33,.07-.47,.05-.06,.09-.13,.12-.2l-.09,.23c.04-.1,.06-.21,.05-.33v.25c0-.09-.01-.18-.05-.26l.11,.24s-.01-.03-.02-.04c-.09-.11-.13-.23-.12-.36-.02-.13,0-.24,.08-.35,.08-.12,.18-.21,.31-.26,.13-.09,.28-.14,.44-.17l.36-.04c.26,0,.52,.04,.77,.12l.33,.14c.19,.1,.34,.23,.47,.4h0Z"></path><path class="cls-6" d="M404.92,141.17c-.06-.13-.13-.25-.2-.38,0,0-.14-.23-.06-.1-.03-.05-.06-.09-.1-.14-.17-.24-.36-.47-.57-.68-.1-.1-.2-.2-.31-.29-.09-.09,.13,.1-.02-.02-.06-.04-.11-.09-.17-.13-.12-.09-.25-.18-.38-.27-.05-.03-.1-.06-.14-.09-.25-.16,.24,.12-.02-.01-.13-.06-.25-.13-.38-.19-.06-.03-.13-.06-.2-.08-.23-.09-.02,.03,.06,.02-.09,.02-.31-.1-.41-.13-.04-.01-.32-.07-.06-.02s0,0-.06,0c-.14-.03-.28-.04-.42-.06,.41,.08,.17,.01,.05,0-.07,0-.14,0-.21,0s-.15,0-.21,0c.12,.01,.27-.02,.06,0-.16,.01-.31,.03-.46,.06-.6,.1-1.52-.06-1.94-.55-.44-.52,.24-.8,.66-.87,3.19-.52,6.88,1.02,8.32,4,.1,.21-.07,.41-.23,.51-.24,.15-.64,.2-.91,.18-.57-.02-1.42-.18-1.7-.76h0Z"></path><path class="cls-6" d="M389.02,137.91s-.04-.05-.07-.07l.13,.12c-.12-.11-.24-.2-.38-.28l.21,.12s-.09-.05-.14-.07c-.03-.01-.06-.03-.09-.04-.02-.01,.33,.12,.19,.08-.03-.01-.06-.02-.09-.03-.04-.01,.4,.11,.25,.07-.03,0-.06-.01-.09-.02-.03,0,.47,.09,.27,.05-.01,0-.02,0-.03,0-.12-.02-.02,0,.31,.03-.03,0-.05,0-.08,0-.01,0-.02,0-.03,0-.11,0-.02,0,.27,0-.03,0-.05,0-.08,0-.1,0-.22,.03,.19-.01-.03,0-.05,0-.08,0-.06,0-.11,.02-.17,.03l.24-.05c-.14,.03-.28,.08-.42,.14-.13,.04-.26,.06-.39,.06-.17,.02-.33,.02-.5,0-.36-.03-.76-.09-1.11-.22l-.28-.11c-.13-.05-.25-.14-.34-.24l-.03-.12c.04-.1,.12-.16,.23-.18,.27-.13,.58-.2,.87-.23,.54-.05,1.1-.04,1.64,.06,.89,.16,1.78,.43,2.41,1.1,.14,.15-.11,.27-.2,.3-.26,.09-.63,.08-.89,.06-.37-.03-.75-.09-1.11-.22-.23-.08-.45-.17-.62-.36h0Z"></path><path class="cls-6" d="M396.04,158.31c1.65-.14,3.3-.72,4.66-1.67,.67-.46,1.23-1.01,1.78-1.61,.22-.24,.43-.48,.67-.69,.1-.09,.23-.16,.31-.23,.14-.13,.05,0,.02-.01s-.27,.05-.3,.05c-.22,.03,0,.02,.08,.06,.11,.05,.2,.12,.29,.2,.22,.2,.38,.44,.5,.72,.24,.57,.31,1.19,.21,1.8s-.32,1.17-.67,1.66c-.15,.21-.3,.4-.49,.56-.21,.19-.38,.31-.57,.4-.21,.1-.33,.14-.58,.17-.08,.01-.15,.02-.23,.03,.14-.01-.05,0-.09,0-.18,0-.29,0-.44-.02-.54-.06-1.61-.24-1.85-.81s-1.18-.42-1.63-.29c-.32,.09-1.5,.52-1.27,1.07,.36,.86,1.37,1.18,2.21,1.4,.97,.26,2.03,.29,3.03,.12,1.95-.32,3.9-1.3,4.88-3.08,.78-1.4,.96-3.2-.05-4.55-1.39-1.85-4.39-.87-5.8,.44-.7,.65-1.31,1.49-2.06,2-.47,.32-.68,.41-1.18,.58,.31-.11-.59,.14-.26,.07-.25,.05-.51,.08-.76,.1-.52,.04-1.52,.36-1.66,.95-.15,.64,.9,.59,1.24,.57h0Z"></path><path class="cls-6" d="M386.72,149.16c-.15-4.83,.09-9.69,.7-14.52,.3-2.35,.69-4.7,1.16-7.03,.24-1.16,.48-2.33,.82-3.48l-2.53-1.35c-.26,.72-.47,1.45-.65,2.17-.63,2.58-1.09,5.19-1.46,7.79-1.56,10.83-1.19,21.78,1.05,32.41,.14,.66,2.93,.58,2.88,.33-1.13-5.38-1.8-10.83-1.96-16.33Z"></path><path class="cls-6" d="M394.9,120.45c-1.45-1.81-4-2.21-6.17-1.81-2.51,.46-4.72,1.81-6.59,3.51-3.41,3.1-5.78,7.23-6.61,11.78-.17,.92,2.72,.43,2.88-.43,.68-3.71,2.36-7.16,4.91-9.95,1.21-1.32,2.69-2.69,4.38-3.36,1.63-.64,3.41-.01,4.48,1.32,.53,.67,3.31-.31,2.71-1.07h0Z"></path><path class="cls-6" d="M399.02,123.04c.31-.5,1.07-1.96,1.65-1.98,.98-.02,1.17,1.85,1.33,2.51,.58,2.45,1,4.94,1.75,7.35,1.22,3.92,3.57,7.83,7.58,9.35,.66,.25,1.46,.14,2.06-.25,.35-.23,.92-.94,.24-1.2-5.2-1.97-6.91-7.74-7.99-12.66-.32-1.45-.6-2.92-.99-4.36-.33-1.2-.92-2.09-2.19-2.37-2.74-.61-4.83,1.38-6.15,3.51-.36,.59,.32,.88,.8,.92,.63,.04,1.55-.23,1.91-.81h0Z"></path><path class="cls-6" d="M406.78,126.93c.24,2.04,.71,4.12,1.9,5.84,1.12,1.61,2.73,2.63,4.65,3,.66,.13,1.6-.26,1.89-.88,.32-.68-.29-1.08-.88-1.19-.03,0-.26-.06-.12-.02s-.19-.06-.19-.05c-.17-.05-.34-.12-.51-.19-.05-.02-.25-.12-.1-.05-.09-.05-.18-.1-.26-.15-.16-.09-.31-.19-.46-.3-.58-.43-1.06-.97-1.5-1.64-.98-1.52-1.32-3.38-1.52-5.15-.03-.27-.38-.49-.61-.57-.33-.12-.77-.11-1.1-.01-.63,.19-1.27,.63-1.19,1.36h0Z"></path><path class="cls-6" d="M410.63,128.24c.06,.97,.34,1.92,.83,2.76,.12,.21,.23,.43,.41,.59,.17,.15,.37,.29,.59,.36,.53,.19,1.1,.16,1.64,.01,.37-.1,.75-.26,1.05-.52,.21-.18,.28-.3,.39-.53,.1-.21-.13-.41-.29-.49-.27-.13-.67-.12-.95-.08-.38,.06-.77,.16-1.1,.37-.25,.16-.43,.32-.56,.59l-.02,.03,.1-.2s-.04,.05-.06,.08l.19-.2c.2-.17,.44-.27,.71-.31,.25-.13,.52-.19,.79-.18,.03,0,.38,.05,.19,0l.26,.08c-.1-.03-.19-.08-.28-.13l.19,.12c-.17-.12-.3-.26-.4-.44l.1,.17c-.52-.87-.82-1.85-.88-2.86-.01-.22-.4-.34-.55-.37-.34-.07-.75-.02-1.08,.08s-.71,.23-.97,.47c-.18,.17-.31,.33-.3,.59h0Z"></path><path class="cls-6" d="M395.16,117.61c-.55-1.37-1.94-2.18-3.35-2.39-2.11-.31-4.26,.33-6.2,1.12-.2,.08-1.25,.47-.86,.83,.16,.15,.56,.11,.74,.09,.38-.03,.78-.11,1.13-.25s.69-.28,1.05-.4c.09-.03,.18-.06,.27-.09-.16,.05-.15,.05,.02,0,.06-.01,.61-.15,.29-.08,.5-.11,.92-.15,1.51-.03,1.09,.24,2.09,.92,2.51,1.98,.18,.44,1.26,.16,1.57,.07,.21-.06,1.49-.43,1.33-.84h0Z"></path><path class="cls-6" d="M398.18,113.97c-.9-1.76-2.45-3.15-4.26-3.92-2.13-.91-4.4-.91-6.63-.38-.26,.06-1.42,.36-1.35,.77,.07,.38,1.41,.03,1.55,0-.31,.07,0,0,.06,0,.15-.03-.16,.01,.09-.01s.2-.03,.47-.03c.4,0,.79,.02,1.18,.08,.83,.13,1.62,.39,2.36,.76,1.55,.77,2.84,1.98,3.63,3.53,.33,.64,3.08-.41,2.9-.78h0Z"></path><path class="cls-6" d="M402.51,114.44c2.61-2.61,6.02-3.78,9.69-3.28,4.08,.56,7.14,2.93,9.68,6.05,1.31,1.61,2.51,3.31,3.86,4.89s2.91,3.1,4.44,4.57c2.95,2.83,7.12,5.99,7.35,10.44,.27,5.36-4.5,8.93-8.39,11.7-.55,.39,.49,.43,.67,.42,.67-.05,1.39-.28,1.94-.68,3.77-2.69,8-5.86,8.62-10.8,.64-5.03-3.88-8.63-7.13-11.73-1.99-1.9-3.96-3.83-5.68-5.99-1.39-1.75-2.69-3.59-4.22-5.23-2.89-3.11-6.65-4.83-10.91-4.87-4.52-.04-9.31,1.55-12.55,4.78-.45,.45,.4,.44,.67,.42,.58-.04,1.5-.24,1.94-.68h0Z"></path><path class="cls-6" d="M394.14,113.64c-1.56-.99-3.18-1.95-5.04-2.23s-3.63,.14-5.25,.89c-3.34,1.57-5.4,4.65-7.33,7.66-.39,.61,.35,1.13,.88,1.2,.75,.09,1.49-.25,1.89-.88,1.43-2.24,2.98-4.78,5.4-6.08,1.01-.54,2.12-.88,3.28-.73,1.45,.19,2.73,1.06,3.93,1.82,.62,.39,1.51,.24,2.08-.18,.47-.35,.78-1.08,.16-1.47h0Z"></path><path class="cls-6" d="M407.5,113.51c-2.1,.92-3.84,2.33-5.13,4.23-.25,.37,.72,.37,.81,.36,.58-.03,1.25-.21,1.74-.55,2.04-1.41,4.21-2.58,6.52-3.47,.21-.08,1.04-.38,.94-.75s-.96-.21-1.19-.18c-3.32,.44-6.47,1.56-9.35,3.26,.81,0,1.62-.02,2.43-.03,1.7-1.94,3.94-3.15,6.57-2.84,2.48,.3,4.69,1.63,6.3,3.51,.39,.46,2.98-.21,2.81-.89-.78-3.06-5.36-2.6-7.68-2.22-3.62,.61-7.02,2.19-9.75,4.64-.5,.45,.44,.53,.7,.52,.68-.03,1.41-.28,1.94-.7,2.78-2.22,6.22-3.02,9.71-2.36l.34-.79c-3.22,1.79-6.45,3.59-9.67,5.38-.37,.21-.86,.5-.34,.79,.47,.27,1.61-.14,2.03-.36,3.35-1.75,6.7-3.5,10.04-5.24,1.09-.57,.29-.94-.58-.78-4.33,.8-8.52,2.16-12.49,4.09-1.14,.55-.25,.9,.58,.78,3.59-.5,7.07-1.58,10.32-3.19l-1.68-.44c-2.75,1.42-5.32,3.08-7.75,5-.16,.13-.16,.27-.05,.41,1.41,1.69,4.59,.09,6.11-.62,2.66-1.24,5.26-2.62,7.79-4.11l-2.23-.13c-3.33,2.12-6.66,4.24-9.99,6.37-.37,.23-.43,.44-.07,.64,.42,.24,1.29-.09,1.7-.22,4.09-1.33,7.85-3.41,11.16-6.15,.47-.39-.3-.51-.54-.52-.6-.02-1.41,.18-1.89,.55-3.53,2.65-7.11,5.41-9.2,9.4-.36,.68,2.31-.01,2.55-.18,3.85-2.75,7.7-5.5,11.54-8.25-.81,0-1.62,.02-2.43,.03-1.61,1.62-3.21,3.24-4.82,4.86-1.08,1.09-2.99,2.47-2.61,4.22,.16,.71,2.24-.12,2.56-.32,2.3-1.48,4.37-3.25,6.18-5.31l-2.75,.34c-.66,1.27-1.32,2.54-1.98,3.81-.36,.69,2.1,.05,2.27-.03,2.77-1.31,4.49-4.4,3.34-7.4-.94,.3-1.87,.59-2.81,.89,.99,1.27,1.97,2.53,2.96,3.8,.59,.76,2.82,2.84,1.97,3.95,.89-.2,1.79-.4,2.68-.6-2.63-2.88-4.63-6.22-5.96-9.88l-2.64,.97c3.05,.72,4.1,3.95,5.27,6.47,1.23,2.65,3.14,4.77,5.27,6.74s5.33,3.91,3.62,7.18c-1.44,2.75-4.31,5.13-6.72,7.01-1.13,.88,1.21,.59,1.62,.42,4.14-1.72,5.8-5.54,7.07-9.58l-1.69,.81c-.46-.05-.46,.03,0,.23,.2,.18,.34,.41,.41,.67,.21,.64-.05,1.36-.28,1.95-.33,.84-.76,1.66-1.27,2.41-1.15,1.73-2.7,3.11-4.51,4.13-.49,.28-.34,.5,.06,.66,.51,.21,1.46-.17,1.9-.38,4.27-1.98,7.28-5.88,7.83-10.59-.97,.26-1.93,.52-2.9,.78,2.18,4.8-2.36,8.58-5.85,11.01-.49,.34-.33,.58,.18,.68,.62,.11,1.54-.21,2.05-.55,4.12-2.71,6.45-7.56,5.44-12.47-.49-2.4-1.74-4.46-3.43-6.2-1.8-1.86-3.92-3.43-5.04-5.83-.94,.3-1.87,.59-2.81,.89,3.63,2.4,6.54,5.78,8.25,9.8,.45,1.05,.86,2.19,.72,3.35s-.84,2.07-1.59,2.93c-1.72,1.99-3.46,3.96-5.19,5.95l2.75-.34c2.29-5.28,4.77-11.6,1.51-17.04-.37-.62-3.04,.04-2.9,.78,1,5.22-.87,10.67-4.9,14.15-.45,.39,.29,.51,.54,.52,.59,.02,1.41-.18,1.89-.55,4.62-3.53,6.62-9.84,4.42-15.31-.3-.74-2.64,.1-2.88,.64-2.05,4.53-4.1,9.06-6.15,13.6l2.86-.49c1.78-5.16,2.94-10.49,3.5-15.92l-2.9,.78c-.51,5.38-2.49,10.5-5.67,14.86,.95-.16,1.91-.33,2.86-.49,1.47-5.89,2.91-11.82,3.22-17.91,.03-.56-2.7,.03-2.88,.64-1.51,5.03-3.01,10.07-4.52,15.1l2.88-.64c.54-4.75,1.09-9.5,1.63-14.25,.05-.42-2.79-.12-2.9,.78-.48,3.88-.96,7.76-1.44,11.63,.97-.26,1.93-.52,2.9-.78-.14-3.4-.66-6.76-1.56-10.04-.19-.68-3.07,.08-2.9,.78,1.3,5.17,1.47,10.52,.45,15.76-.15,.78,2.58,.11,2.86-.49,.82-1.74,1.78-3.4,2.88-4.99-.95,.16-1.91,.33-2.86,.49-1.23,1.98-2.24,4.07-3.02,6.27-.28,.79,2.46-.06,2.75-.34,1.1-1.09,2.38-1.98,3.88-2.43l-1.44-.39c-1.71,1.75-3.42,3.51-5.13,5.26-.4,.41,.24,.51,.54,.52,.65,.02,1.34-.22,1.89-.55,1.99-1.18,4.1-2.14,6.32-2.81l-1.56-.23c-.33,.77-.77,1.44-1.45,1.95s-.11,.73,.49,.67c1.2-.12,2.4-.23,3.59-.35l-.81-.36c-.47,.63-.93,1.26-1.4,1.89-.34,.46,1.15,.32,1.17,.32,.87-.11,1.74-.23,2.6-.34l.52-1.13c-1.96,.42-3.68,1.15-5.26,2.39-.39,.3,.12,.51,.38,.52,1.99,.05,4.03-.62,5.22-2.28,.19-.27-.38-.36-.5-.37-2.16-.08-4.27-.37-6.36-.89l.13,.48c.41-.38,.84-.73,1.36-.95-.61-.09-1.22-.18-1.82-.26-.35,.36-.22,.34,.41-.05-.23-.07-.44-.17-.63-.32-.36-.28-.57-.67-.7-1.1-.29-.96-.04-1.9,.4-2.77,.22-.45-.85-.35-.99-.34-.58,.06-1.33,.26-1.76,.68-1.63,1.61-3.32,3.14-5.08,4.6,.92-.11,1.83-.23,2.75-.34,1.68-3.09,3.37-6.19,5.05-9.28l-2.86,.49c-1.36,3.2-2.95,6.28-4.76,9.25,.96-.21,1.92-.42,2.88-.64-.42-1.59-.42-3.12,.04-4.71-.96,.21-1.92,.42-2.88,.64-.06,2.01-.12,4.02-.18,6.03-.01,.49,2.87,.1,2.9-.78,.06-2.01,.12-4.02,.18-6.03,.02-.57-2.7,.03-2.88,.64-.48,1.66-.52,3.31-.08,4.99,.21,.8,2.61-.2,2.88-.64,1.81-2.97,3.4-6.05,4.76-9.25,.24-.57-2.5-.17-2.86,.49-1.68,3.09-3.37,6.19-5.05,9.28-.24,.44,.87,.35,.99,.34,.62-.06,1.27-.28,1.76-.68,1.76-1.46,3.45-2.99,5.08-4.6-.92,.11-1.83,.23-2.75,.34-.8,1.6-.87,3.91,1.05,4.71,1.53,.64,3.9,.13,4.97-1.15,.66-.8-1.58-.37-1.82-.26-1.11,.47-2.09,1.03-2.97,1.85-.21,.2-.15,.42,.13,.48,2.26,.56,4.54,.88,6.87,.96l-.5-.37c-.15,.2-.31,.38-.49,.56l.38,.52c.62-.49,1.33-.91,2.11-1.08,.33-.07,1.68-.33,1.69-.81,.01-.52-.84-.36-1.17-.32-.87,.11-1.74,.23-2.6,.34l1.17,.32c.47-.63,.93-1.26,1.4-1.89,.27-.36-.73-.37-.81-.36-1.2,.12-2.4,.23-3.59,.35l.49,.67c.93-.7,1.62-1.49,2.08-2.57,.25-.59-1.43-.27-1.56-.23-2.91,.88-5.67,2.08-8.29,3.64l2.43-.03c1.71-1.75,3.42-3.51,5.13-5.26,.67-.69-1.23-.45-1.44-.39-2.36,.7-4.5,1.83-6.25,3.57l2.75-.34c.78-2.2,1.79-4.28,3.02-6.27,.29-.47-1.04-.34-1.17-.32-.58,.09-1.34,.3-1.69,.81-1.1,1.59-2.05,3.24-2.88,4.99l2.86-.49c1.04-5.33,.91-10.77-.42-16.04-.97,.26-1.93,.52-2.9,.78,.9,3.29,1.42,6.64,1.56,10.04,.02,.6,2.8,0,2.9-.78,.48-3.88,.96-7.76,1.44-11.63l-2.9,.78c-.54,4.75-1.09,9.5-1.63,14.25-.06,.49,2.69,.01,2.88-.64,1.51-5.03,3.01-10.07,4.52-15.1-.96,.21-1.92,.42-2.88,.64-.31,5.99-1.74,11.82-3.18,17.63-.21,.84,2.54-.05,2.86-.49,3.25-4.46,5.18-9.65,5.71-15.14,.04-.43-2.81-.12-2.9,.78-.54,5.33-1.71,10.57-3.46,15.64-.22,.62,2.55,.2,2.86-.49,2.05-4.53,4.1-9.06,6.15-13.6-.96,.21-1.92,.42-2.88,.64,1.99,4.94,.55,11.12-3.75,14.4l2.43-.03c4.19-3.61,6.2-9.3,5.16-14.74-.97,.26-1.93,.52-2.9,.78,3.22,5.38,.79,11.53-1.47,16.76-.3,.69,2.43,.02,2.75-.34,1.81-2.08,3.67-4.13,5.44-6.24,1.64-1.95,1.99-3.8,1.04-6.19-1.69-4.25-4.78-7.89-8.58-10.4-.43-.28-3.12,.23-2.81,.89,.94,2.01,2.54,3.49,4.12,4.99,1.78,1.7,3.3,3.49,4.05,5.88,1.48,4.74-.31,9.98-4.47,12.72l2.23,.13c3.71-2.59,8.86-6.75,6.51-11.92-.33-.73-2.81,.07-2.9,.78-.47,3.98-2.95,7.68-6.62,9.37l1.96,.28c2.4-1.35,4.42-3.33,5.74-5.75,.58-1.06,1.47-2.71,.87-3.93-.52-1.07-1.65-1.11-2.68-.97-.43,.06-1.53,.31-1.69,.81-.91,2.88-2.15,7.09-5.23,8.37l1.62,.42c2.56-2,5.29-4.31,7.04-7.09,.77-1.23,1.25-2.74,.57-4.11s-2.02-2.3-3.1-3.28c-2.52-2.28-4.78-4.6-6.19-7.74-1.21-2.69-2.45-5.71-5.62-6.45-.4-.09-2.9,.23-2.64,.97,1.36,3.75,3.44,7.16,6.13,10.11,.45,.5,2.33-.14,2.68-.6,1.01-1.31-.15-2.55-.99-3.62-1.28-1.65-2.57-3.29-3.85-4.94-.38-.48-3.04,.29-2.81,.89,.83,2.18,.11,5.13-2.13,6.19,.76,0,1.52-.02,2.27-.03,.66-1.27,1.32-2.54,1.98-3.81,.31-.61-2.41-.05-2.75,.34-1.69,1.94-3.61,3.6-5.77,5l2.56-.32c-.37-1.69,1.99-3.28,3.03-4.33,1.38-1.39,2.75-2.78,4.13-4.17,.41-.41-.24-.51-.54-.52-.61-.02-1.4,.19-1.89,.55-3.85,2.75-7.7,5.5-11.54,8.25,.85-.06,1.7-.12,2.55-.18,1.95-3.72,5.28-6.3,8.57-8.78l-2.43,.03c-2.84,2.35-6.05,4.11-9.55,5.25l1.62,.42c3.33-2.12,6.66-4.24,9.99-6.37,.51-.33,.31-.59-.18-.68-.65-.12-1.5,.23-2.05,.55-1.56,.92-3.15,1.78-4.76,2.6-.75,.38-1.51,.75-2.27,1.1s-1.29,.89-1.91,.15l-.05,.41c2.12-1.68,4.4-3.14,6.8-4.38,.38-.2,.86-.5,.34-.79-.48-.27-1.6,.15-2.03,.36-2.57,1.28-5.27,2.1-8.12,2.5l.58,.78c3.27-1.59,6.7-2.73,10.28-3.39l-.58-.78c-3.35,1.75-6.7,3.5-10.04,5.24l1.68,.44c3.22-1.79,6.45-3.59,9.67-5.38,.19-.11,1.04-.66,.34-.79-5.16-.97-10.61,.44-14.71,3.71l2.63-.19c1.86-1.67,4.11-2.91,6.6-3.33,1.81-.3,4.73-.39,5.3,1.86l2.81-.89c-4.68-5.45-13.66-4.7-18.23,.52-.37,.43,.21,.51,.54,.52,.65,.02,1.34-.22,1.89-.55,2.05-1.21,4.24-1.94,6.6-2.26l-.25-.92c-2.73,1.05-5.32,2.4-7.74,4.06l2.55-.18c1-1.47,2.32-2.59,3.95-3.3,.4-.17,.84-.51,.34-.79s-1.58,.16-2.03,.36h0Z"></path><path class="cls-6" d="M416.13,157.92c2.25,.93,4.72,1.03,7.09,.54,2.49-.51,4.94-1.57,6.76-3.38-.91,.14-1.82,.28-2.73,.41-.99,1.27-2.25,2.34-3.71,3.04-1.29,.62-2.48,.81-4,.72-.57-.03-1.26,.18-1.77,.41-.15,.07-.85,.38-.55,.61,2.68,2.05,6.52,1.58,9.33,.07l-2.4,.14c-1.52,1.6-3.49,2.05-5.51,2.47-.13,.03-2.15,.66-1.66,.95,2.84,1.67,6.34,1.37,9.28,.12-.71,0-1.42,0-2.12,0-1.47,1.25-3.01,1.89-4.91,1.83-.58-.02-1.25,.17-1.77,.41-.11,.05-.89,.43-.55,.61,.86,.45,1.77,.73,2.73,.86,.66,.09,1.42-.12,2.02-.39,.2-.09,1.03-.58,.38-.67-.85-.11-1.63-.36-2.38-.76-.77,.34-1.55,.68-2.32,1.02,3.33,.1,6.88-1.03,9.42-3.2,.35-.3-.08-.4-.35-.41-.6,0-1.22,.18-1.77,.41-1.48,.63-3.53,0-4.9-.8l-1.66,.95c3.03-.63,6.46-1.37,8.68-3.7,.37-.39-.2-.41-.51-.4-.65,.03-1.32,.23-1.89,.54-.13,.07-.23,.11-.36,.16,.16-.06-.02,0-.08,.02-.43,.06-.87,.03-1.3-.04-.98-.16-1.87-.57-2.65-1.17l-2.32,1.02c4.61,.26,9.6-1.73,12.46-5.4,.27-.35-.92-.23-.96-.23-.54,.08-1.36,.24-1.77,.64-.6,.6-1.27,1.13-2.02,1.54-.32,.18-.67,.33-.98,.44-.22,.08-.53,.16-.75,.2-1.55,.29-3.26,.04-4.75-.58-.55-.23-1.33,.02-1.85,.21-.11,.04-1.29,.58-.89,.74h0Z"></path><path class="cls-6" d="M433.31,151.32c.62,1.58-.28,3.22-1.52,4.21-1.44,1.15-3.17,1.84-4.53,3.1-.8,.74,.28,.95,.92,.87,2.58-.32,5.07-1.33,7.09-2.97-.86,.07-1.73,.15-2.59,.22,.55,1.28-.7,2.33-1.61,3.04-1.03,.81-2.15,1.48-3.35,2-.28,.12-1.02,.45-.9,.89s.92,.37,1.23,.32c1.8-.34,3.6-.59,5.42-.76l-.92-.87c-.97,.86-2.03,1.44-3.3,1.72-.38,.08-1.41,.47-1.28,1.01s1.3,.31,1.62,.24c1.93-.42,3.77-1.32,5.25-2.63,.84-.74-.31-.93-.92-.87-1.82,.17-3.63,.43-5.42,.76l.32,1.21c1.68-.73,3.28-1.65,4.71-2.8,1.13-.91,2.74-2.41,2.05-4.02-.35-.82-2.13-.16-2.59,.22-1.28,1.03-2.72,1.69-4.36,1.89l.92,.87c1.49-1.39,3.48-2.08,4.96-3.48,1.31-1.24,2.42-3.11,1.7-4.94-.35-.9-3.21-.02-2.9,.78h0Z"></path><path class="cls-1" d="M382.5,218.47c11.87-14.64,22.83-29.67,32.8-44.99-3.68,2.89-8.72,4.57-13.29,4.44-4.57-.13-8.57-2.08-10.54-5.12-.54,2.42-4.74,18.15-5.25,22.06-1.03,7.86-3.03,15.78-3.73,23.62Z"></path><path class="cls-2" d="M393.7,179.77c-.11,1.98,0,3.95,.37,5.9l.48-1.07c-1.85,1.22-4.06,2.59-5.42,4.37-1.23,1.61-1.07,4.05-1.35,5.96-.72,5.01-1.8,9.95-3.18,14.82-.38,1.35,2.2,1.02,2.69,.35,4.33-6,8.66-12,12.99-18,.64-.89,2.1-2.27,1.55-3.49-.46-1.02-2.1-1.05-1.48-2.37s2.1-2.06,3.21-2.88,2.15-1.74,2.67-3.03c.34-.83-.53-1.36-1.27-1.27-2.92,.35-5.81,.26-8.68-.41-1.46-.34-2.9,1.72-.99,2.16,3.09,.72,6.28,.81,9.43,.43l-1.27-1.27c-.53,1.3-1.87,2.04-2.96,2.82s-2.19,1.71-2.84,2.93c-.49,.92-.65,2.04,.05,2.89,.22,.27,1.23,.7,1.3,.97s-1.29,1.81-1.45,2.03c-4.23,5.86-8.46,11.73-12.69,17.59,.9,.12,1.79,.23,2.69,.35,1.24-4.4,2.25-8.87,2.96-13.39,.18-1.11,.33-2.22,.47-3.34,.12-.94,.05-2.14,.59-2.95s1.5-1.42,2.25-2c.86-.67,1.76-1.29,2.67-1.89,.35-.23,.56-.66,.48-1.07-.33-1.77-.43-3.53-.33-5.32,.09-1.53-2.86-1.14-2.94,.21h0Z"></path><path class="cls-2" d="M406.29,236.15c2.09,5.7,4.92,11.08,8.45,16.03,.86,1.21,1.76,2.39,2.7,3.53,.82,1,1.81,2.63,3.01,3.17,1.07,.48,2.67,.01,3.46-.8,1.08-1.1,1.9-2.67,2.79-3.93,.11-.16,.19-.3,.03-.46-5.98-5.91-10.79-12.86-14.21-20.53-.33-.75-2.14-.06-2.58,.27-1.09,.83-2.17,1.65-3.26,2.48-.49,.37-.31,.66,.21,.78,.61,.14,1.56-.18,2.05-.55,1.09-.83,2.17-1.65,3.26-2.48l-2.58,.27c3.46,7.76,8.35,14.82,14.4,20.8l.03-.46c-.47,.67-.95,1.35-1.42,2.02-.42,.59-.84,1.49-1.42,1.93l1.37-.52-.36,.05,.93,.02c-.99-.34-1.81-1.68-2.46-2.45-.73-.86-1.43-1.75-2.11-2.65-1.33-1.76-2.57-3.59-3.72-5.47-2.28-3.75-4.17-7.71-5.67-11.82-.29-.8-3.16,.06-2.9,.78h0Z"></path><path class="cls-2" d="M367.62,237.75c-5.12,5.17-8.54,11.89-9.67,19.08-.03,.22,.06,.33,.27,.41,1.17,.45,2.59,1.29,3.84,1.36s2.45-.47,2.76-1.73c.64-2.58,1.57-5.04,2.79-7.39s2.74-4.67,4.35-6.84c.46-.62,1.97-1.95,1.63-2.82-.19-.49-.96-.8-1.37-1.07-.65-.44-1.31-.87-1.96-1.31-.52-.35-1.35-.14-1.89,.07-.19,.08-1.32,.65-.82,.98,.93,.62,1.86,1.22,2.78,1.85,.51,.35,.26,.7-.08,1.14-.28,.37-.56,.73-.84,1.1-1.15,1.54-2.24,3.13-3.23,4.77s-1.88,3.31-2.62,5.06c-.36,.84-.68,1.7-.97,2.58-.16,.49-.31,.99-.44,1.49-.11,.41-.14,1.13-.43,1.45l1.57-.7-.24,.03,.94,.03c-1.16-.35-2.3-.86-3.43-1.3l.27,.41c1.12-7.08,4.41-13.64,9.45-18.73,.48-.49-.42-.65-.73-.65-.66,0-1.45,.26-1.93,.74h0Z"></path><g class="cls-4"><path class="cls-1" d="M431.69,176.27c2.14,12.64,2.78,25.54,1.92,38.33-.86,12.78-3.22,25.41-4.57,38.15-.19,1.82-.36,3.68,.14,5.44s1.81,3.4,3.6,3.76c1.98,.4,3.98-.89,5.05-2.6,1.07-1.71,1.39-3.77,1.65-5.76,1.95-14.52,2.31-29.2,2.67-43.85,.23-9.38,.42-19.02-2.8-27.83-1.54-4.22-4.49-8.61-8.96-9.12-1.52,3.99-1,8.43-.58,12.68,1.8,18.2,1.36,36.63-1.33,54.72-.75,5.03-1.67,10.12-1.07,15.16,.14,1.18,.39,2.41,1.17,3.31,1.57,1.81,4.69,1.38,6.42-.28s2.41-4.11,2.91-6.46c2.77-12.86,2.6-26.14,2.42-39.29-.08-5.53-.15-11.06-.23-16.59-.04-3.11-.09-6.24-.75-9.28-1.02-4.65-3.52-8.97-7.06-12.16"></path><g><path class="cls-1" d="M430.94,176.67c-.33-.36-.48,.07-.58,.08,.64,.47,.65-.17,.58-.08Z"></path><path class="cls-1" d="M436.43,182.72l-.22-.06c.3,.31,.59,.63,.88,.96-.21-.31-.43-.61-.66-.9Z"></path><path class="cls-1" d="M438.38,190.27c.65-.85-.45-2.86-.6-4.22l.09-.27c-.24-.15-.48-.3-.73-.44,.61,1.54,1.33,3.67,1.23,4.92Z"></path><path class="cls-1" d="M437.05,194.62c.27-.27,.26,.93,.06-1.01-.03,.1-.04,.13-.07,.18,0,.18,.01,.41,0,.83Z"></path><path class="cls-1" d="M437.05,193.8c-.04-.85-.22,.56,0,0h0Z"></path><path class="cls-1" d="M437.27,197.81l-.26-1.15c-.16,.24-.18,1.27-.31,.89,.15,1.19,.31,.94,.57,.26Z"></path><path class="cls-1" d="M437.81,198.9l-.11-.6c-.07,.11-.09,.26,.11,.6Z"></path><path class="cls-1" d="M437.46,197.03l.24,1.27c.11-.17,.34-.19-.09-.58,.21,.1,0-.15-.15-.69Z"></path><path class="cls-1" d="M437.56,196.31c.15-.65,.23-1.49,.5-.33-.13-2.19-.63-1.86-.5,.33Z"></path><path class="cls-1" d="M439.15,190.61l.13-.87-.33-.7c.17,.35-.01,1.64,.2,1.57Z"></path><path class="cls-1" d="M437,205.02c.15,.07,.4-.39,.59-.48l-.19-.85c-.1,.44-.18,1.27-.41,1.34Z"></path><path class="cls-1" d="M437.59,204.54l.28,1.27c.02-1.14-.11-1.35-.28-1.27Z"></path><polygon class="cls-1" points="438.6 199.1 438.03 197 438.62 199.5 438.6 199.1"></polygon><polygon class="cls-1" points="437.05 209.91 436.69 209.19 437.24 210.47 437.05 209.91"></polygon><path class="cls-1" d="M437.16,213.14c-.3-.53-.48,.74-.67,.18,.06,.88,.32,1.63,.56,2.3-.13-.71-.11-1.48,.11-2.47Z"></path><path class="cls-1" d="M437.38,216.74c-.07-.36-.2-.73-.34-1.13,.07,.38,.17,.75,.34,1.13Z"></path><path class="cls-1" d="M437.83,207.99c-.09,.1-.33,.29-.42,1.01l.42-.51c0-.15,0-.33,0-.5Z"></path><path class="cls-1" d="M437.84,208.48v.02c-.02,.55-.02,.92-.02,1.09,0-.14,0-.47,.02-1.1Z"></path><path class="cls-1" d="M437.83,207.87v.13s.06-.08,0-.13Z"></path><path class="cls-1" d="M438.26,202.45c.25,.75,.53,2.31,.87,.79-.3-.53-.5,.34-.87-.79Z"></path><path class="cls-1" d="M438.35,207.23l.08-1.36c-.11,.03-.27,.28-.4-.09l.32,1.45Z"></path><polygon class="cls-1" points="438.5 207.9 438.35 207.23 438.32 207.74 438.5 207.9"></polygon><path class="cls-1" d="M437.75,214.42c.19,.58,.22,1.22,.26,1.95,.08-.78,.11-1.58,.1-2.34-.14-.11-.38-.44-.35,.39Z"></path><path class="cls-1" d="M437.84,211.53s.02,.09,.03,.13c.03-.08,.05-.15-.03-.13Z"></path><polygon class="cls-1" points="438.04 223.47 438.12 223.35 438.05 223.32 438.04 223.47"></polygon><path class="cls-1" d="M438.19,213.89c.07-.58-.03-.93-.17-1.26,.05,.44,.08,.9,.09,1.39,.06,.05,.1,.06,.08-.13Z"></path><path class="cls-1" d="M437.6,218.72c.09-.3,.16-.65,.23-1.01-.13,.3-.34,.9-.23,1.01Z"></path><path class="cls-1" d="M437.75,211.86s-.01-.06-.02-.09c-.09,.19-.04,.17,.02,.09Z"></path><path class="cls-1" d="M437.75,211.86c.07,.3,.17,.53,.27,.77-.04-.35-.09-.68-.16-.97-.03,.07-.07,.15-.12,.2Z"></path><path class="cls-1" d="M440.77,225.64c-.39-.11-.75-1.64-.32-2.97-.3-1.31-1.6-.45-2.33,.68,.17,.04,.33,.04,.56,1.38,.22-.46,.52-2.96,.87-1.83,.2,1.77-.14,1.45-.36,2.31,.5-.73,.69,2.26,1.42,1.89l-.23-1.56c.11-.03,.29,.54,.39,.11Z"></path><path class="cls-1" d="M438.16,220.81l-.05-.55c-.07,.63-.22,1.08-.53,1.9,.19,.91,.34,1.1,.47,1.16l.05-2.7,.06,.19Z"></path><path class="cls-1" d="M438.09,217.79c.43,.42,.63,1.75,1.09,.93-.04-1.62-.37-1.13-.57-2.09,.14,2.61-.25-.75-.47,1.14-.08-.51-.11-.97-.13-1.41-.05,.47-.11,.92-.18,1.35,.01-.02,.02-.04,.03-.06h0s0,0,0,0c.05-.11,.08-.15,.06-.02,0,0,0,.04,0,.05,.06,.02,.11,.06,.16,.12-.08,.75-.11,.12-.16-.12-.02,0-.04-.03-.06-.03h0s.26,2.62,.26,2.62c.06-.55,.04-1.24-.02-2.47Z"></path><path class="cls-1" d="M440.08,204.63c-.04,.08-.07,.08-.1,.08,.05,.17,.09,.23,.1-.08Z"></path><path class="cls-1" d="M439.83,205.71c-.06-.19-.24-.35-.2-.97,.12-.54,.21,0,.35-.03-.12-.37-.33-1.3-.52-.13l.06,.18c-.13,1.06-.65,2.42-.71,2.24,.38-.31,.66-.59,1.03-1.3Z"></path><path class="cls-1" d="M439.08,211.83l.24,2.18,.36-1.12-.22,.06c.07-1.24-.2-.97-.38-1.12Z"></path><polygon class="cls-1" points="437.83 223.71 437.37 223.42 438.01 224.68 437.83 223.71"></polygon><polygon class="cls-1" points="437.86 226.52 437.46 226.41 437.69 227.16 437.86 226.52"></polygon><path class="cls-1" d="M444.63,201.75l.12,.65c-.04-.31-.08-.51-.12-.65Z"></path><path class="cls-1" d="M444.53,197.01l-.2-.11c.12,.21,.2,.3,.2,.11Z"></path><path class="cls-1" d="M432.29,229.57c.46-.9,1.13-1.91,.67-1.83l-.46,.25c.02,.66-.08,1.16-.21,1.58Z"></path><path class="cls-1" d="M429.37,181.74c-.04,.09-.07,.19-.11,.28,.17,.21,.32,.42,.46,.6-.11-.27-.23-.56-.35-.88Z"></path><path class="cls-1" d="M427.53,181.18l.23-1.3c-.08,.29-.17,.71-.23,1.3Z"></path><path class="cls-1" d="M444.45,227.22l.41,.77c.05-1.18-.2-.67-.41-.77Z"></path><path class="cls-1" d="M434.75,254.43c-.37,.5-.65,.89-.9,1.23,.56-.41,1.17-.9,.9-1.23Z"></path><path class="cls-1" d="M440,199.99c.09,.38,.18,.55,.27,.53-.08-.4-.17-.62-.27-.53Z"></path><path class="cls-1" d="M432.94,256.67c.09,0,.15-.03,.22-.05,.21-.3,.42-.6,.68-.97-.41,.29-.84,.61-.9,1.02Z"></path><path class="cls-1" d="M431.34,210.6c.02-.06,.04-.14,.06-.2-.06-.02-.07,.07-.06,.2Z"></path><path class="cls-1" d="M434.69,183.75c.06,.26,.11,.69,.16,1.1,0-.2-.04-.53-.16-1.1Z"></path><path class="cls-1" d="M437.17,237.74c.02-.59-.04-.1,0,0h0Z"></path><path class="cls-1" d="M439.09,234.98c.04,.13,.1,.23,.19,.25-.1-.06-.16-.14-.19-.25Z"></path><path class="cls-1" d="M428.89,259.07s-.02-.02-.04-.03c.09,.18,.08,.15,.04,.03Z"></path><path class="cls-1" d="M437.44,236.87c-.07,.22-.13,.47-.19,.74,.04-.12,.11-.34,.19-.74Z"></path><path class="cls-1" d="M437.23,236.97c.03-.2,.05-.36,.08-.51-.07-.08-.12-.02-.08,.51Z"></path><path class="cls-1" d="M437.13,238.56c.02-.34,.07-.65,.12-.95-.04,.11-.07,.16-.08,.13,0,.17-.02,.42-.04,.82Z"></path><path class="cls-1" d="M428.58,260.17s-.03-.1-.04-.16c-.49-.58-.33-.3,.04,.16Z"></path><path class="cls-1" d="M428.78,213.66s.01,.04,.02,.07c0-.03,.01-.06,.02-.09l-.04,.02Z"></path><path class="cls-1" d="M428.51,211.51c.53,.92,.45,1.44,.31,2.13l1.27-.68-1.58-1.45Z"></path><path class="cls-1" d="M444.57,212.94l.43-1.51c.6,1.85,.34,3.17,.92,1.76-1.35-.25,0-5.9-1.35-6.15l.3-1c-.02,.29,.06,.34,.04,.62,.68-1.95-.95-1.47-.75-4,.1-.88,.29-1.51,.46-.9l-.36-1.98c.01-.58,.25-.44,.24,.13-.05-1.01-.13-2.02-.22-3.03l.04,.02c-.24-.42-.62-1.38-.8-1.85,.13-.78,.18,.37,.33,.17l-.47-1.65c.28-.72,.76,.64,.8,1.81,1.21-1.69-.4-1.36-.07-4.87,.13,.53,.27,1.06,.38,1.59,.64-1.14,.19-2.37,.33-4.3-.14,.51-.59,3.87-1.21,2.07,0-.53-.04-1.23-.51-2.16,.46-.1,.18-1.05-.16-2.25l.64-.07c-.5-1.27-.81-1.08-1.3-1.76-.36-1.45-.03-1.9,.26-2.38-.37-1.19-.42-.72-.49-.28-.11,.42-.2,.81-.79-.55-.57-2-1.47-3.29-3.32-5.08-.89-1.42,.51,0,.27-.58-.45-.31-1.07-.67-1.56-.93-.29-.32-.12-.35-.02-.37-.63-.4-.72-.27-.89-.21-.16,.06-.4,.05-1.26-.42-.28,.21-.9-.4-1.9-1-.5-.27-1.09-.56-1.72-.76-.31-.11-.64-.19-.96-.25-.16-.03-.32-.06-.47-.08-.12,.03-.21,.1-.31,.16-.08,.34-.15,.7-.17,1.05-.32,.42-.17-.72-.4-.81-.42,2.08-.51,2.85-.57,3.63-.02,.76-.04,1.5,.23,3l-.45,2.1c.47-1.42,1.02,.39,1.61,1.86,.2-.5,.38-.91,.46-1.19,.15,.79,.32,1.58,.51,2.36-.08,.3-.32,.08-.62-.29,.07,.16,.13,.31,.19,.43-.15,.88-.57,.47-.98-.12,.1-.31,.21-.61,.32-.9-.43-.57-.89-1.12-1.26-.97,.08,.16,.16,.47,.22,.8-.12-.15-.22-.25-.28-.17-.06,.09,.1,.34,.29,.73l-.66,.62,.29,.11-.14,3.2c.92,2.16,2.16,4.03,2.67,7.59-.58-.86-.86-.14-1.48-.15,.61-1.02-.47-2.74-.47-4.58,0,.97-.31,.78-.43,.54l.83,3.24c-.51-.04-.34,.72-.49,1.59,.97-.71,.81,2.41,1.16,3.74-.33,.1-.69-.21-.68-1.85-.68,1.83,1.29,2.28,.7,4.08-.02-.4,.03-.62-.15-.77,.33,.92,.16,3.21-.15,2.68l-.02-.4c-.04,2.65,.07,8.06,.89,8.48-.11,.02-1.02-.36-1.19-.52,.93,1.59,1.86,3.19,2.75,4.82-.72-.44-2.51,1.1-2.85-1.11-.13,.63-.27,1.4-.06,2.74,.12-.42,1.09-1.03,1.14-.44-.88,1.58-.49,1.11-1.27,3.06,.18-.64,1.31,.14,1.2,1.16-.16-.17-1.13,.02-1.23-.36l.96,2.61c-.16-.65-.94-.17-1.3,.37,.25-.25-.19,2.18-.13,2.86l.34-1.05c-.39,2.84,1.33,2.96,1,5.81-.19-.37-1.33-.99-1.63,.43,.51,.71,2.44,3.23,2.55,5.83l-.39,.44,.1,1.99c-.68-1.34-2.04-4.94-2.55-6.84-.38,1.03-.41,.25-.58,1.85-.38,.52-.35-.92-.32-1.39l-.65,3.67c.69-.08,.27,2.91,.85,2.85-.04-1.37-.07-2.74-.15-4.11,.69-.08,1.6,2.58,1.09,5.2-.37,.63-1.11-.68-1.34-.65,.18,.37,.06,2.56-.14,2.78l-.19-1.18c-.47,1.44,.51,2.53-.36,4.25-.12,.61-1.08,1.79-.69,1.94,.87-.97,3.25-.86,3.75-.15-.1,.2-1.01,3.08-1.37,3.79-.63,1.02-1.39-1.59-1.93-.73,.18,.05,.39,.64,.46,.88-.17,.67-.57-.29-.49,1.19,.67,.23,.08,3,.6,.68,.28,1.43-.09,1.49,.2,3.24,.17-.32,.59,.03,1.08,.55,.5,.54,1.1,1.11,1.6,1.46-.18,.07-.14,.44-.08,.63,1.11,.93,2.36,1.06,3.45,.96,1.1-.12,2.22-.54,3.22-1.57,.32-.04,1.3-1.06,1.19-.41,.14-.43,.18-.86,.54-1.65,.62-.64,.45-.2,.24,.32-.21,.51-.51,1.08,.16,.66-.15-.15,.03-.74,.19-1.45,.17-.71,.32-1.53,.35-2.13-.35,.1-.54,.74-.75,1.51-.2,.77-.44,1.68-.7,2.28-.35-.23-.41-.91-.41-1.8,0-.9,.05-2.04,.16-3.37,.25-2.12,.73-.79,.69-1.18,.93-3.97-.8-3.64,.3-6.86,.7-1.25,1.07,.08,1.49-.16-.05,1.79-.72,2.65-.91,3.83,.17-.47,.34-.94,.49-1.42,.1,.59,.02,1.78-.24,2.39,.34-.51,.66-2.22,.96-4.19,.28-1.97,.54-4.2,.9-5.76-.13-.58-.24-1.56-.49-1.12v1c-.52,.88-.45-1.92-.76-.68-.19-1.36-.57-2.87-.23-4.73l.63-.32c-.18,.03-.42,1.21-.27,1.75-.23-.79,.98-2.84,.2-3.74l-.47,1.3c-.25-1.35-.85-3.02-.62-4.67-.62,.74,.06,.39-.68,1.54,.92-.99-.18,4.23,.8,2.63-.88,1.17-.44,2.07-1.24,3.6,.21-.04,.42-.53,.23,.84,.06,.07,.12,.22,.16,.32,0,.04-.01,.06-.02,.09,.01-.03,.02-.05,.03-.07,.03,.06,.03,.07,.01-.03,.11-.32,.23-.58,.35-.68,.43,.72,.23,2.92,.4,3.69-.18,.81-.2-.36-.46,.06l.24,1.14c-.46,.07-.97,2.08-1.03,.14-.06,.57-.14,1.15-.22,1.72-.37,.98-.66,2.34-.61,3.22-.21,.79,.15,2.1-.07,1.35-.06,.9-.12,1.81-.22,2.71h-.12c-.29,1.31-.37,2.68-.69,3.88-.29,1.19-.94,2.34-1.91,2.63-.23,.36-.77,.84-1.62,.8-.06-.13-.12-.26-.13-.39-.15,.08-.41-.07-.53-.24-.13-.17-.18-.31-.39-.27,.18-.25,.32-.24,.28-.68-.02-.36-.08-1-.17-1.68-.16-1.34-.3-2.83-.16-3.79l-.5-.1c.1-1.34,.07-2.65,.09-4.39l-.46,.05c-.18-1.54,.88-3.79,1.18-6.24,.15,.19,.02,.8-.15,1.22,1.43-2.76,.13-6.21,1.14-8.76-.09-.68,.02-1.15,.18-1.59,0,.06,0,.12,0,.17,.01-.07,.02-.17,.04-.27,.11-.28,.22-.57,.33-.89-.14,.27-.25,.52-.31,.75,.04-.51,.06-1.29,.02-2.05l.51-.28c0-.06,0-.11,0-.18,.25-.73-.17-.62-.57-.25-.04-.39-.1-.74-.2-1.02,.82-.54-.11-2,.79-2.76-.36-.54-.06-3.83-.89-4.27,.11-.02,.18-.24,.16,.17,.14-.84,.27-1.67,.07-2.44l.63-.33-.76-1.87c.41-1.1,.64-1.56,1.08-.44-.63-2.7-.22-2.19-.89-4.48l.39,.12c0-.82-.53-2.12-.2-2.61,.79-1.83,.01-9.01,.4-13.73-1.11,.98,.4-2.21-.53-2.34,.25-.29,.36-.96,.66-.21-.44-2.37,.15-3.63-.76-5.21,.25-.3,.45,.47,.59,.21-.08-.19-.31-.74-.17-1,.14-.26,.26,.33,.42,.69-.28-2.44-1.15-2.56-1.96-2.67,.27-1.25,.17-1.82-.4-2.66,.25-.43,.48-1.12,.65,.32,0-.21,0-.62,.02-1.12,.02-.45,.04-.98,.06-1.48,.03-.66,.05-1.3-.24-1.58,.18-.05,.18-.7,.16-.94,.12-.43,.23-.7,.31-.86,.02-.06,.05-.11,.07-.17,.02-.05,.11,0,.16,0,.11,.02,.23,.04,.35,.07,.23,.06,.5,.11,.85,.24l-.35-.28c.11-.45,.43-.41,.76-.16,.35,.23,.69,.62,1.13,.91l-.05,.06c.84,1.09,.87,1.18,1.17,1.4,.25,.22,.54,.45,1.09,1.96l.32-.4c.52-.14,.78,.58,.96,1.52,.2,.94,.31,2.06,.79,2.92l.04-.75c.7,.9-.42,3.21-.33,4.21-.03,.24-.22-.31-.36-.59,.04,2.74,.72,.17,1.29,2.12-.26,.43-.94-.29-.73,1.04-.09,.36,.38,1.26,.75,2.36,.39,1.09,.7,2.37,.45,3.34,.23-.43,.45-.87,.73,.07,.22,1.47-.74,4.01,.09,5.33-.07,.19-.13,.26-.2,.27,.24,1.13,.37,3.69,.8,4.38-1.66,1.02,.65,7.15-.88,7.09v3.54s-.16-.1-.16-.1c-.16,2.26,.18,3.06,.52,3.87-.12,.52-.25,.13-.33,.09-.41,3.29-.36,3.61,.3,6.41l-.51,.27c.26,.76-.97,4.72-.59,7.97-.05-.03-.15-.11-.2-.37,.39,3.67-1.96,8.54-.3,10.01l.22,2.43c.44-3.07,.74,.54,1.16-.71-.02,1.23-.86,3.09-.8,1.59l.11-.22c-.87-.64-.75,3.8-1.38,3.64-.39,3-.67,6.17-1.99,7.98-.59,.85-1.57,1.47-2.33,1.56-.35,.05-.69,0-1-.13-.28-.12-.6-.36-.88-.68-.09,.26-.17,.54-.21,.82-.35-.32-.65-.73-.88-1.19-.02-.46,.27-.66,.73,.15,.03-.32-.23-.59-.51-.87-.27-.26-.57-.54-.65-.54-.07-1.16,.22-.95,.44-.58,.24,.37,.52,.82,.45,.54-.09-.25-.16-.53-.21-.82l-.06,.21c-.37-.69-.74-.74-.64-2.31,.22-1.01,.49-.48,.55-.88,.05,0,.09-.12,.08-.63l.34-2.48-.68,.93c-.17-1.14,.3-2.34-.49-1.27,1.17-1.57,1.54-9.26,2-10.26-.21-1.61,.02-3.14,.33-5.03-.18,.46-.87,.65-.56-.98,1.25,.78,.98-2.92,2.11-4.13-.78,1.11,.44-4.7-.7-2.95,.27-1.36,.51-.02,.95-1.03-.13-3.33,1.15-7.2,1.25-11.32-.17-.07-.48,.59-.69-.3l1-2.11c-.05-.82-.98-.79-.3-2.24-.16,.2-.39,.5-.43-.04,.57-3.99,.41-8.11,.18-12.21-.24-4.11-.52-8.21-.17-12.36-.22,1.14-.33,.41-.44-.43-.02,.55-.43,.04-.66,.17,.09-1.15,.17-2.31,.24-3.47-.73-.53-.56-3.62-1.25-3.87l.28,1.05c-.94-1.3-1.35,2.22-2.33,2.14,1.06,1.46-.69,4.28,.76,6.72-.14,.59-.36-.45-.55-.13,.48,.61,.63,1.4,.58,2.87l-.12-.16c.42,4.1,.12,5.9-.05,10.52l.47-.35c-.05,1-.2,1.21-.31,1.67,.73,1.13,0-2.79,.81-1.77-.91,1.33,0,7.03-1.14,7.9-.05,1.52,.56-.43,.51,1.1l-.31,.39,.37,.4c-.11,1-.5,1.49-.75,1.51,.04-.24-.04-.69-.05-.95-.4,1.28-.08,3.65-.22,4.09l.27-1.45c.04,4.18-.87,9.21-.77,13.31l.26-.28c.02,3.13-.55,2.43-.81,5.84l-.04-.13c.13,.71,.12,1.63-.03,2.55-.14-.89-.72,1.54-.86,.38-.02,3.4,.12,1.7,.64,4.02l-.44,.46c.23,.8,.39,.89,.26,2.59-.13-1.43-.71,1.01-.91-.61-1.29,3.45,.12,5.39-1.26,6.89,.82,1.76,.95-3.02,1.05-2.08,.43-.72,.59,1.45,.35,2.55-.16,1.14-1.54,1.76-1.82,4.69,.03-.3-.04-.32,0-.62-.36,1.09,.12,2.22-.21,3.78,.34,.42,.4,.91,.5,1.35,.1,.43,.24,.78,.65,.79-.37-.99-.54-2-.61-2.98,.12,.83,.47,1.64,.9,2.51,.45,.89,.94,1.8,1.73,2.99-.28-.04-1-.59-1.39-1.08,.25,.9,1.06,1.32,1.64,2.09-.35,.24-1.28-.45-1.96-1.54-.34-.54-.63-1.17-.87-1.79-.23-.62-.41-1.19-.63-1.66-.11,.5,.2,1.42,.56,2.11,.33,.67,.6,1.09-.04,.79,.84,.49,1.26,1.27,2.02,2.12,.39,.42,.86,.84,1.48,1.14,.62,.3,1.36,.46,2.09,.33-.08,.15-.17,.3-.26,.44,.5,.02,1.5-.19,2.29-.4-.43,.32-.97,.59-1.54,.79,1.33-.24,2.44-.5,3.5-.9,1.04-.41,2.01-1.01,2.59-1.95-.73,.88-1.28,1.23-1.58,1.4-.31,.16-.4,.11-.42,.01-.04-.21,.13-.58-.72-.25,1.02-.82,1.52-1.41,1.97-1.81,.43-.41,.79-.66,1.14-.91,.35-.26,.73-.55,1.1-1.12,.37-.56,.74-1.43,.94-2.68-.04,.68-.97,2.5-.85,1.36,.38-.93,.77-2.11,1.1-2.61,.33-3.02-.54,.38-.65-.93,.71-.92-.05-1.46-.07-2.76l.48,.05c.69-3.28-.89-.99-.19-3.93l.53,1.33v-1.57s.51,.38,.51,.38c-.23-1.74-.07-2.25,.23-3.9-.38,.36-.84-.29-.74-1.76,.37-.98,.41,.6,.51-1.49,.26,.49,.6,1.04,.08,1.91,.15,.11,.26,.49,.41,.6,.42-1.05,.3-2.71,.35-3.47-.04,.29-.09,.64-.17,.81l-.45-3.07c.21-.46,.33-.08,.45,.31,0-.62-.21-1.05-.19-1.96,.38,.26,.78,.23,.89,1.52l-.25-2.91c.18-.18,.55-1.45,.67-1.07,.32-1.59-.56-3.96-.17-6.06-.07-.11-.13-.34-.17-.79,.17-1.98,.71-3.73,.25-6.1l.74-1.31c-.1-1.85-.94,1.78-1.11-1.29-.17-2.18,.62-.79,.84-1.55-.32-1.09-1-2.98-.38-4.96,.12,.66,0,1.18,.04,1.79Zm-.96-23.02c.17,.43,.6,1.3,.36,1.67-.62-.44-.41-.87-.36-1.67Zm-14.87-4.76c-.19-.31-.16-.82-.04-1.41,.08,.41,.11,.88,.04,1.41Zm8.14,59.04s0,.03,.02,.05c-.32,.92-.2,.6-.02-.05Zm.46-1.95c-.04-.21-.11-.2-.19-.12,.1,.15,.06,.6-.04,1.1,.14-.12,.26-.37,.23-.97Zm-6.43,11.2l-.16,.37c-.06-.87,.05-.62,.16-.37Z"></path><path class="cls-1" d="M427.75,181.26c.07-.13,.16-.17,.25-.21-.09-.17-.18-.17-.25,.21Z"></path><path class="cls-1" d="M444.38,227.08v.07s.05,.06,.08,.07l-.08-.14Z"></path><path class="cls-1" d="M425.25,251.28c.08-.44,.17-.68,.27-.84-.12-.03-.23,.17-.27,.84Z"></path><path class="cls-1" d="M437.31,231.62l.07,1.29c0-.62,.12-.84,.21-1.15-.11,.02-.29,.26-.28-.14Z"></path><path class="cls-1" d="M440.46,220.43c-.06-.19,0-.4-.07-.59l-.22,.05c.02,.81,.2,1.38,.29,.54Z"></path><path class="cls-1" d="M438.96,230.49c.41-.09,.3-.91,.24-1.82,0,.05,0,.11,0,.16-.56-.28-.39,.69-.24,1.66Z"></path><path class="cls-1" d="M439.19,228.46c-.01-.28-.02-.57,0-.84-.23-.11-.06,.34,0,.84Z"></path><path class="cls-1" d="M437.34,239.7c.15-.41-.49-.31-.31-.54-.46-.52,.34,2.87,.31,.54Z"></path><polygon class="cls-1" points="440.32 229.8 439.81 230.11 440.19 230.63 440.32 229.8"></polygon><path class="cls-1" d="M439.6,236.97l.23-1.44c-.09,.02-.12-.17-.14-.4-.08,.89-.24,1.87-.09,1.84Z"></path><path class="cls-1" d="M439.69,235.12c.04-.46,.05-.91-.02-1.17,0,.25-.01,.8,.02,1.17Z"></path><polygon class="cls-1" points="440.4 231.79 440.28 232.22 440.19 233.25 440.4 231.79"></polygon><path class="cls-1" d="M437.33,252.4c-.07,.52-.15,1.04-.25,1.55,.12,.2,.35-.18,.43-.77-.02-.4,.04-.98-.17-.78Z"></path><path class="cls-1" d="M439.59,247.93c-.18,.41-.29,.42-.5,.63l.6,.16-.11-.79Z"></path><path class="cls-1" d="M438.85,252.57c.15,.18-.1,2.47,.38,.4-.12-.21,.07-1.82-.38-.4Z"></path><polygon class="cls-1" points="427.08 248.84 427.06 249.24 428.08 249.26 427.08 248.84"></polygon><path class="cls-1" d="M427.26,227.64c-.42,1.83,.58,.5,.12,2.15,.2,.46,.38-1.35,.54-.88-.15-1.15,.05-1.72-.67-1.27Z"></path><path class="cls-1" d="M427.92,228.91c.02,.18,.05,.38,.1,.59-.03-.33-.07-.49-.1-.59Z"></path><polygon class="cls-1" points="434.63 179.22 434.66 177.97 434.44 178.8 434.63 179.22"></polygon><path class="cls-1" d="M433.52,177l.59-.39-.7-.63c.07,.27,.21,.79,.1,1.02Z"></path><path class="cls-1" d="M444.23,186.17l-.18-.06c-.12,.23-.07,.53,.03,1.13l.15-1.07Z"></path><polygon class="cls-1" points="445.27 203.31 445.28 203.02 444.69 203.55 445.27 203.31"></polygon><path class="cls-1" d="M445.71,217.2c.04-.56-.07-1.23-.03-1.8,.07,1.23-.7,1.93,.03,1.8Z"></path></g></g><g><path class="cls-2" d="M337.51,244.96c9.29,15.15,19.36,29.83,30.14,43.97,2.66,3.48,5.63,7.12,9.83,8.36,1.92,.57,3.95,.58,5.95,.55,11.71-.14,23.41-1.35,34.91-3.62,1.33-.26,2.85-.68,3.41-1.92,.4-.88,.17-1.91-.12-2.84-1.35-4.38-3.73-8.36-6.1-12.28-8.87-14.67-17.95-29.22-27.22-43.64-1.83-2.84-4.01-5.93-7.33-6.6-1.56-.31-3.17-.03-4.74,.25-7.92,1.42-15.83,2.85-23.75,4.27-5.08,.91-11.77,1.46-16.49,3.55-.72,.32-1.49,.74-1.72,1.48-.18,.58,.03,1.2,.25,1.77,.62,1.65,1.31,3.28,2.07,4.87"></path><path class="cls-1" d="M336.16,245.53c9.09,14.81,18.91,29.18,29.42,43.02,2.13,2.81,4.29,5.71,7.24,7.72,3.34,2.28,7.1,2.44,11.02,2.37,8.82-.15,17.64-.89,26.36-2.23,2.17-.33,4.34-.7,6.49-1.11,1.74-.33,3.6-.57,5.11-1.58,3.32-2.22,.53-7.05-.78-9.73-1.84-3.78-4.13-7.34-6.32-10.93-2.33-3.84-4.68-7.67-7.04-11.49-4.68-7.57-9.41-15.11-14.19-22.61-2.09-3.29-4.01-6.97-6.69-9.83-2.59-2.77-5.74-3.47-9.42-2.89-8.75,1.39-17.41,3.27-26.15,4.68-3.58,.58-7.18,1.02-10.71,1.86-1.73,.41-3.48,.92-5.1,1.65-1.32,.59-2.79,1.48-2.64,3.13,.09,.99,.62,1.98,1,2.89,.43,1.04,.88,2.06,1.36,3.08s3.3,.08,2.9-.78c-.8-1.71-1.93-3.66-2.28-5.53-.21-1.13,.38-1.45,1.3-1.83,.75-.31,1.53-.56,2.31-.78,3.25-.92,6.6-1.36,9.93-1.86,7.89-1.2,15.73-2.78,23.58-4.19,1.98-.36,4.09-.96,6.11-.93,1.74,.02,3.22,.83,4.47,1.99,2.5,2.33,4.19,5.56,6.01,8.41,4.4,6.88,8.75,13.79,13.06,20.72,4.28,6.9,8.56,13.8,12.71,20.77,2,3.36,4.06,6.93,5.05,10.74,.22,.84,.41,1.93-.29,2.6-.53,.51-1.51,.58-2.18,.71-2,.39-4,.74-6.01,1.06-8.07,1.29-16.23,2.08-24.4,2.32-3.77,.11-7.82,.52-11.22-1.41-2.86-1.62-4.99-4.31-6.96-6.87-9.7-12.62-18.76-25.75-27.24-39.22-1.06-1.68-2.1-3.37-3.14-5.06-.49-.8-3.32,.12-2.69,1.13h0Z"></path></g><g><path class="cls-1" d="M346.93,230.19c1.41,1.68,1.98,4.18,3.91,5.22,1.15,.62,2.53,.57,3.83,.46,4.32-.36,8.61-1.14,12.78-2.32,.57-.16,1.17-.35,1.57-.79,.91-1,.32-2.6-.41-3.73-.93-1.44-2.02-2.78-3.26-3.96-.42-.41-.88-.8-1.43-1-.75-.27-1.59-.14-2.38,0-3.53,.62-7.05,1.24-10.58,1.85-1.17,.2-2.39,.43-3.32,1.16-.93,.73-1.45,2.14-.8,3.14"></path><path class="cls-6" d="M345.6,230.83c1.1,1.38,1.66,3.13,2.88,4.41,1.42,1.51,3.35,1.82,5.35,1.73,4.68-.21,9.55-1.12,14.03-2.48,1.8-.55,3.35-1.71,3.05-3.79-.28-1.93-1.87-3.76-3.13-5.15-1.56-1.73-3.05-2.97-5.5-2.66-2.46,.32-4.9,.85-7.34,1.27-2.37,.42-5.17,.53-7.34,1.66-1.85,.97-3.15,3-2.08,5.01,.61,1.13,3.37,.07,2.65-1.27-.79-1.49,1.1-2.28,2.18-2.51,1.76-.38,3.55-.63,5.32-.94,1.76-.31,3.53-.62,5.29-.93,.81-.14,1.7-.42,2.46,.02,.71,.41,1.3,1.17,1.83,1.77,.99,1.12,2.16,2.44,2.61,3.89,.19,.61,.29,1.23-.3,1.57-.66,.38-1.67,.48-2.41,.66-3.4,.85-6.86,1.44-10.36,1.71-1.75,.14-3.15-.02-4.23-1.52-.86-1.2-1.4-2.58-2.32-3.73-.82-1.02-3.58,.12-2.65,1.27h0Z"></path></g><g><path class="cls-1" d="M428.01,260.58c-7.19,2-14.28,4.51-21.22,7.52-1.01,.44-2.06,.92-2.76,1.9s-.91,2.62-.16,3.55c.38,.47,.93,.67,1.46,.8,1.74,.44,3.57,.32,5.26-.34-4.67,3.22-8.7,7.78-11.68,13.21,1.69,.61,3.65-.11,4.79-1.75-.84,.71-1.58,1.59-2.17,2.6-.24,.4-.46,.92-.3,1.37,.27,.74,1.16,.54,1.77,.22,.92-.49,1.84-.97,2.77-1.46-1.24,.81-2.2,2.23-2.6,3.87,1.66,.6,3.56,.07,4.85-1.35-1.1,.92-1.92,2.34-2.24,3.92,1.79,1.55,4.24,.13,6.11-1.29,9.21-7.04,18.33-14.26,27.35-21.65"></path><path class="cls-6" d="M427.81,259.87c-7.41,2.08-14.74,4.6-21.77,7.72-2.19,.97-5.38,3.36-3.76,6.17,.71,1.23,2.34,1.5,3.63,1.62,1.81,.17,3.54-.16,5.24-.78l-1.47-1.01c-5.07,3.54-9.14,8.21-12.13,13.61-.25,.46,.04,.68,.46,.81,2.59,.8,5.45-.4,7.02-2.51,.37-.49-.22-.77-.62-.83-.63-.09-1.42,.15-1.89,.57-.99,.88-4.2,4.01-2.19,5.26,1.86,1.16,4.77-1.05,6.32-1.87-.6-.28-1.2-.56-1.79-.85-1.59,1.12-2.64,2.6-3.15,4.48-.1,.37,.29,.51,.56,.6,2.41,.75,5.16-.12,6.9-1.9,.43-.44,.33-.86-.27-1.01-.64-.17-1.56,.11-2.05,.55-1.31,1.16-2.13,2.64-2.53,4.34-.03,.15,0,.27,.1,.38,2.53,1.92,5.76,.44,8.03-1.2,3.17-2.29,6.23-4.77,9.31-7.17,6.27-4.9,12.47-9.87,18.62-14.91,.49-.4,.28-.87-.27-1.01-.66-.18-1.53,.13-2.05,.55-5.71,4.68-11.46,9.29-17.27,13.85-2.83,2.22-5.67,4.42-8.53,6.61-1.05,.81-2.58,2.41-3.98,2.55-2.17,.22,.26-2.97,.89-3.53l-2.32-.47c-.86,.88-1.61,1.17-2.8,.8l.56,.6c.35-1.25,.96-2.5,2.05-3.27,.43-.3,.81-.75,.26-1.12s-1.55,0-2.05,.27c-.53,.28-1.05,.56-1.58,.84-.26,.14-.53,.28-.79,.42,.29,.1,.34-.06,.18-.48,.19-1.06,1.42-2.18,2.18-2.85l-2.51-.26c-.71,.95-1.41,1.35-2.55,1l.46,.81c2.78-5.01,6.51-9.52,11.23-12.81,.39-.27,.78-.65,.35-1.06s-1.38-.12-1.82,.04c-1.22,.44-2.95,.61-4.17,.03-1.11-.53-1.19-1.89-.74-2.92,.52-1.22,1.79-1.64,2.92-2.12,1.33-.57,2.67-1.12,4.01-1.65,5.29-2.1,10.69-3.92,16.17-5.45,.42-.12,1.42-.51,1.26-1.11s-1.25-.44-1.64-.33h0Z"></path></g><g><path class="cls-6" d="M426.56,169.75c11.12-1.04,22.94,2.16,30.82,10.06,2.45,2.45,4.48,5.3,6.3,8.24,7.8,12.61,11.88,27.11,15.88,41.39,2.02,7.21,4.03,14.41,6.05,21.62,.14,.5,.28,1.02,.14,1.52-.17,.62-.71,1.05-1.23,1.43-15.05,11.2-30.71,21.59-46.88,31.09-.64,.38-1.35,.77-2.08,.65-.83-.13-1.42-.85-1.93-1.52-5.86-7.71-11.72-15.42-17.58-23.13,8.73-9.12,17.23-18.45,25.5-27.99-6.91-9.93-12.27-20.93-15.81-32.5"></path><path class="cls-1" d="M426.44,170.87c11.13-.99,23.03,2.28,30.7,10.74,4.29,4.73,7.48,10.54,10.15,16.31,2.71,5.84,4.87,11.93,6.79,18.07,1.93,6.18,3.63,12.42,5.37,18.65,.99,3.52,1.97,7.05,2.96,10.57,.45,1.6,.9,3.2,1.34,4.8,.18,.66,.66,1.62,.58,2.29-.09,.8-1.35,1.43-1.93,1.85-10.8,7.99-21.9,15.57-33.29,22.69-3.21,2.01-6.44,3.98-9.69,5.91-.81,.48-1.62,.99-2.44,1.44-.96,.53-1.06,.56-1.81-.31-1.25-1.46-2.34-3.07-3.5-4.6-4.77-6.27-9.54-12.55-14.3-18.82l-.1,1.13c8.72-9.12,17.23-18.45,25.5-27.99,.27-.31,.34-.78,.1-1.13-6.85-9.88-12.14-20.74-15.68-32.23-.43-1.4-3.33-.61-2.9,.78,3.59,11.66,8.98,22.74,15.93,32.77l.1-1.13c-8.27,9.53-16.78,18.86-25.5,27.99-.28,.29-.35,.8-.1,1.13,4.57,6.01,9.14,12.02,13.71,18.04,1.09,1.44,2.19,2.88,3.28,4.31,.89,1.17,1.78,2.52,3.36,2.75,1.65,.25,3.1-.77,4.45-1.57,1.63-.96,3.25-1.93,4.87-2.92,12.24-7.42,24.18-15.34,35.77-23.73,1.4-1.02,2.8-2.04,4.2-3.07,1.18-.87,2.84-1.82,2.92-3.47s-.75-3.32-1.16-4.8c-.52-1.84-1.03-3.68-1.55-5.53-1.95-6.99-3.87-13.99-5.9-20.96-3.76-12.9-8.19-26.21-16.18-37.19-4.07-5.59-9.47-9.82-15.92-12.34-6.3-2.46-13.19-3.27-19.9-2.68-1.67,.15-2.19,2.42-.23,2.24h0Z"></path></g></g></svg>