<svg transform="scale(1)" id="JDIAzu4HkM" xmlns="http://www.w3.org/2000/svg" viewBox="0 0 500 500" class="pbimage_pbimage__wrapper__image__0LEis false"><title>Video Tutorial</title><defs><style> .cls-1{fill:#fff;} .cls-2{fill:#f5d94a;} .cls-3{opacity:.33;} .cls-4{opacity:.3;} .cls-5{fill:#231f20;}
 .cls-5{fill:#29343D;}
 .cls-2{fill:#00669C;}
 .cls-1{fill:#FFFFFF;}</style></defs><g id="tablet"><g><path class="cls-5" d="M487.04,380.19c1.49-86.21-1.09-177.88-2.37-270.86-.06-4.05,.2-8.22-1.23-12.02-2.76-7.31-10.59-11.52-18.25-13.05-7.66-1.53-15.6-1.03-23.32-2.27-7.93-1.28-375.84-1.28-383.77,0-7.72,1.24-15.65,.74-23.32,2.27-7.66,1.53-15.49,5.74-18.25,13.05-1.43,3.79-1.1,7.97-1.23,12.02-2.73,90.27-3.32,180.64-2.37,270.86,.1,9.89-.54,20.87,6.04,28.25,6.56,7.35,17.43,8.51,27.26,9.19,25.95,1.78,381.54,1.78,407.5,0,9.82-.67,20.7-1.84,27.26-9.19,6.59-7.38,5.87-18.36,6.04-28.25Z"></path><path class="cls-5" d="M488.48,379.8c.81-47.21,.42-94.44-.27-141.65-.35-24.38-.79-48.76-1.21-73.14-.21-12.23-.42-24.47-.6-36.7-.09-6.14-.19-12.28-.27-18.42-.07-5.49,.32-11.16-2.77-15.99-5.01-7.81-14.82-10.37-23.49-11.16-5.92-.54-11.88-1.01-17.8-1.47-2.89-.22-5.83-.19-8.73-.24-13.31-.22-26.62-.29-39.93-.36-20.71-.11-41.42-.18-62.13-.22-24.56-.05-49.12-.08-73.68-.08-24.81,0-49.62,.01-74.43,.06-21.64,.04-43.28,.09-64.93,.19-15.02,.07-30.04,.14-45.05,.33-3.89,.05-7.79,.09-11.68,.22-.85,.03-1.7,.04-2.54,.12-3.09,.29-6.14,.72-9.24,.91-5.5,.33-11.06,.52-16.45,1.82-7.91,1.91-16.56,6.71-18.7,15.17-1.34,5.28-.75,11.25-.91,16.66-.18,6.13-.35,12.27-.51,18.4-.64,24.7-1.13,49.4-1.47,74.1-.68,49.23-.79,98.47-.43,147.7,.08,11.47-.18,23.02,.36,34.48,.44,9.37,3.16,18.33,11.93,23.03,7.96,4.26,17.52,4.64,26.4,4.93,12.44,.4,24.89,.47,37.33,.59,20.55,.19,41.1,.3,61.65,.38,25.2,.1,50.39,.15,75.59,.17,26.39,.02,52.77,0,79.16-.04,23.93-.04,47.86-.12,71.79-.25,17.85-.1,35.71-.21,53.56-.45,11.39-.15,23.15,.19,34.43-1.68,7.87-1.3,16.16-4.24,20.69-11.25,4.93-7.63,4.2-17.47,4.33-26.15,0-.6-2.88-.16-2.9,.78-.14,9.3,.75,20.46-5.92,27.93-6.31,7.06-16.65,7.92-25.5,8.47-3.36,.21-6.74,.27-10.11,.34-14.23,.31-28.46,.42-42.68,.53-21.51,.17-43.02,.26-64.54,.33-25.36,.08-50.72,.12-76.08,.13-25.72,0-51.44-.01-77.16-.07-22.92-.05-45.83-.13-68.75-.28-16.42-.1-32.85-.22-49.27-.48-4.72-.07-9.45-.15-14.17-.31-9.74-.33-20.98-.66-28.81-7.09-7.7-6.32-8.13-16.68-8.18-25.88-.07-11.84-.21-23.68-.29-35.52-.16-24.22-.2-48.44-.11-72.66,.17-48.46,.85-96.92,2.13-145.36,.17-6.29,.34-12.58,.53-18.87,.16-5.48-.53-11.56,2.14-16.55,5.44-10.16,18.22-11.04,28.36-11.62,5.9-.33,9.59-1.02,15.01-1.16,11.15-.27,22.32-.31,33.47-.38,19.06-.13,38.11-.2,57.17-.25,23.58-.07,47.16-.1,70.74-.11,24.66-.02,49.33,0,73.99,.02,22.62,.03,45.25,.07,67.87,.16,16.95,.06,33.9,.14,50.85,.29,8.01,.07,16.11-.23,24.07,.42,.8,.07,1.58,.21,2.38,.31,5.67,.73,11.41,.67,17.09,1.33,9.53,1.1,20.71,5.44,22.88,15.96,1.13,5.48,.55,11.52,.63,17.09,.09,5.98,.18,11.96,.27,17.93,.19,12.22,.4,24.45,.61,36.67,.82,47.31,1.69,94.63,1.81,141.95,.06,22.25-.05,44.5-.44,66.74-.01,.59,2.88,.16,2.9-.78Z"></path></g><g><path class="cls-1" d="M473.68,334.58c1.41-68.28-1.03-140.88-2.23-214.52-.05-3.21,.19-6.51-1.16-9.52-2.6-5.79-9.99-9.13-17.23-10.34-7.23-1.21-14.72-.81-22-1.8-7.48-1.01-354.67-1.01-362.15,0-7.28,.99-14.77,.59-22,1.8-7.23,1.21-14.62,4.55-17.23,10.34-1.35,3-1.04,6.31-1.16,9.52-2.57,71.5-3.13,143.07-2.23,214.52,.1,7.83-.51,16.53,5.7,22.38,6.19,5.82,16.45,6.74,25.72,7.28,24.49,1.41,360.05,1.41,384.54,0,9.27-.53,19.53-1.46,25.72-7.28,6.22-5.84,5.54-14.54,5.7-22.38Z"></path><path class="cls-1" d="M475.15,334.47c.88-43.07,.26-86.16-.57-129.22-.43-22.21-.92-44.41-1.34-66.62-.11-5.63-.21-11.27-.3-16.9-.08-4.54,.4-9.39-2.18-13.39-4.51-6.98-14.13-9.06-21.81-9.76-10.7-.98-21.29-1.41-32.01-1.53-13.64-.14-27.28-.2-40.92-.25-19.55-.08-39.1-.12-58.64-.15-22.5-.04-44.99-.05-67.49-.05-22.49,0-44.97,.02-67.46,.05-19.52,.03-39.04,.08-58.55,.15-13.62,.05-27.25,.11-40.87,.26-3.63,.04-7.27,.07-10.9,.17-.87,.02-1.74,.03-2.61,.09-6.49,.48-13.07,.69-19.53,1.43-7.56,.87-16.77,3.34-20.98,10.33-2.47,4.09-1.87,9.19-2.03,13.77-.2,5.64-.39,11.27-.56,16.91-.7,22.55-1.2,45.1-1.52,67.66-.63,44.17-.92,88.42-.01,132.59,.17,8.2,1.97,16.06,9.61,20.42,6.84,3.9,15.22,4.47,22.91,4.87,3.06,.16,6.13,.21,9.19,.26,12.99,.25,25.99,.33,38.99,.42,19.59,.13,39.17,.21,58.76,.26,23.32,.07,46.64,.1,69.97,.11,23.89,.01,47.79,0,71.68-.04,21.6-.04,43.21-.1,64.81-.2,16.16-.08,32.32-.17,48.49-.35,9.72-.11,19.53,.02,29.21-.94,7.48-.74,15.76-2.31,21.21-7.93,5.81-5.98,5.32-14.7,5.46-22.42,.03-1.5-2.91-1.07-2.93,.23-.15,8.4,.42,18.08-7.43,23.39-6.47,4.37-15.19,4.73-22.74,5.11-3.06,.16-6.13,.2-9.19,.26-12.81,.24-25.63,.32-38.44,.41-19.22,.13-38.45,.2-57.67,.26-22.89,.07-45.77,.1-68.66,.11-23.54,.01-47.07,0-70.61-.04-21.47-.03-42.94-.09-64.4-.18-16.44-.07-32.87-.16-49.31-.33-8.42-.09-16.83-.04-25.23-.48-7.63-.39-16.32-.8-22.91-5.12-7.92-5.19-7.78-14.5-7.85-22.96-.18-21.87-.42-43.74-.41-65.61,.02-44.22,.66-88.45,2.06-132.65,.18-5.64,.42-11.27,.57-16.91,.13-4.77-.01-9.31,3.67-12.87,7.18-6.93,18.7-6.49,27.92-6.99,3.9-.21,7.71-.71,11.61-.79,10.05-.21,20.11-.24,30.16-.29,17-.1,34-.15,51-.19,21.15-.05,42.3-.08,63.45-.1,22.56-.02,45.12-.01,67.68,0,21.06,.02,42.13,.05,63.19,.1,16.72,.04,33.45,.1,50.17,.2,9.38,.06,19.29,.08,28.3,.3,6.23,.15,12.46,.76,18.68,1.19,8.03,.56,20.09,2.35,23.32,11.19,.9,2.46,.81,5.11,.83,7.68,.02,2.94,.09,5.88,.14,8.82,.09,5.33,.19,10.67,.3,16,.83,43.34,1.94,86.68,2.18,130.03,.11,20.16,.03,40.32-.38,60.48-.03,1.5,2.91,1.07,2.93-.23Z"></path></g><g class="cls-4"><path class="cls-1" d="M252.19,378.75c-5.39-2.46-12.41,.34-15.05,5.64-2.64,5.3-.91,12.26,3.61,16.09,3.17,2.69,7.53,3.91,11.63,3.23,4.1-.68,7.85-3.25,9.92-6.85,2.02-3.5,2.4-7.93,.86-11.66-1.54-3.73-5.03-6.63-9-7.32"></path><path class="cls-1" d="M253.04,377.82c-5.2-2.26-11.67-.41-15.4,3.72-3.99,4.42-4.03,11.02-1.14,16.02,3.19,5.53,9.96,8.19,16.14,7.08,6.29-1.13,11.69-6.05,12.75-12.45,1.2-7.24-3.54-13.95-10.71-15.31-1.35-.26-2.96,1.62-1.03,1.99,5.21,.99,8.93,5.97,9,11.16,.08,5.37-3.22,10.38-8.31,12.2-5.04,1.81-10.99-.23-14.19-4.43-2.87-3.78-3.77-9.3-1.46-13.57,2.41-4.46,7.99-6.58,12.67-4.55,1.13,.49,3.36-1.13,1.7-1.86h0Z"></path></g></g><g id="interface"><g class="cls-3"><path class="cls-2" d="M315.12,290.23c.87-42.42-.64-87.53-1.39-133.29-.03-1.99,.12-4.05-.72-5.91-1.62-3.6-6.21-5.67-10.7-6.42-4.49-.75-9.15-.51-13.67-1.12-4.65-.63-220.36-.63-225.01,0-4.52,.61-9.18,.37-13.67,1.12-4.49,.75-9.08,2.83-10.7,6.42-.84,1.87-.65,3.92-.72,5.91-1.6,44.42-1.94,88.89-1.39,133.29,.06,4.87-.32,10.27,3.54,13.9,3.84,3.61,10.22,4.19,15.98,4.52,15.22,.88,223.7,.88,238.92,0,5.76-.33,12.14-.91,15.98-4.52,3.86-3.63,3.44-9.04,3.54-13.9Z"></path><path class="cls-2" d="M316.59,290.12c.55-26.76,.16-53.53-.35-80.29-.27-13.8-.57-27.59-.83-41.39-.07-3.5-.13-7-.19-10.5-.05-2.9,.24-5.97-1.41-8.52-2.87-4.43-8.99-5.78-13.87-6.22-6.69-.61-13.32-.88-20.03-.95-8.47-.09-16.95-.12-25.42-.16-12.15-.05-24.29-.08-36.44-.09-13.98-.02-27.95-.03-41.93-.03-13.97,0-27.94,0-41.91,.03-12.13,.02-24.25,.05-36.38,.1-8.46,.03-16.93,.07-25.39,.16-2.26,.02-4.51,.05-6.77,.1-.54,.01-1.08,.02-1.62,.06-4.03,.3-8.12,.43-12.13,.89-4.93,.56-10.88,2.2-13.61,6.75-1.55,2.59-1.19,5.77-1.3,8.66-.12,3.5-.24,7-.35,10.51-.43,14.01-.74,28.02-.95,42.04-.39,27.44-.57,54.93,0,82.38,.11,5.2,1.25,10.19,6.1,12.96,4.33,2.47,9.59,2.85,14.47,3.11,1.9,.1,3.81,.13,5.71,.16,8.12,.15,16.24,.21,24.36,.26,12.17,.08,24.34,.13,36.51,.16,14.49,.04,28.98,.06,43.47,.07,14.85,0,29.69,0,44.54-.03,13.42-.02,26.85-.06,40.27-.12,10.04-.05,20.08-.1,30.12-.22,6.04-.07,12.13,.02,18.15-.58,4.84-.48,10.16-1.53,13.69-5.17s3.4-9.24,3.49-14.13c.03-1.5-2.91-1.07-2.93,.23-.09,5.06,.32,11.04-4.43,14.24-3.89,2.62-9.19,2.8-13.71,3.03-1.9,.1-3.81,.12-5.71,.16-7.96,.15-15.92,.2-23.88,.25-11.94,.08-23.89,.13-35.83,.16-14.22,.04-28.44,.06-42.66,.07-14.62,0-29.25,0-43.87-.02-13.34-.02-26.68-.06-40.01-.11-10.21-.05-20.42-.1-30.64-.21-5.51-.06-10.16-.02-15.54-.29-4.65-.24-9.98-.46-14-3.1-4.81-3.16-4.7-8.86-4.74-13.99-.11-13.59-.26-27.18-.25-40.77,.01-27.48,.41-54.95,1.28-82.42,.11-3.5,.26-7,.35-10.51,.08-2.87-.05-5.66,2.19-7.79,4.32-4.13,11.32-3.8,16.84-4.11,2.42-.13,4.79-.44,7.21-.49,6.25-.13,12.49-.15,18.74-.18,10.56-.06,21.12-.09,31.69-.12,13.14-.03,26.28-.05,39.42-.06,14.02,0,28.03,0,42.05,0,13.09,.01,26.17,.03,39.26,.06,10.39,.03,20.78,.06,31.17,.13,3.61,.02,7.22,.05,10.83,.09,1.33,.01,2.65,.03,3.98,.05,.27,0,.54,0,.81,.01,.14,0,.28,0,.42,0,.38,0-.27,0,.11,0,.43,0,.86,.02,1.29,.03,3.87,.09,7.74,.47,11.6,.74,4.83,.33,12.18,1.38,14.13,6.7,.55,1.49,.49,3.1,.51,4.67,.01,1.83,.06,3.65,.09,5.48,.06,3.31,.12,6.63,.18,9.94,.52,26.93,1.2,53.86,1.35,80.79,.07,12.53,.02,25.05-.23,37.58-.03,1.5,2.91,1.07,2.93-.23Z"></path></g><g><path class="cls-5" d="M158.55,229.34c-18.02-.9-36.09,1.45-53.68,5.44-10.89,2.47-22.19,5.88-29.91,13.96-.95,1-1.87,2.11-2.24,3.44-.57,2.06,.27,4.27,1.51,6.02,3.71,5.2,10.46,7.21,16.81,7.97,21.36,2.56,42.48-5.06,62.63-12.58"></path><path class="cls-5" d="M159.01,229.01c-13.24-.64-26.49,.41-39.55,2.59-6.23,1.04-12.44,2.29-18.57,3.83-5.31,1.33-10.58,2.98-15.5,5.4-2.4,1.19-4.72,2.56-6.86,4.18-2.06,1.55-4.26,3.36-5.69,5.52-3.11,4.71,1.59,9.91,5.51,12.25,4.51,2.69,9.87,3.58,15.03,3.99,6.16,.49,12.36,.17,18.48-.7,14.52-2.07,28.4-7.17,42.07-12.28,.96-.36,.07-.65-.53-.43-11.55,4.31-23.19,8.61-35.3,11.04-6.04,1.21-12.19,1.95-18.36,1.93-5.39-.02-11.02-.44-16.13-2.26-4.37-1.56-9.82-5.02-10.33-10.13-.29-2.93,2.05-5.09,4.04-6.89,1.97-1.78,4.17-3.32,6.48-4.64,9.62-5.47,21.08-7.58,31.83-9.55,13.99-2.56,28.23-3.87,42.45-3.19,.36,.02,1.67-.63,.92-.67h0Z"></path></g><g><path class="cls-5" d="M201.37,232.9c11.14,6.31,22.65,12.75,35.35,14.39,4.98,.64,10.35,.43,14.54-2.33,6.01-3.97,7.81-11.82,9.12-18.9,1.16-6.25,2.31-12.5,3.47-18.75,9.83,2.87,20.18,3.93,30.39,3.11,1.07-.09,2.22-.17,3.13,.39,1.34,.83,1.58,2.65,1.64,4.23,.36,9.59-.45,19.23-2.41,28.63-2.11,10.07-6.25,20.75-15.29,25.65-5.18,2.81-11.26,3.31-17.14,3.62-16.68,.88-34.25,.46-48.8-7.73"></path><path class="cls-5" d="M200.78,233.22c11.41,6.46,23.4,13.25,36.7,14.56,5.46,.54,11.45-.1,15.76-3.81,4.02-3.46,5.82-8.69,6.98-13.71,1.75-7.61,2.92-15.38,4.34-23.05l-1.3,.43c5.49,1.59,11.13,2.65,16.83,3.12,2.72,.23,5.45,.32,8.18,.29,1.42-.02,2.83-.07,4.25-.16,1.49-.09,3.5-.59,4.67,.61,1.59,1.63,1.14,5.06,1.16,7.11,.03,3.09-.06,6.18-.28,9.27-.4,5.71-1.2,11.41-2.44,17-1.95,8.74-5.51,18.33-13.35,23.45-4.7,3.07-10.4,3.81-15.89,4.16-5.24,.33-10.5,.51-15.75,.41-11.97-.22-24.12-2.09-34.71-7.99-.35-.2-1.7,.35-1.17,.64,9.66,5.38,20.67,7.43,31.61,7.94,5.61,.26,11.23,.14,16.83-.14,5.4-.27,10.95-.64,16.02-2.68,9.03-3.64,13.97-12.38,16.62-21.31,1.61-5.42,2.56-11.06,3.2-16.67,.68-5.99,1.02-12.14,.65-18.16-.16-2.55-1.16-4.49-3.96-4.5-3.4-.02-6.78,.39-10.19,.3-7.15-.19-14.26-1.33-21.13-3.31-.31-.09-1.23,0-1.3,.43-1.22,6.6-2.4,13.22-3.67,19.81-.93,4.87-2.09,10.03-5.09,14.11-3.8,5.17-9.9,6.33-15.98,5.74-6.12-.6-12.07-2.46-17.71-4.84-6.48-2.73-12.62-6.2-18.73-9.66-.35-.2-1.69,.34-1.17,.64h0Z"></path></g><g class="cls-3"><path class="cls-5" d="M406.25,184.73c.25-12.02-.18-24.8-.39-37.77,0-.57,.03-1.15-.2-1.68-.46-1.02-1.76-1.61-3.03-1.82-1.27-.21-2.59-.14-3.87-.32-1.32-.18-62.44-.18-63.76,0-1.28,.17-2.6,.1-3.87,.32-1.27,.21-2.57,.8-3.03,1.82-.24,.53-.18,1.11-.2,1.68-.45,12.59-.55,25.19-.39,37.77,.02,1.38-.09,2.91,1,3.94,1.09,1.02,2.9,1.19,4.53,1.28,4.31,.25,63.39,.25,67.7,0,1.63-.09,3.44-.26,4.53-1.28,1.09-1.03,.98-2.56,1-3.94Z"></path><path class="cls-5" d="M407.7,184.59c.16-7.8,.04-15.61-.11-23.41-.08-3.95-.17-7.91-.24-11.86-.03-1.47,.35-3.63-.53-4.91s-2.64-1.74-4.1-1.92c-4.37-.54-8.87-.34-13.25-.35-15.03-.06-30.06-.06-45.08,0-2.32,.01-4.64,.02-6.96,.05-2.4,.03-5-.04-7.3,.62-1.32,.37-2.78,1.11-3.41,2.4-.37,.74-.29,1.61-.31,2.41-.04,1.16-.08,2.32-.11,3.48-.12,3.98-.21,7.95-.26,11.93-.05,3.98-.08,7.95-.07,11.93,0,3.79-.1,7.62,.1,11.4,.22,4.27,4.55,4.51,7.93,4.58,2.32,.05,4.65,.06,6.97,.08,7.7,.05,15.4,.06,23.11,.07,8.09,0,16.19,0,24.28-.05,2.82-.01,5.64-.03,8.46-.07,2.12-.03,4.35,.05,6.43-.41,1.36-.3,2.78-.89,3.63-2.05s.83-2.54,.85-3.91c.02-1.35-2.9-.82-2.92,.3-.02,1.24,.18,3.08-1.15,3.72-.87,.42-2.02,.4-2.97,.44-.23,.01-.46,.02-.69,.02-.14,0-.27,0-.41,0-.08,0-.4,0,0,0-.14,0-.27,0-.41,0-2.31,.04-4.63,.05-6.94,.07-7.34,.05-14.67,.06-22.01,.06-7.84,0-15.69,0-23.53-.04-4.33-.02-8.68,.07-13.01-.14-1.11-.05-2.35-.09-3.34-.62-1.51-.82-1.37-2.59-1.39-4.07-.04-3.89-.07-7.78-.07-11.67,0-7.62,.12-15.24,.36-22.86,.03-.83,.06-1.66,.08-2.48s-.15-1.91,.59-2.51c1.11-.89,3.59-.65,4.91-.73,.09,0,.18-.01,.28-.02,.28-.01,.67-.02,.35,0,1.82-.03,3.64-.04,5.46-.05,14.26-.08,28.53-.07,42.79-.03,4.61,.01,9.23-.03,13.85,.09,.8,.02,1.59,.12,2.39,.16,1.32,.07,3.44,.03,4.22,1.38,.46,.81,.25,2.11,.27,3.01,.02,.99,.04,1.99,.06,2.98,.15,7.49,.33,14.98,.38,22.47,.02,3.61,0,7.21-.07,10.82-.03,1.35,2.89,.82,2.92-.3Z"></path></g><path class="cls-1" d="M354.38,165.06v3.03c-.03,.12-.01,.22,.06,.32,.05,.11,.13,.19,.25,.24,.27,.15,.67,.16,.96,.12,.38-.05,.78-.16,1.1-.38l.26-.2c.14-.12,.23-.27,.28-.44v-3.03c.03-.12,.01-.22-.06-.32-.05-.11-.13-.19-.25-.24-.27-.15-.67-.16-.96-.12-.38,.05-.78,.16-1.1,.38l-.26,.2c-.14,.12-.23,.27-.28,.44h0Z"></path><path class="cls-1" d="M367.02,165.55c0,.84,0,1.69,0,2.53-.03,.13,0,.24,.06,.34,.05,.12,.13,.21,.26,.27,.26,.16,.67,.19,.97,.15,.38-.05,.78-.16,1.09-.38l.26-.21c.14-.13,.23-.29,.27-.47,0-.84,0-1.69,0-2.53,.03-.13,0-.24-.06-.34-.05-.12-.13-.21-.26-.27-.26-.16-.67-.19-.97-.15-.38,.05-.78,.16-1.09,.38l-.26,.21c-.14,.13-.23,.29-.27,.47h0Z"></path><path class="cls-1" d="M379.71,165.05c-.27,1.1-.18,2.32,.26,3.36,.12,.27,.31,.43,.59,.51,.33,.1,.77,.08,1.09-.01s.72-.26,.95-.53c.16-.19,.37-.48,.26-.74-.23-.54-.36-1.11-.39-1.7v.25c0-.48,.04-.95,.15-1.41,.06-.26-.13-.52-.33-.65-.26-.17-.67-.21-.98-.18-.64,.08-1.45,.4-1.62,1.1h0Z"></path><g><path class="cls-2" d="M418.06,143.15l-.03,6.04c0,.54,.02,1.14,.4,1.52,.32,.32,.81,.38,1.25,.42,3.27,.28,6.56,0,9.83-.19,10.54-.61,21.13-.33,31.62,.82,.63,.07,1.39,.08,1.75-.44,.18-.27,.2-.61,.21-.94,.03-1.43-.05-2.87-.24-4.29-.09-.66-.24-1.39-.78-1.77-.37-.26-.84-.31-1.29-.35-13.37-1.16-26.84-1.11-40.2,.17"></path><path class="cls-2" d="M416.6,143.3c0,1.7-.02,3.41-.03,5.11,0,1.33-.17,2.76,1.26,3.36s3.28,.41,4.75,.39c1.93-.02,3.85-.13,5.78-.25,7.54-.45,15.08-.48,22.62-.04,1.73,.1,3.46,.23,5.18,.37s3.67,.59,5.46,.46c1.14-.08,2.52-.61,2.85-1.83,.4-1.48,.05-3.69-.17-5.18-.19-1.24-.69-2.18-1.98-2.51-1.7-.44-3.67-.37-5.41-.48-3.67-.25-7.35-.4-11.04-.46-8.39-.14-16.78,.19-25.13,.98-.55,.05-1.55,.4-1.62,1.07s.79,.81,1.29,.77c12.75-1.2,25.59-1.31,38.37-.28,.54,.04,1.32-.06,1.81,.16,.65,.29,.71,.92,.81,1.55,.12,.79,.18,1.59,.21,2.38,.02,.4,.03,.8,.02,1.2,0,.21,0,.43-.01,.64-.07,.23,.06,.29,.37,.17-.08,.18-3.88-.38-4.26-.42-1.73-.15-3.45-.28-5.18-.39-6.3-.39-12.61-.45-18.92-.22-3.65,.13-7.31,.53-10.96,.48-.74,0-1.75,.13-2.45-.11-.96-.33-.74-1.18-.73-2.09,0-1.7,.02-3.41,.03-5.11,0-1.34-2.91-.8-2.91,.3h0Z"></path></g><path class="cls-5" d="M416.08,158.34c13.82-.22,27.65-.45,41.47-.67,.64-.01,1.52-.16,2.05-.55,.38-.28,.48-.54-.14-.53-13.82,.22-27.65,.45-41.47,.67-.64,.01-1.52,.16-2.05,.55-.38,.28-.48,.54,.14,.53h0Z"></path><path class="cls-5" d="M418.91,164.88h6.57c.6,0,1.52-.46,1.61-1.13,.1-.74-.8-.87-1.32-.87h-6.57c-.6,0-1.52,.46-1.61,1.13-.1,.74,.8,.87,1.32,.87h0Z"></path><path class="cls-5" d="M432.66,164.18l14.17,.81c.63,.04,1.57-.22,1.91-.81s-.3-.88-.8-.91l-14.17-.81c-.63-.04-1.57,.22-1.91,.81s.3,.88,.8,.91h0Z"></path><path class="cls-5" d="M418.95,173.62h16.69c.66,0,1.52-.51,1.58-1.22,.07-.77-.75-1.04-1.36-1.04h-16.69c-.66,0-1.52,.51-1.58,1.22-.07,.77,.75,1.04,1.36,1.04h0Z"></path><path class="cls-5" d="M422.52,188.92c.56,0,1.63-.2,1.92-.77s-.25-.76-.76-.76c-.56,0-1.63,.2-1.92,.77s.25,.76,.76,.76h0Z"></path><path class="cls-5" d="M428.23,188.04v.51c.03,.07,.09,.11,.16,.11,.11,.04,.22,.05,.33,.04,.16,0,.33-.02,.49-.05,.19-.02,.38-.06,.57-.12l.38-.12c.21-.07,.42-.16,.61-.27l.21-.14c.1-.06,.14-.14,.15-.25v-.51c-.03-.07-.09-.11-.16-.11-.11-.04-.22-.05-.33-.04-.16,0-.33,.02-.49,.05-.19,.02-.38,.06-.57,.12l-.38,.12c-.21,.07-.42,.16-.61,.27l-.21,.14c-.1,.06-.14,.14-.15,.25h0Z"></path><path class="cls-5" d="M436.63,189.23c1.66,0,2.22-2.13,.26-2.13-1.66,0-2.22,2.13-.26,2.13h0Z"></path><g class="cls-3"><path class="cls-5" d="M406.25,242.27c.25-12.02-.18-24.8-.39-37.77,0-.57,.03-1.15-.2-1.68-.46-1.02-1.76-1.61-3.03-1.82-1.27-.21-2.59-.14-3.87-.32-1.32-.18-62.44-.18-63.76,0-1.28,.17-2.6,.1-3.87,.32-1.27,.21-2.57,.8-3.03,1.82-.24,.53-.18,1.11-.2,1.68-.45,12.59-.55,25.19-.39,37.77,.02,1.38-.09,2.91,1,3.94,1.09,1.02,2.9,1.19,4.53,1.28,4.31,.25,63.39,.25,67.7,0,1.63-.09,3.44-.26,4.53-1.28,1.09-1.03,.98-2.56,1-3.94Z"></path><path class="cls-5" d="M407.7,242.12c.16-7.8,.04-15.61-.11-23.41-.08-3.95-.17-7.91-.24-11.86-.03-1.47,.35-3.63-.53-4.91s-2.64-1.74-4.1-1.92c-4.37-.54-8.87-.34-13.25-.35-15.03-.06-30.06-.06-45.08,0-2.32,.01-4.64,.02-6.96,.05-2.4,.03-5-.04-7.3,.62-1.32,.37-2.78,1.11-3.41,2.4-.37,.74-.29,1.61-.31,2.41-.04,1.16-.08,2.32-.11,3.48-.12,3.98-.21,7.95-.26,11.93-.05,3.98-.08,7.95-.07,11.93,0,3.79-.1,7.62,.1,11.4,.22,4.27,4.55,4.51,7.93,4.58,2.32,.05,4.65,.06,6.97,.08,7.7,.05,15.4,.06,23.11,.07,8.09,0,16.19,0,24.28-.05,2.82-.01,5.64-.03,8.46-.07,2.12-.03,4.35,.05,6.43-.41,1.36-.3,2.78-.89,3.63-2.05,.85-1.15,.83-2.54,.85-3.91,.02-1.35-2.9-.82-2.92,.3-.02,1.24,.18,3.08-1.15,3.72-.87,.42-2.02,.4-2.97,.44-.23,.01-.46,.02-.69,.02-.14,0-.27,0-.41,0-.08,0-.4,0,0,0-.14,0-.27,0-.41,0-2.31,.04-4.63,.05-6.94,.07-7.34,.05-14.67,.06-22.01,.06-7.84,0-15.69,0-23.53-.04-4.33-.02-8.68,.07-13.01-.14-1.11-.05-2.35-.09-3.34-.62-1.51-.82-1.37-2.59-1.39-4.07-.04-3.89-.07-7.78-.07-11.67,0-7.62,.12-15.24,.36-22.86,.03-.83,.06-1.66,.08-2.48s-.15-1.91,.59-2.51c1.11-.89,3.59-.65,4.91-.73,.09,0,.18-.01,.28-.02,.28-.01,.67-.02,.35,0,1.82-.03,3.64-.04,5.46-.05,14.26-.08,28.53-.07,42.79-.03,4.61,.01,9.23-.03,13.85,.09,.8,.02,1.59,.12,2.39,.16,1.32,.07,3.44,.03,4.22,1.38,.46,.81,.25,2.11,.27,3.01,.02,.99,.04,1.99,.06,2.98,.15,7.49,.33,14.98,.38,22.47,.02,3.61,0,7.21-.07,10.82-.03,1.35,2.89,.82,2.92-.3Z"></path></g><path class="cls-1" d="M354.39,222.81v3.03c0,.22,.42,.34,.55,.37,.34,.07,.75,.02,1.08-.07s.71-.23,.97-.47l.19-.2c.1-.12,.13-.25,.11-.4v-3.03c0-.22-.42-.34-.55-.37-.34-.07-.75-.02-1.08,.07s-.71,.23-.97,.47l-.19,.2c-.1,.12-.13,.25-.11,.4h0Z"></path><path class="cls-1" d="M367.03,223.11c0,.84,0,1.69,0,2.53-.03,.12-.02,.22,.05,.3,.05,.11,.13,.19,.25,.23,.27,.14,.67,.15,.96,.11,.38-.05,.78-.16,1.1-.37l.26-.2c.14-.12,.23-.26,.28-.43,0-.84,0-1.69,0-2.53,.03-.12,.02-.22-.05-.3-.05-.11-.13-.19-.25-.23-.27-.14-.67-.15-.96-.11-.38,.05-.78,.16-1.1,.37l-.26,.2c-.14,.12-.23,.26-.28,.43h0Z"></path><path class="cls-1" d="M379.72,222.59c-.27,1.1-.18,2.31,.26,3.35,.11,.27,.31,.41,.58,.49,.33,.1,.76,.07,1.09-.03s.72-.25,.96-.52c.16-.18,.37-.46,.26-.71-.24-.56-.37-1.15-.39-1.75v.24c0-.46,.04-.91,.15-1.36,.06-.25-.12-.49-.32-.61-.26-.16-.67-.19-.97-.16-.38,.05-.78,.16-1.09,.38-.24,.18-.46,.38-.53,.68h0Z"></path><g><path class="cls-2" d="M418.06,200.68l-.03,6.04c0,.54,.02,1.14,.4,1.52,.32,.32,.81,.38,1.25,.42,3.27,.28,6.56,0,9.83-.19,10.54-.61,21.13-.33,31.62,.82,.63,.07,1.39,.08,1.75-.44,.18-.27,.2-.61,.21-.94,.03-1.43-.05-2.87-.24-4.29-.09-.66-.24-1.39-.78-1.77-.37-.26-.84-.31-1.29-.35-13.37-1.16-26.84-1.11-40.2,.17"></path><path class="cls-2" d="M416.59,200.81c0,1.7-.02,3.41-.03,5.11,0,1.33-.15,2.81,1.28,3.44,1.35,.59,3.19,.41,4.64,.41,1.97,0,3.94-.13,5.9-.24,7.54-.45,15.08-.49,22.62-.05,1.73,.1,3.46,.23,5.18,.37,1.78,.15,3.67,.58,5.46,.47,1.18-.08,2.51-.64,2.84-1.88,.39-1.5,.05-3.69-.18-5.2-.19-1.25-.7-2.21-1.99-2.57-1.68-.47-3.68-.38-5.41-.5-3.67-.25-7.35-.4-11.04-.46-8.39-.14-16.78,.18-25.13,.97-.59,.06-1.55,.42-1.61,1.12s.77,.91,1.32,.86c12.75-1.2,25.59-1.32,38.36-.29,.54,.04,1.31-.05,1.81,.16,.65,.27,.7,.85,.8,1.48,.13,.86,.19,1.73,.22,2.6,.01,.32,.01,.64,.01,.96,0-.14-.13,1.47,.34,.76-.08,.13-2.12-.22-2.29-.23-.66-.07-1.31-.13-1.97-.19-1.73-.15-3.45-.28-5.18-.39-6.3-.38-12.61-.46-18.92-.23-3.65,.13-7.31,.53-10.96,.49-.75,0-1.74,.12-2.45-.11-.95-.3-.71-1.1-.71-2.01,0-1.7,.02-3.41,.03-5.11,0-1.44-2.92-.95-2.93,.26h0Z"></path></g><path class="cls-5" d="M416.45,216.1c13.82-.22,27.65-.45,41.47-.67,.57,0,1.63-.2,1.92-.77s-.25-.77-.76-.76c-13.82,.22-27.65,.45-41.47,.67-.57,0-1.63,.2-1.92,.77s.25,.77,.76,.76h0Z"></path><path class="cls-5" d="M418.11,221.99h6.57c.69,0,1.46-.18,2.05-.55,.12-.08,.39-.23,.34-.41s-.38-.19-.5-.19h-6.57c-.69,0-1.46,.18-2.05,.55-.12,.08-.39,.23-.34,.41s.38,.19,.5,.19h0Z"></path><path class="cls-5" d="M432.31,221.55c4.72,.27,9.45,.54,14.17,.81,.69,.04,1.5-.1,2.05-.55,.41-.33,.4-.8-.22-.84l-14.17-.81c-.69-.04-1.5,.1-2.05,.55-.41,.33-.4,.8,.22,.84h0Z"></path><path class="cls-5" d="M418.54,231h16.69c.67,0,1.57-.18,1.89-.86,.28-.6-.25-1.11-.86-1.11h-16.69c-.67,0-1.57,.18-1.89,.86-.28,.6,.25,1.11,.86,1.11h0Z"></path><path class="cls-5" d="M422.55,246.57c.6,0,1.62-.19,1.91-.81,.27-.59-.23-.94-.81-.94-.6,0-1.62,.19-1.91,.81-.27,.59,.23,.94,.81,.94h0Z"></path><path class="cls-5" d="M428.22,245.34v.51c-.03,.13,0,.24,.06,.34,.05,.12,.13,.21,.26,.27,.14,.08,.28,.12,.44,.14,.18,.04,.35,.05,.53,.02l.39-.07c.25-.07,.48-.17,.7-.31l.26-.21c.14-.13,.23-.29,.27-.47v-.51c.03-.13,0-.24-.06-.34-.05-.12-.13-.21-.26-.27-.14-.08-.28-.12-.44-.14-.18-.04-.35-.05-.53-.02l-.39,.07c-.25,.07-.48,.17-.7,.31l-.26,.21c-.14,.13-.23,.29-.27,.47h0Z"></path><path class="cls-5" d="M436.16,246.39c.54,0,1.64-.21,1.93-.74,.3-.55-.26-.65-.73-.65-.54,0-1.64,.21-1.93,.74-.3,.55,.26,.65,.73,.65h0Z"></path><g class="cls-3"><path class="cls-5" d="M406.25,302.19c.25-12.02-.18-24.8-.39-37.77,0-.57,.03-1.15-.2-1.68-.46-1.02-1.76-1.61-3.03-1.82-1.27-.21-2.59-.14-3.87-.32-1.32-.18-62.44-.18-63.76,0-1.28,.17-2.6,.1-3.87,.32-1.27,.21-2.57,.8-3.03,1.82-.24,.53-.18,1.11-.2,1.68-.45,12.59-.55,25.19-.39,37.77,.02,1.38-.09,2.91,1,3.94,1.09,1.02,2.9,1.19,4.53,1.28,4.31,.25,63.39,.25,67.7,0,1.63-.09,3.44-.26,4.53-1.28,1.09-1.03,.98-2.56,1-3.94Z"></path><path class="cls-5" d="M407.7,302.04c.16-7.8,.04-15.61-.11-23.41-.08-3.95-.17-7.91-.24-11.86-.03-1.47,.35-3.63-.53-4.91-.89-1.29-2.64-1.74-4.1-1.92-4.37-.54-8.87-.34-13.25-.35-15.03-.06-30.06-.06-45.08,0-2.32,.01-4.64,.02-6.96,.05-2.4,.03-5-.04-7.3,.62-1.32,.37-2.78,1.11-3.41,2.4-.37,.74-.29,1.61-.31,2.41-.04,1.16-.08,2.32-.11,3.48-.12,3.98-.21,7.95-.26,11.93-.05,3.98-.08,7.95-.07,11.93,0,3.79-.1,7.62,.1,11.4,.22,4.27,4.55,4.51,7.93,4.58,2.32,.05,4.65,.06,6.97,.08,7.7,.05,15.4,.06,23.11,.07,8.09,0,16.19,0,24.28-.05,2.82-.01,5.64-.03,8.46-.07,2.12-.03,4.35,.05,6.43-.41,1.36-.3,2.78-.89,3.63-2.05s.83-2.54,.85-3.91c.02-1.35-2.9-.82-2.92,.3-.02,1.24,.18,3.08-1.15,3.72-.87,.42-2.02,.4-2.97,.44-.23,.01-.46,.02-.69,.02-.14,0-.27,0-.41,0-.08,0-.4,0,0,0-.14,0-.27,0-.41,0-2.31,.04-4.63,.05-6.94,.07-7.34,.05-14.67,.06-22.01,.06-7.84,0-15.69,0-23.53-.04-4.33-.02-8.68,.07-13.01-.14-1.11-.05-2.35-.09-3.34-.62-1.51-.82-1.37-2.59-1.39-4.07-.04-3.89-.07-7.78-.07-11.67,0-7.62,.12-15.24,.36-22.86,.03-.83,.06-1.66,.08-2.48s-.15-1.91,.59-2.51c1.11-.89,3.59-.65,4.91-.73,.09,0,.18-.01,.28-.02,.28-.01,.67-.02,.35,0,1.82-.03,3.64-.04,5.46-.05,14.26-.08,28.53-.07,42.79-.03,4.61,.01,9.23-.03,13.85,.09,.8,.02,1.59,.12,2.39,.16,1.32,.07,3.44,.03,4.22,1.38,.46,.81,.25,2.11,.27,3.01,.02,.99,.04,1.99,.06,2.98,.15,7.49,.33,14.98,.38,22.47,.02,3.61,0,7.21-.07,10.82-.03,1.35,2.89,.82,2.92-.3Z"></path></g><path class="cls-1" d="M354.36,282.45v3.03c0,.32,.1,.58,.36,.77s.68,.28,1,.25c.38-.04,.79-.15,1.09-.41,.23-.2,.5-.48,.5-.81v-3.03c0-.32-.1-.58-.36-.77s-.68-.28-1-.25c-.38,.04-.79,.15-1.09,.41-.23,.2-.5,.48-.5,.81h0Z"></path><path class="cls-1" d="M367.03,283.03c0,.84,0,1.69,0,2.53-.03,.12-.02,.22,.05,.31,.05,.11,.13,.19,.25,.23,.27,.14,.67,.15,.96,.11,.38-.05,.78-.16,1.1-.38l.26-.2c.14-.12,.23-.26,.28-.43,0-.84,0-1.69,0-2.53,.03-.12,.02-.22-.05-.31-.05-.11-.13-.19-.25-.23-.27-.14-.67-.15-.96-.11-.38,.05-.78,.16-1.1,.38l-.26,.2c-.14,.12-.23,.26-.28,.43h0Z"></path><path class="cls-1" d="M379.72,282.53c-.27,1.09-.18,2.29,.26,3.33,.25,.59,1.14,.54,1.66,.39,.34-.1,.71-.24,.96-.5,.15-.16,.38-.42,.28-.66-.25-.59-.38-1.22-.4-1.86v.22c0-.42,.05-.84,.15-1.25,.06-.24-.11-.45-.31-.56-.27-.15-.67-.16-.96-.12-.38,.05-.78,.16-1.1,.38-.23,.16-.47,.35-.54,.64h0Z"></path><g><path class="cls-2" d="M418.06,260.61l-.03,6.04c0,.54,.02,1.14,.4,1.52,.32,.32,.81,.38,1.25,.42,3.27,.28,6.56,0,9.83-.19,10.54-.61,21.13-.33,31.62,.82,.63,.07,1.39,.08,1.75-.44,.18-.27,.2-.61,.21-.94,.03-1.43-.05-2.87-.24-4.29-.09-.66-.24-1.39-.78-1.77-.37-.26-.84-.31-1.29-.35-13.37-1.16-26.84-1.11-40.2,.17"></path><path class="cls-2" d="M416.61,260.99c0,1.7-.02,3.41-.03,5.11,0,1.4-.07,2.72,1.53,3.12s3.36,.27,4.93,.24c1.97-.04,3.94-.18,5.9-.29,7.41-.42,14.84-.42,22.25,.03,1.87,.11,3.74,.25,5.6,.42,1.63,.15,3.47,.6,5.11,.35,1.14-.18,2.42-.74,2.62-2,.24-1.51,.01-3.31-.22-4.81-.19-1.21-.68-2.11-1.94-2.39-1.72-.38-3.65-.34-5.4-.46-3.76-.25-7.52-.41-11.28-.47-8.3-.13-16.61,.22-24.88,1-.43,.04-1.63,.37-1.66,.95-.03,.63,.8,.59,1.23,.55,12.89-1.22,25.88-1.31,38.78-.23,.59,.05,1.36-.03,1.81,.44,.41,.42,.44,1.33,.5,1.86,.08,.71,.14,1.43,.16,2.14,.02,.4,.03,.8,.02,1.2,.02,.26,0,.52-.05,.77-.1,.3,.05,.28,.43-.05-.06,.14-4.32-.42-4.68-.45-1.59-.13-3.17-.25-4.76-.35-6.5-.4-13.03-.46-19.54-.19-3.53,.15-7.06,.51-10.59,.44-.65-.01-2.15,.19-2.69-.31-.46-.42-.3-1.52-.3-2.05,0-1.78,.02-3.56,.03-5.35,0-.8-2.89-.29-2.9,.78h0Z"></path></g><path class="cls-5" d="M416.46,276.04c13.82-.22,27.65-.45,41.47-.67,.57,0,1.62-.19,1.92-.77s-.24-.8-.77-.79c-13.82,.22-27.65,.45-41.47,.67-.57,0-1.62,.19-1.92,.77s.24,.8,.77,.79h0Z"></path><path class="cls-5" d="M418.94,282.46h6.57c.62,0,1.56-.51,1.59-1.21,.03-.77-.72-1.02-1.36-1.02h-6.57c-.62,0-1.56,.51-1.59,1.21-.03,.77,.72,1.02,1.36,1.02h0Z"></path><path class="cls-5" d="M432.3,281.45c4.72,.27,9.45,.54,14.17,.81,.68,.04,1.5-.12,2.05-.55,.42-.33,.41-.74-.21-.78l-14.17-.81c-.68-.04-1.5,.12-2.05,.55-.42,.33-.41,.74,.21,.78h0Z"></path><path class="cls-5" d="M418.12,290.54h16.69c.68,0,1.48-.15,2.05-.55,.41-.29,.44-.65-.17-.65h-16.69c-.68,0-1.48,.15-2.05,.55-.41,.29-.44,.65,.17,.65h0Z"></path><path class="cls-5" d="M422.51,306.33c.54,0,1.64-.21,1.93-.75s-.26-.68-.74-.68c-.54,0-1.64,.21-1.93,.75s.26,.68,.74,.68h0Z"></path><path class="cls-5" d="M428.23,305.5v.51c.03,.08,.09,.13,.17,.15,.11,.05,.22,.08,.34,.08,.17,.01,.33,0,.49-.02,.19-.02,.38-.05,.57-.11l.38-.12c.21-.08,.42-.17,.61-.3l.2-.16c.1-.08,.14-.18,.13-.3v-.51c-.03-.08-.09-.13-.17-.15-.11-.05-.22-.08-.34-.08-.17-.01-.33,0-.49,.02-.19,.02-.38,.05-.57,.11l-.38,.12c-.21,.08-.42,.17-.61,.3l-.2,.16c-.1,.08-.14,.18-.13,.3h0Z"></path><path class="cls-5" d="M436.21,306.5c.61,0,1.62-.19,1.91-.82,.27-.59-.23-.96-.81-.96s-1.62,.19-1.91,.82c-.27,.59,.23,.96,.81,.96h0Z"></path><path class="cls-5" d="M42.07,321.21c-.39,3.41,.25,6.75,1.96,9.73,.47,.83,2.36,.24,2.79-.39,2.03-3,3.76-6.18,5.17-9.52l-2.89,.59c1.09,3.7,2.17,7.41,3.26,11.11,.29,.99,2.64,.08,2.89-.59,.68-1.79,1.35-3.58,2.03-5.37,.33-.86,.62-1.75,.98-2.59,.39-.4,.31-.62-.22-.64l.27,.09c.32,.24,.63,.41,.91,.72,1.99,2.18,.52,5.61,2.66,7.78,.59,.6,2.26,.05,2.69-.55,1.97-2.78,3.94-5.56,5.92-8.34l-2.69,.55c2.07,2.33,3.49,5.06,4.25,8.08,.22,.9,2.19,.13,2.6-.2,2.75-2.21,5.13-4.82,7.07-7.76-.93,.13-1.86,.26-2.79,.39,.9,2.65,2.36,5.03,4.3,7.05,.55,.57,2.65,.06,2.79-.75,.56-3.06,2.15-5.72,4.65-7.57l-2.6,.2c.53,3.77,1.99,7.26,4.24,10.32,.47,.64,2.66,0,2.79-.75,.75-4.26,2.42-8.23,4.95-11.74-.9,.18-1.79,.37-2.69,.55,1.73,2.62,2.56,5.75,2.36,8.88-.07,1.1,2.66,.43,2.89-.4,.78-2.87,2.23-5.41,4.29-7.55l-2.79,.39c1.1,3.39,2.76,6.52,4.93,9.35,.51,.67,2.6-.02,2.79-.75,.89-3.32,2.33-6.39,4.31-9.19l-2.79,.39c.42,3.15,1.38,6.15,2.85,8.97,.45,.86,2.36,.21,2.79-.39,1.98-2.8,3.96-5.6,5.95-8.41l-2.79,.39c.33,3.37,1.65,6.48,3.81,9.09,.53,.64,2.3,.01,2.69-.55,2.14-3.11,4.29-6.22,6.43-9.32-.93,.13-1.86,.26-2.79,.39,1.12,3.1,2.48,6.09,4.06,8.98,.51,.94,2.52,.13,2.89-.59,1.6-3.1,3.64-5.93,6.03-8.46l-2.79,.39c1.24,2.78,2.49,5.56,3.73,8.33,.44,.99,2.55,.08,2.89-.59,1.66-3.21,4.06-5.92,7.01-7.99l-2.6,.2c1.01,3.07,2.02,6.15,3.04,9.22,.34,1.04,2.58,.02,2.89-.59,1.63-3.16,3.43-6.23,5.37-9.22-.93,.13-1.86,.26-2.79,.39,.16,3.21,.75,6.35,1.78,9.4,.31,.92,2.43,.13,2.79-.39,2.09-3.09,4.19-6.17,6.28-9.26l-2.79,.39c-.02,3.08,.57,6.06,1.74,8.91,.36,.87,2.44,.2,2.79-.39,1.71-2.88,3.42-5.76,5.14-8.64l-2.79,.39c1.49,2.81,2.99,5.63,4.48,8.44,.47,.89,2.59,.18,2.89-.59,1.25-3.19,2.51-6.39,3.76-9.58l-2.89,.59c.03,2.99,.6,5.88,1.69,8.66,.37,.93,3.22,.05,2.9-.78-1.09-2.78-1.66-5.68-1.69-8.66,0-.96-2.65-.02-2.89,.59-1.25,3.19-2.51,6.39-3.76,9.58l2.89-.59c-1.49-2.81-2.99-5.63-4.48-8.44-.43-.82-2.4-.25-2.79,.39-1.71,2.88-3.42,5.76-5.14,8.64,.93-.13,1.86-.26,2.79-.39-1.17-2.84-1.76-5.83-1.74-8.91,0-.94-2.51-.01-2.79,.39-2.09,3.09-4.19,6.17-6.28,9.26,.93-.13,1.86-.26,2.79-.39-1.03-3.05-1.63-6.19-1.78-9.4-.05-.94-2.51-.03-2.79,.39-2.02,3.11-3.88,6.31-5.58,9.61l2.89-.59c-1.01-3.07-2.02-6.15-3.04-9.22-.3-.9-2.14-.12-2.6,.2-3.23,2.28-5.79,5.26-7.6,8.77l2.89-.59c-1.24-2.78-2.49-5.56-3.73-8.33-.42-.95-2.33-.09-2.79,.39-2.5,2.65-4.57,5.62-6.24,8.86l2.89-.59c-1.58-2.89-2.94-5.88-4.06-8.98-.33-.91-2.42-.14-2.79,.39-2.14,3.11-4.29,6.22-6.43,9.32l2.69-.55c-2.08-2.51-3.3-5.52-3.61-8.77-.09-.97-2.49-.02-2.79,.39-1.98,2.8-3.96,5.6-5.95,8.41l2.79-.39c-1.47-2.82-2.43-5.82-2.85-8.97-.13-.97-2.48-.04-2.79,.39-2.07,2.91-3.6,6.14-4.52,9.58,.93-.25,1.86-.5,2.79-.75-2.09-2.73-3.67-5.76-4.73-9.03-.32-.99-2.38-.03-2.79,.39-2.15,2.24-3.68,4.95-4.5,7.94,.96-.13,1.92-.27,2.89-.4,.23-3.45-.63-6.69-2.54-9.58-.46-.7-2.32,.04-2.69,.55-2.61,3.62-4.38,7.74-5.16,12.13,.93-.25,1.86-.5,2.79-.75-2.18-2.96-3.53-6.37-4.04-10-.13-.92-2.24-.07-2.6,.2-2.74,2.03-4.63,4.99-5.25,8.35,.93-.25,1.86-.5,2.79-.75-1.87-1.93-3.24-4.18-4.1-6.73-.31-.91-2.44-.14-2.79,.39-1.85,2.8-4.08,5.27-6.69,7.38l2.6-.2c-.78-3.13-2.3-5.98-4.44-8.4-.56-.63-2.28-.02-2.69,.55-1.97,2.78-3.94,5.56-5.92,8.34l2.69-.55c-1.53-1.56-1.01-3.83-1.53-5.76-.43-1.6-1.77-3.08-3.48-3.24-1.96-.17-3.55,.94-4.27,2.71-1.04,2.57-1.97,5.19-2.95,7.79l2.89-.59c-1.09-3.7-2.17-7.41-3.26-11.11-.3-1.01-2.62-.05-2.89,.59-1.36,3.21-3.01,6.25-4.96,9.13l2.79-.39c-1.63-2.85-2.34-6.08-1.97-9.36,.12-1.05-2.78-.5-2.89,.4h0Z"></path><path class="cls-5" d="M43.78,342.26c25.72,.52,51.45,.72,77.17,.6,7.3-.04,14.61-.1,21.91-.18,.64,0,1.52-.16,2.05-.55,.38-.28,.48-.54-.14-.53-25.72,.31-51.45,.29-77.17-.05-7.3-.1-14.6-.22-21.9-.37-.63-.01-1.53,.17-2.05,.55-.4,.29-.46,.52,.14,.53h0Z"></path><path class="cls-5" d="M47.89,349.08c14.57-.46,29.18,.7,43.72,1.45,.64,.03,1.55-.09,2.05-.55,.37-.34,.45-.74-.21-.77-14.75-.76-29.57-1.94-44.35-1.47-.53,.02-1.64,.21-1.93,.73s.26,.62,.72,.61h0Z"></path><path class="cls-5" d="M246.38,320.62c-1.9-.87-3.78,.68-4.75,2.17s-1.83,3.1-2.09,4.86c-.22,1.5,.12,3.11,1.14,4.27,.96,1.08,2.27,1.66,3.66,1.94,2.9,.57,6.24-.29,8.55-2.14,1.24-.99,2.35-2.41,2.4-4.06,.05-1.67-.84-3.21-2-4.35-2.62-2.6-6.58-3.52-10.11-2.52-.56,.16-1.37,.68-1.18,1.37s1.16,.75,1.71,.6c1.96-.55,4.23-.14,6.03,1.1,1.77,1.23,3.56,3.68,2.01,5.75-.63,.85-1.55,1.39-2.5,1.8-.46,.2,.14-.04-.14,.06-.13,.04-.25,.08-.38,.12-.21,.06-.42,.11-.63,.16-.35,.08-.2,.05-.57,.09-.3,.03-.59,.05-.89,.06-.68,0-1.67-.16-2.37-.54-.81-.44-1.41-1.15-1.68-2.04-.43-1.41,.03-2.9,.65-4.18,.32-.65,.68-1.31,1.09-1.91,.15-.21,.31-.43,.49-.6,.04-.03,.27-.22,.28-.21-.06,.09-.17,.12-.31,.09-.29-.05-.31-.03-.08,.05,1.2,.55,3.35-1.18,1.68-1.94h0Z"></path><path class="cls-5" d="M260.89,325.16c2.75-.21,5.49-.42,8.24-.62,.62-.05,1.46-.25,1.95-.67s-.45-.4-.66-.38c-2.75,.21-5.49,.42-8.24,.62-.62,.05-1.46,.25-1.95,.67s.45,.4,.66,.38h0Z"></path><path class="cls-5" d="M262.95,329.83h4.64c.36,0,.81-.19,1.09-.4,.22-.17,.49-.49,.5-.79,.03-.76-.73-.99-1.35-.99h-4.64c-.36,0-.81,.19-1.09,.4-.22,.17-.49,.49-.5,.79-.03,.76,.73,.99,1.35,.99h0Z"></path><path class="cls-5" d="M281.09,320.2c-1.71,2.11-2.79,5.03-1.92,7.73,.75,2.33,3.04,3.97,5.47,4.09,1.44,.07,2.93-.34,4.07-1.25,1.17-.95,1.94-2.21,2.4-3.64,.78-2.41,.37-5.35-1.63-7.06-2.3-1.97-6.04-1.81-8.19,.29-.47,.46-.25,1.1,.34,1.29,.7,.22,1.54-.05,2.05-.55,.28-.27-.19,.1,.13-.12,.07-.05,.14-.1,.21-.14-.31,.2,.52-.19,.1-.05,.09-.03,.22-.04,.3-.09,.18-.1-.32,.02,.04-.01,.11,0,.21-.02,.32-.03,.1,0,.09,0-.05,0,.09,0,.17,0,.26,.01,.65,.05,1.38,.29,2.03,.82,1.46,1.2,1.75,3.4,1.36,5.18-.2,.93-.61,1.87-1.25,2.59-.1,.11-.32,.33-.37,.38-.12,.1-.25,.19-.39,.27,.18-.1-.02,0-.05,.01-.06,.02-.45,.14-.1,.05-.08,.02-.16,.04-.24,.07,.34-.1-.03,0-.1,.01-.07,0-.43,0-.13,.02-.21,0-.43-.02-.63-.07,.2,.04-.02,0-.05-.02-.12-.04-.25-.07-.37-.11-.31-.11-.65-.29-1-.53-.67-.47-1.25-1.17-1.54-1.96-.81-2.19-.08-4.68,1.34-6.44,.4-.5,.3-1.08-.34-1.29s-1.62,.01-2.05,.55h0Z"></path><path class="cls-5" d="M297.85,323.92c4.14-.99,8.42-1.25,12.65-.79,.67,.07,1.58-.22,1.89-.87s-.28-1.1-.87-1.17c-4.75-.51-9.54-.19-14.19,.92-.56,.13-1.36,.67-1.19,1.34s1.18,.69,1.7,.57h0Z"></path><path class="cls-5" d="M298,327.92c1.8,.65,3.71,.86,5.6,.59,.38-.05,.77-.17,1.1-.37,.19-.12,.51-.37,.55-.63,.08-.65-.82-.71-1.26-.65-.2,.03-.4,.05-.6,.07-.08,0-.18,0-.26,.02,.34-.07,.15,0,.02,0-.37,0-.74-.01-1.11-.04-.3-.02,.28,.04-.02,0-.08-.01-.17-.02-.25-.04-.2-.03-.39-.07-.59-.11-.17-.04-.33-.08-.5-.13-.08-.02-.16-.05-.25-.07-.12-.04-.11-.03,.02,.01-.05-.02-.11-.04-.16-.06-.66-.24-1.47-.13-2.05,.26-.21,.14-.51,.35-.55,.63-.03,.22,.07,.45,.3,.54h0Z"></path><path class="cls-1" d="M225.12,279.87c-.2-.62-.4-1.23-.6-1.85-5.12-15.39-10.79-30.87-20-43.31-.4-.54-.82-1.09-1.04-1.76-.69-2.06,.65-4.35,.42-6.55-.33-3.03-3.3-4.46-5.82-5.12-5.93-1.55-12.02-2.22-18.08-2.01-6.26-.21-12.54,.46-18.66,2.01-2.61,.66-5.67,2.09-6.01,5.12-.24,2.2,1.14,4.48,.43,6.55-.23,.67-.66,1.22-1.07,1.76-9.5,12.44-15.35,27.93-20.64,43.31-.21,.61-.41,1.23-.62,1.85h91.7Z"></path><path class="cls-5" d="M198.02,231.63c-2.58-1.65-5.59-2.34-8.57-2.86-3.18-.56-6.41-.83-9.64-.83-6.33,0-12.61,1.07-18.6,3.11-.97,.33-.06,.54,.51,.35,5.81-1.97,11.93-2.94,18.07-2.84,2.92,.05,5.83,.32,8.7,.83,2.85,.51,5.71,1.17,8.17,2.75,.35,.22,1.58-.36,1.36-.5h0Z"></path><path class="cls-5" d="M159.22,259.77c-1.07,2.08-1.73,4.34-1.98,6.67-.02,.17,1.4,.04,1.45-.39,.24-2.28,.91-4.5,1.96-6.54,.12-.23-.51-.14-.58-.13-.24,.04-.72,.14-.85,.39h0Z"></path><path class="cls-5" d="M162.57,259.44c-.27,1.89-.54,3.79-.81,5.68-.1,.7,1.38,.5,1.46-.12,.27-1.89,.54-3.79,.81-5.68,.1-.7-1.38-.5-1.46,.12h0Z"></path><path class="cls-5" d="M190.92,249.72c.49,1.3,.98,2.59,1.48,3.89,.09,.22,.63,.08,.79,.04,.11-.03,.74-.21,.66-.43-.49-1.3-.98-2.59-1.48-3.89-.09-.22-.63-.08-.79-.04-.11,.03-.74,.21-.66,.43h0Z"></path><path class="cls-5" d="M195.95,249.13c.19,1.1,.38,2.19,.58,3.29,.02,.09,.2,.12,.26,.12,.17,.02,.37-.02,.53-.06,.17-.05,.35-.11,.49-.21,.07-.05,.18-.13,.16-.23-.19-1.1-.38-2.19-.58-3.29-.02-.09-.2-.12-.26-.12-.17-.02-.37,.02-.53,.06-.17,.05-.35,.11-.49,.21-.07,.05-.18,.13-.16,.23h0Z"></path><g><path class="cls-1" d="M162.2,225.02c-3.82-12.78-5.03-26.74-3.54-39.89,.45-4.02,1.28-8.25,4.29-11.31,4.44-4.52,12.08-5.11,18.9-5.37,3.12-.12,6.29-.24,9.32,.41,3.03,.65,5.96,2.17,7.39,4.59,.87,1.47,1.13,3.15,1.33,4.79,1.99,15.77,.56,31.85-4.18,47.17"></path><path class="cls-5" d="M162.92,224.82c-2.76-9.32-4.16-19.02-4.15-28.74,0-4.55,.21-9.19,.99-13.68,.72-4.15,2.42-7.98,6.13-10.25,3.39-2.08,7.56-2.67,11.45-2.98,4.54-.37,9.51-.86,13.96,.26,2.01,.51,4.04,1.41,5.51,2.92,1.57,1.61,2.04,3.71,2.33,5.87,.64,4.85,.92,9.76,.89,14.66-.07,11.05-1.81,22.04-5.05,32.59-.19,.62,1.28,.44,1.46-.14,3.11-10.1,4.84-20.61,5.03-31.18,.1-5.15-.16-10.3-.77-15.41-.26-2.15-.54-4.4-1.87-6.19-1.16-1.57-2.87-2.64-4.65-3.36-4.32-1.76-9.23-1.39-13.79-1.16-4.18,.2-8.46,.58-12.4,2.07-3.67,1.39-6.72,3.89-8.3,7.53-1.78,4.11-2.01,8.87-2.25,13.28-.62,11.55,.73,23.21,4.02,34.3,.18,.61,1.63,.22,1.45-.39h0Z"></path></g><path class="cls-5" d="M170.51,201.9c.06,.85,.11,1.69,.17,2.54,0,.12,.2,.19,.28,.21,.17,.04,.38,.02,.54-.03,.26-.08,.64-.24,.62-.57-.06-.85-.11-1.69-.17-2.54,0-.12-.2-.19-.28-.21-.17-.04-.38-.02-.54,.03-.26,.08-.64,.24-.62,.57h0Z"></path><path class="cls-5" d="M187.24,202.82v-.69c.02-.13-.02-.22-.14-.28-.13-.07-.34-.08-.48-.06-.19,.03-.39,.08-.55,.19-.1,.07-.26,.19-.27,.32-.05,.77-.16,1.53-.31,2.29-.07,.33,.42,.38,.64,.35,.19-.03,.39-.08,.55-.19,.11-.08,.24-.18,.27-.32,.16-.75,.26-1.52,.31-2.29l-1.45,.17v.69c-.02,.13,.02,.22,.14,.28,.13,.07,.34,.08,.48,.06,.19-.03,.39-.08,.55-.19,.1-.07,.27-.19,.27-.32h0Z"></path><path class="cls-5" d="M167.18,198.49c2.2-1.11,4.73-1.17,7.01-.27,.52,.2,1.69-.54,.87-.87-2.72-1.07-5.88-.87-8.48,.44-.22,.11-.57,.37-.37,.65,.19,.26,.73,.17,.97,.05h0Z"></path><path class="cls-5" d="M183.42,198.19c2.56-1.6,5.94-1.37,8.39,.33,.47,.33,1.77-.34,1.13-.78-3.08-2.13-7.31-2.08-10.45-.12-.25,.16-.37,.49-.1,.68,.29,.21,.76,.06,1.03-.11h0Z"></path><path class="cls-5" d="M176.62,211.3c1.03,.77,2.54,.67,3.56-.04,.24-.16,.38-.54,.08-.73-.32-.19-.75-.11-1.04,.09-.02,.01-.04,.03-.06,.04-.09,.06,.06-.04,.06-.04,0,0-.12,.06-.13,.07-.04,.02-.21,.09-.08,.04s-.03,0-.07,.02c-.05,.01-.1,.02-.15,.04-.09,.02,.18-.03,.09-.01-.02,0-.05,0-.07,.01-.05,0-.1,.01-.15,.01-.02,0-.05,0-.07,0-.08,0,.19,0,.05,0-.1,0-.2-.02-.3-.03-.09-.01,.03,0,.06,.01-.02,0-.05-.01-.07-.02-.05-.01-.1-.03-.14-.04s-.09-.03-.14-.05c-.02,0-.12-.06-.03-.01,.08,.04,0,0-.01,0-.09-.05-.18-.11-.27-.17-.13-.1-.34-.12-.49-.1-.18,.01-.4,.08-.55,.2-.24,.19-.37,.51-.08,.73h0Z"></path><path class="cls-5" d="M161.09,167.85c2.74-6.7,8.66-12.44,15.97-13.66,4.04-.67,8.14,.31,12.2-.24,4.24-.58,8.29-2.09,12.26-3.64h-.98c2.94,7.32,2.88,15.67-.19,22.93-.04,.1,.05,.14,.12,.17,1.99,.81,3.74,2.09,5.14,3.72,1.49,1.73,2.96,4.14,2.79,6.52s-1.96,4.66-3.21,6.59c-1.5,2.31-3.13,4.54-4.86,6.68l1.38-.24c-.65-4.36-1.91-8.62-3.82-12.6-.46-.96-.96-1.91-1.49-2.83-.35-.6-.84-1.87-1.43-2.24-.26-.17-.85-.1-1.15-.13-.65-.06-1.31-.12-1.96-.18-1.31-.12-2.62-.23-3.93-.34-4.78-.38-9.59-.59-14.39-.34-2.27,.12-4.61,.27-6.84,.76-1.58,.35-2.97,1.04-3.92,2.38-1.36,1.92-2.2,4.34-3.07,6.51-1.01,2.51-1.9,5.07-2.69,7.66l1.44-.31c-1.79-4.2-3.3-8.51-4.48-12.92-.54-1.99-1.19-4.28-.02-6.18,1.05-1.7,3.08-2.32,4.96-2.5,.19-.02,1.11-.17,1.03-.51-.26-1.08-.22-2.07,.12-3.14,.1-.32-1.31-.15-1.43,.24-.35,1.1-.4,2.16-.14,3.28l1.03-.51c-3.54,.33-7.78,1.94-7.68,6.15,.07,2.74,1.23,5.64,2.06,8.23,.91,2.79,1.94,5.54,3.09,8.24,.15,.36,1.35-.01,1.44-.31,1.19-3.92,2.63-7.76,4.33-11.48,.96-2.1,1.86-3.94,4.35-4.39,2.22-.4,4.52-.54,6.77-.63,4.45-.18,8.91,.05,13.34,.4,1.06,.08,2.13,.18,3.19,.27,.91,.08,2.39-.05,3.17,.41,.69,.4,1.16,1.62,1.55,2.32,.49,.87,.95,1.76,1.37,2.66,1.86,3.93,3.08,8.11,3.72,12.4,.06,.38,1.25-.07,1.38-.24,2.41-2.98,4.62-6.12,6.58-9.42,.84-1.41,1.66-2.91,1.63-4.6s-.93-3.48-1.92-4.91c-.84-1.22-1.85-2.31-3.02-3.21-.63-.49-1.31-.92-2.02-1.29-.2-.1-.59-.2-.75-.35-.37-.36-.09-.73,.09-1.2,1.2-3.18,1.82-6.57,1.9-9.97,.09-4.09-.64-8.16-2.16-11.95-.11-.28-.82-.06-.98,0-4.73,1.85-9.63,3.69-14.79,3.64-3.94-.04-7.62-.52-11.47,.63-6.86,2.05-12.4,7.3-15.1,13.9-.12,.29,1.27,.15,1.43-.24h0Z"></path><g><path class="cls-1" d="M160.01,200.37c-1.34-1.21-3.46-1.46-5.08-.64-1.62,.82-2.66,2.64-2.57,4.43,.09,1.79,1.27,3.48,2.93,4.21,1.77,.79,3.81,.53,5.73,.21"></path><path class="cls-5" d="M160.68,200.07c-2.46-2.14-6.47-1.46-8.22,1.24-.82,1.26-1.07,2.85-.58,4.29s1.59,2.62,2.98,3.2c1.93,.81,4.07,.55,6.07,.22,.28-.05,.76-.18,.81-.53s-.41-.41-.64-.37c-1.43,.23-2.94,.48-4.38,.15-1.26-.3-2.32-1.07-2.99-2.18-1.26-2.08-.55-5.27,1.85-6.18,1.26-.48,2.76-.12,3.76,.75,.26,.23,.67,.18,.97,.05,.17-.08,.63-.41,.37-.64h0Z"></path></g><g><path class="cls-1" d="M199.3,200.37c1.34-1.21,3.46-1.46,5.08-.64s2.66,2.64,2.57,4.43-1.27,3.48-2.93,4.21c-1.77,.79-3.81,.53-5.73,.21"></path><path class="cls-5" d="M199.96,200.31c1.96-1.71,4.8-.29,5.81,1.8,1.06,2.2,.16,5.16-2.15,6.17-1.44,.63-3.23,.26-4.72,.02-.33-.05-.71,.04-1.01,.19-.11,.05-.51,.31-.18,.37,1.83,.3,3.7,.51,5.53,.03,1.59-.42,3.02-1.34,3.83-2.79,1.55-2.78-.1-6.44-3.25-7.04-1.77-.34-3.81,.18-5.17,1.37-.25,.22,.22,.24,.34,.23,.32-.02,.72-.13,.97-.34h0Z"></path></g><path class="cls-5" d="M155.44,174.65c-1.35,4.85-.9,10,1.27,14.54,.17,.35,.81,.64,1.12,.8,.08,.04,1.05,.45,1.04,.36-.72-4.99,.62-10.04,3.72-14.02l-2.17-1.24c-1.02,3.83-1.92,7.68-2.7,11.57-.09,.45,2.13,1.37,2.17,1.24,1.92-5.99,4.24-12.19,9.21-16.34l-2.17-1.24c-1.93,3.02-4.15,5.81-6.66,8.36l2.17,1.24c.26-3.45,2.12-6.53,5.06-8.36l-2.17-1.24c-2.15,2.76-5.07,4.74-8.44,5.7l2.11,1.26c1.41-1.58,3.15-2.67,5.21-3.21l.07-.02c-.87-7.6,6.41-13.17,12.66-15.68,7.67-3.08,16.13-3.18,23.93-5.82l-2.11-1.26c-6.05,4.24-13.75,4.18-20.43,6.88-6.37,2.57-11.58,7.58-14.53,13.76,.72,.41,1.45,.82,2.17,1.24,4.2-9.52,14.63-13.15,23.8-16.1l-2.11-1.26c-4.23,2.3-8.28,4.91-12.09,7.85-1.88,1.45-3.7,2.97-5.45,4.56-1.56,1.41-3.73,2.99-3.92,5.25-.03,.36,1.94,1.49,2.17,1.24,6.8-7.19,15.27-12.38,23.67-17.48-.08,.05-1.64-1.55-2.17-1.24-4.44,2.54-8.73,5.34-12.83,8.4-3.86,2.88-7.92,5.88-10.69,9.88-.12,.17,1.88,1.52,2.17,1.24,6.44-6.11,13.51-11.51,21.08-16.14l-2.17-1.24c-5.29,4.44-10.19,9.3-14.68,14.55-.1,.11,1.82,1.52,2.17,1.24,6.4-5.27,12.8-10.53,19.2-15.8l-2.17-1.24c-4.64,4.52-9.27,9.03-13.91,13.55-.11,.11,1.76,1.38,2.11,1.26,3.19-1.09,5.6-3.87,8.03-6.08,2.91-2.65,5.82-5.3,8.74-7.95-.72-.41-1.45-.82-2.17-1.24-3.37,3.22-6.05,7.05-7.93,11.32-.12,.27,1.92,1.48,2.17,1.24,3.61-3.57,6.63-7.65,9-12.14,.15-.29-1.81-1.33-2.11-1.26-3,.67-5.57,2.31-8.1,4l2.17,1.24c3.87-2.63,7.74-5.27,11.61-7.9l-2.17-1.24c-1.02,6.6-6.8,10.97-9.11,17.03-.13,.33,1.86,1.4,2.17,1.24,4.88-2.55,6.99-7.97,8.77-12.86l-1.72-.78c.86,.61,.65,2.16,.46,3.02-.3,1.34-.95,2.58-1.51,3.82-1.34,3-2.67,6.01-4.01,9.01-.13,.28,1.89,1.45,2.17,1.24,3.01-2.28,4.95-5.61,5.46-9.34l-2.16-1.17c1.33,2.89,.04,5.92-1.83,8.23-.73,.9-1.71,2.25-2.8,2.73-.69,.04-.81,.13-.37,.28,.31,.21,.33,.14,.08-.19,0-.38-.21-.8-.2-1.22,.03-.79,.32-1.55,.59-2.28,.11-.3-1.94-1.48-2.17-1.24-1.91,1.97-3.82,3.95-5.73,5.92l2.17,1.24c1.4-2.39,2.8-4.77,4.2-7.16,.14-.24-1.85-1.42-2.17-1.24-3.72,2.17-5.63,6.58-9.72,8.2l2.17,1.24c1.76-2.71,3.52-5.41,5.28-8.12,.12-.19-1.89-1.51-2.17-1.24-2.74,2.6-5.58,5.08-8.53,7.43l2.17,1.24c.85-2.21,2.1-4.19,3.73-5.91,.07-.08-1.84-1.57-2.17-1.24-1.94,1.96-4.05,3.71-6.33,5.25l2.17,1.24c.88-2.13,1.99-4.13,3.33-6,.12-.16-1.86-1.51-2.17-1.24-2.69,2.4-5.54,4.62-8.54,6.63l2.17,1.24c.39-1.23,.77-2.46,1.16-3.69,.1-.32-1.93-1.48-2.17-1.24-.63,.63-1.27,1.26-1.9,1.89-.26,.25-1.47,1.78-1.85,1.64l1.69,1.01v-.4c.12-.23-1.95-1.51-2.18-1.24-.76,.89-1.52,1.78-2.28,2.67-.14,.17,1.79,1.35,2.11,1.26,3.68-1.02,7.46-1.66,11.27-1.88,1.91-.11,3.82-.12,5.72-.02,1.73,.09,3.42,.28,5.1-.26,.23-.07-1.5-1.13-1.72-1.21,.42,.15-.17-.76-.26-1.03-.22-.67-.23-1.33-.12-2.02,.22-1.31,.89-2.49,1.57-3.62,.13-.22-1.95-1.52-2.17-1.24-2.06,2.59-4.35,4.96-6.88,7.11,.72,.41,1.45,.82,2.17,1.24,1.2-1.86,2.59-3.55,4.2-5.08,.07-.06-1.76-1.49-2.17-1.24-3.35,2.05-5.56,7.11-10.09,6.64,.68,.43,1.36,.86,2.04,1.29,5.47,.24,10.95,.48,16.42,.72l.07-.02c.37-1.3,.75-2.6,1.12-3.9,.13-.44-2.14-1.36-2.17-1.24-.36,1.21-.72,2.42-1.08,3.62-.11,.37,2.07,1.44,2.17,1.24,.59-1.18,1.45-2.03,2.64-2.6l-2.17-1.24c-.06,1.51-.11,3.02-.17,4.53-.01,.36,1.99,1.49,2.17,1.24,1.24-1.71,2.49-3.42,3.73-5.13l-2.17-1.24c-.68,1.68-1.35,3.36-2.03,5.03-.12,.29,1.95,1.49,2.17,1.24,1.28-1.44,2.56-2.87,3.84-4.31-.72-.41-1.45-.82-2.17-1.24-.75,1.99-1.5,3.97-2.25,5.96-.12,.31,2,1.48,2.17,1.24,.87-1.26,1.73-2.51,2.6-3.77,.13-.19-1.96-1.54-2.17-1.24-.87,1.26-1.73,2.51-2.6,3.77l2.17,1.24c.75-1.99,1.5-3.97,2.25-5.96,.11-.3-1.95-1.49-2.17-1.24-1.28,1.44-2.56,2.87-3.84,4.31l2.17,1.24c.68-1.68,1.35-3.36,2.03-5.03,.12-.3-1.99-1.49-2.17-1.24-1.24,1.71-2.49,3.42-3.73,5.13l2.17,1.24c.06-1.51,.11-3.02,.17-4.53,.02-.42-1.82-1.41-2.17-1.24-1.19,.57-2.06,1.42-2.64,2.6l2.17,1.24c.36-1.21,.72-2.42,1.08-3.62-.72-.41-1.45-.82-2.17-1.24-.21,.72-.41,1.44-.62,2.16-.28,.96-.34,1.59-1.43,1.66-1.7,.12-3.52-.15-5.22-.23-3.4-.15-6.8-.3-10.2-.45-.26-.01,.6,.62,.64,.65,.41,.26,.91,.59,1.41,.64,4.59,.47,6.82-4.61,10.22-6.69l-2.17-1.24c-1.6,1.53-3,3.22-4.2,5.08-.13,.2,1.87,1.49,2.17,1.24,2.52-2.14,4.82-4.51,6.88-7.11-.72-.41-1.45-.82-2.17-1.24-1.06,1.77-2.15,3.85-1.37,5.94,.59,1.58,2.23,2.57,3.75,3.09l-1.72-1.21c-1.67,.54-3.37,.35-5.1,.26-1.91-.1-3.82-.09-5.72,.02-3.82,.22-7.59,.87-11.27,1.88l2.11,1.26c.76-.89,1.52-1.78,2.28-2.67l-2.17-1.24c-.44,.81,1.66,1.85,2.3,1.9,.74,.06,1.23-.68,1.7-1.15,.81-.8,1.62-1.61,2.42-2.41l-2.17-1.24c-.39,1.23-.77,2.46-1.16,3.69-.1,.33,1.88,1.43,2.17,1.24,3-2.01,5.84-4.23,8.54-6.63l-2.17-1.24c-1.34,1.87-2.45,3.87-3.33,6-.12,.3,1.88,1.44,2.17,1.24,2.28-1.54,4.39-3.3,6.33-5.25l-2.17-1.24c-1.63,1.72-2.88,3.69-3.73,5.91-.12,.3,1.9,1.46,2.17,1.24,2.95-2.35,5.8-4.83,8.53-7.43-.72-.41-1.45-.82-2.17-1.24-1.76,2.71-3.52,5.41-5.28,8.12-.16,.25,1.85,1.37,2.17,1.24,4.09-1.63,6-6.03,9.72-8.2l-2.17-1.24c-1.4,2.39-2.8,4.77-4.2,7.16-.13,.22,1.91,1.51,2.17,1.24,1.91-1.97,3.82-3.95,5.73-5.92l-2.17-1.24c-.67,1.82-1,3.6,.72,4.89,1.17,.88,2.65,1.68,3.98,.7,3.14-2.33,5.93-6.93,4.15-10.81-.14-.31-2.14-1.31-2.16-1.17-.51,3.74-2.46,7.07-5.46,9.34l2.17,1.24c1.57-3.52,3.14-7.03,4.7-10.55,.97-2.18,1.71-4.64-.54-6.22-.12-.08-1.63-1.02-1.72-.78-1.77,4.9-3.88,10.31-8.77,12.86l2.17,1.24c2.31-6.06,8.09-10.44,9.11-17.03,.06-.37-1.87-1.44-2.17-1.24-3.87,2.63-7.74,5.27-11.61,7.9,.05-.03,1.68,1.57,2.17,1.24,2.49-1.66,5.01-3.29,7.97-3.95-.7-.42-1.4-.84-2.11-1.26-2.36,4.49-5.39,8.57-9,12.14l2.17,1.24c1.88-4.27,4.56-8.1,7.93-11.32,.05-.05-1.8-1.58-2.17-1.24-2.79,2.54-5.58,5.08-8.37,7.62-2.48,2.26-5.01,5.25-8.26,6.36l2.11,1.26c4.64-4.52,9.27-9.03,13.91-13.55,.06-.06-1.79-1.55-2.17-1.24-6.4,5.27-12.8,10.53-19.2,15.8l2.17,1.24c4.49-5.24,9.39-10.11,14.68-14.55,.03-.03-1.73-1.51-2.17-1.24-7.58,4.63-14.64,10.03-21.08,16.14l2.17,1.24c2.77-4,6.83-7.01,10.69-9.88,4.1-3.06,8.39-5.85,12.83-8.4l-2.17-1.24c-8.4,5.1-16.87,10.29-23.67,17.48l2.17,1.24c.18-2.2,2.24-3.72,3.76-5.1,1.81-1.64,3.68-3.21,5.61-4.71,3.81-2.94,7.86-5.55,12.09-7.85-.06,.03-1.61-1.42-2.11-1.26-9.21,2.95-19.71,6.58-23.93,16.15-.14,.33,2.07,1.46,2.17,1.24,2.95-6.18,8.16-11.19,14.53-13.76,6.69-2.7,14.37-2.64,20.43-6.88,.02-.02-1.68-1.41-2.11-1.26-8.68,2.94-18.24,2.8-26.53,6.98-3.56,1.8-6.82,4.39-8.76,7.94-.55,1.01-.99,2.09-1.25,3.22-.13,.56-.22,1.13-.25,1.7-.03,.54,.2,1.37-.25,1.79-.21,.19-.89,.29-1.18,.41-.48,.2-.95,.44-1.4,.72-.9,.55-1.68,1.24-2.39,2.03-.14,.15,1.78,1.35,2.11,1.26,3.42-.97,6.39-2.94,8.57-5.75,.12-.16-1.82-1.46-2.17-1.24-2.94,1.83-4.8,4.91-5.06,8.36-.03,.36,1.93,1.49,2.17,1.24,2.51-2.55,4.73-5.34,6.66-8.36,.13-.2-1.87-1.49-2.17-1.24-4.96,4.16-7.28,10.35-9.21,16.34l2.17,1.24c.78-3.88,1.68-7.74,2.7-11.57,.09-.34-1.98-1.48-2.17-1.24-3.1,3.98-4.44,9.03-3.72,14.02l2.16,1.17c-2.15-4.51-2.59-9.59-1.25-14.4,.13-.45-2.14-1.35-2.17-1.24h0Z"></path><path class="cls-5" d="M201.42,173.54c-.92,2.36-1.84,4.71-2.76,7.07-.58,1.5-1.78,3.87-.08,5.11,.64,.47,1.45,.47,1.97-.19,2.03-2.55,3.84-5.26,5.42-8.11-.77-.2-1.55-.41-2.32-.61-.18,4.75-3.44,8.73-3.9,13.46-.11,1.08,1.44,1.41,2.12,.83,3.15-2.67,5.42-6.26,6.45-10.27-.8-.02-1.61-.03-2.41-.05,.32,2.11-1.34,4.24-2.36,5.94-1.17,1.95-2.38,3.87-3.62,5.77-.85,1.3,1.36,2.37,2.14,1.17,1.44-2.21,2.84-4.45,4.18-6.72,1.24-2.1,2.47-4.19,2.08-6.71-.17-1.12-2.14-1.09-2.41-.05-.93,3.64-2.91,6.86-5.78,9.29l2.12,.83c.46-4.72,3.72-8.65,3.9-13.46,.04-1.13-1.78-1.58-2.32-.61-1.58,2.85-3.39,5.56-5.42,8.11l1.97-.19c-.4-.29-.07-.98,.07-1.37,.36-.98,.76-1.95,1.14-2.93,.74-1.9,1.48-3.79,2.22-5.69,.55-1.4-1.88-1.97-2.4-.64h0Z"></path><path class="cls-5" d="M178.44,219.43c-1.95-.13-4.2-.33-5.42-2.09-.25-.35-.44-.78-.5-1.21-.01-.08-.02-.58-.03-.57,.11-.09,.57,.04,.7,.07,.84,.2,1.59,.68,2.33,1.11,1.62,.93,3.25,1.41,5.08,.76,.96-.34,1.64-.98,2.45-1.56,.43-.31,.87-.49,1.31-.09,.26,.24,.38,.59,.42,.93,.28,2.53-3.1,2.56-4.79,2.82-.2,.03-.82,.17-.83,.45-.01,.29,.41,.27,.61,.24,2-.3,5.24-.39,6.25-2.55,.34-.72,.35-1.71-.2-2.34-.73-.83-2.08-.58-2.96-.19-1.22,.55-2.07,1.91-3.51,1.88-1.18-.03-2.24-.78-3.23-1.34-.94-.53-1.92-.96-3.02-.92-.95,.03-2.13,.47-2.02,1.59,.12,1.2,1.11,2.2,2.12,2.75,1.32,.73,2.87,.85,4.35,.95,.32,.02,.78-.03,1.02-.27,.18-.18,.22-.41-.12-.43h0Z"></path><g><path class="cls-1" d="M295.79,282.79c-2.04-2.44-5.57-3.32-8.86-3.38-3.29-.06-225.36-.06-228.65,0-3.29,.06-6.81,.94-8.86,3.38-2.04,2.44-1.71,6.71,1.26,8.05,1.21,.55,2.6,.55,3.94,.53,39.33-.42,196.63-.42,235.96,0,1.34,.01,2.74,.02,3.94-.53,2.97-1.35,3.3-5.61,1.26-8.05Z"></path><path class="cls-5" d="M297.13,282.2c-3.35-3.81-8.53-3.68-13.17-3.68-4.16,0-8.31,0-12.47-.01-6.52,0-13.04,0-19.56,0-8.32,0-16.63,0-24.95,0-9.47,0-18.93,0-28.4,0-10,0-19.99,0-29.99,0-9.86,0-19.72,0-29.58,0-9.19,0-18.38,0-27.57,0-7.85,0-15.7,0-23.56,0-5.89,0-11.79,0-17.68,.01-3.3,0-6.61,0-9.91,.01-1.12,0-2.25,0-3.37,.11-3.43,.34-7.53,1.66-9.38,4.82-1.39,2.39-1.21,5.84,1.12,7.59,2.07,1.55,4.92,1.2,7.37,1.18,1.48-.01,2.96-.03,4.44-.04,3.56-.03,7.12-.05,10.67-.07,9.14-.05,18.29-.08,27.43-.1,11.16-.03,22.31-.05,33.47-.06,12.19-.02,24.38-.02,36.57-.02,12.28,0,24.55,0,36.83,.02,11.42,.01,22.84,.03,34.25,.06,9.58,.02,19.16,.05,28.74,.1,6.88,.03,13.76,.07,20.64,.14,2.89,.03,6.19,.08,8.2-2.37,1.82-2.21,1.57-5.48-.15-7.67-.66-.84-3.45,.2-2.68,1.17,1.81,2.3,1.7,6.81-1.88,7.1-1.65,.13-3.36,0-5.02-.01-3.21-.03-6.43-.05-9.64-.07-8.55-.05-17.11-.08-25.66-.11-10.62-.03-21.23-.05-31.85-.07-11.79-.02-23.59-.03-35.38-.03-12.08,0-24.17,0-36.25,0-11.49,0-22.97,.02-34.46,.05-10.04,.02-20.08,.05-30.12,.08-7.59,.03-15.18,.06-22.77,.12-1.45,.01-2.9,.02-4.35,.04-2.37,.02-5.48,.53-6.87-1.85-1.77-3.03,.3-6.41,3.25-7.57,1.44-.56,3-.75,4.54-.78,2.32-.03,4.65-.01,6.98-.01,4.99,0,9.99,0,14.98-.01,7.08,0,14.15,0,21.23,0,8.58,0,17.15,0,25.73,0,9.49,0,18.98,0,28.47,0,9.82,0,19.64,0,29.47,0,9.57,0,19.14,0,28.71,0,8.73,0,17.46,0,26.2,0,7.31,0,14.62,0,21.93,0,5.3,0,10.61,0,15.91,.01,2.71,0,5.43,0,8.14,.01,3.18,.01,6.52,.59,8.72,3.09,.71,.81,3.48-.26,2.68-1.17Z"></path></g><g><path class="cls-2" d="M207.07,279.36c-65.17,0-146.81,0-148.79,.04-3.29,.06-6.81,.94-8.86,3.38-2.04,2.44-1.71,6.71,1.26,8.05,1.21,.55,2.6,.55,3.94,.53,24.31-.26,93.7-.36,152.44-.3v-11.71Z"></path><path class="cls-5" d="M207.62,278.47c-26.27,0-52.53,0-78.8,0-19.56,0-39.13,0-58.69,.02-3.7,0-7.41-.03-11.11,.02-4.45,.06-10.46,1.43-12.04,6.25-.7,2.15-.22,4.77,1.6,6.22,1.99,1.58,4.75,1.3,7.14,1.27,19.57-.19,39.13-.21,58.7-.25,27.29-.05,54.58-.06,81.87-.04,3.41,0,6.83,0,10.24,0,.51,0,2-.27,2-1.06v-11.71c0-1.31-2.91-.75-2.91,.32v11.71c.67-.35,1.33-.7,2-1.06-26.95-.03-53.89-.02-80.84,.01-21.06,.03-42.12,.06-63.18,.21-1.68,.01-3.35,.02-5.03,.04-1.96,.02-4.3,.34-6.18-.16-2.51-.67-3.27-3.59-2.5-5.84,1-2.9,4.33-3.88,7.08-4.1,3.2-.25,6.48-.06,9.68-.06,18.07-.02,36.14-.02,54.21-.02,25.47,0,50.93,0,76.4,0,3.09,0,6.18,0,9.28,0,.61,0,1.61-.18,1.9-.82,.27-.59-.23-.97-.82-.97Z"></path></g><g><path class="cls-5" d="M210.95,276.34c-2.59-1.27-5.87-.66-8.12,1.14-2.26,1.8-3.55,4.61-3.93,7.47-.14,1.03-.17,2.09,0,3.12,.56,3.29,3.3,6.04,6.55,6.78,3.25,.74,6.83-.49,9.08-2.95,2.25-2.46,3.16-6.03,2.55-9.3-.28-1.48-.86-2.92-1.87-4.04-1.01-1.11-2.47-1.86-3.97-1.81"></path><path class="cls-1" d="M212.11,275.67c-4.1-1.9-9.28-.16-12.05,3.22s-3.8,8.64-1.52,12.41c2.29,3.78,6.74,5.13,10.93,4.22s7.95-4.18,8.95-8.58c1.07-4.69-.97-10.97-6.61-10.96-.61,0-1.57,.21-1.92,.77s.3,.77,.76,.77c3.89-.01,5.35,4.99,5.13,8.12-.23,3.33-2.02,6.73-5.2,8.1-2.96,1.27-6.26,.16-8.34-2.17-2.49-2.79-2.41-6.72-1.07-10.03,1.41-3.46,4.81-6.29,8.6-4.53,.6,.28,1.51,.03,2.05-.29,.37-.22,.9-.76,.28-1.05h0Z"></path></g><g><path class="cls-1" d="M78.52,252.51c.28-.11,.36,.37,.06,.43s-.57-.16-.76-.35c-6.91-7.05-11.35-15.58-12.71-24.42-.51-3.3-.43-7.01,2.4-9.47,.69-.6,1.73-1.12,2.68-.83,1.13,.35,1.3,1.53,1.28,2.49-.05,2.37-.1,4.74-.15,7.11,.71-2.03,1.62-4.03,2.72-5.95,.25-.43,.59-.92,1.18-1,1.02-.14,1.52,.93,1.58,1.74,.18,2.41,0,4.84-.52,7.22,.61-2.15,2.05-4.16,4.09-5.67,1.21,2.76,.91,5.91-.82,8.49,.66-2.06,2.29-3.91,4.49-5.13,1.4,2.79-.99,5.91-.5,8.88,.18,1.13,.78,2.18,1.29,3.25,2.44,5.01,3.3,10.7,.91,15.73-.32,.66-.82,1.4-1.71,1.51-.59,.07-1.17-.16-1.67-.41-1.24-.6-2.4-1.31-3.45-2.11"></path><path class="cls-5" d="M78.06,252.83l-.04,.06,1.02-.27c-.82-.07-1.8-1.61-2.31-2.19-.66-.75-1.3-1.51-1.92-2.3-1.36-1.74-2.61-3.57-3.71-5.48-2.03-3.5-3.59-7.27-4.57-11.19-.85-3.44-1.72-7.62,.09-10.9,.48-.88,1.77-2.73,2.97-2.39,1.04,.29,1.14,1.51,1.14,2.39,.01,2.37-.1,4.75-.15,7.11,0,.34,1.34-.02,1.44-.31,.44-1.24,.94-2.46,1.51-3.65,.31-.64,.62-1.27,.97-1.89s.66-1.26,1.21-.42c.61,.95,.43,2.41,.41,3.48-.04,1.6-.25,3.17-.58,4.73-.08,.39,1.32,.14,1.43-.24,.69-2.25,2.08-4.08,3.94-5.51l-1.29,.15c1.17,2.84,.84,5.83-.81,8.41l1.43-.24c.74-2.13,2.26-3.77,4.2-4.88l-1.15,.07c1.12,2.52-.39,5.02-.55,7.57-.09,1.45,.42,2.68,1.04,3.96,.68,1.38,1.29,2.78,1.74,4.25,.86,2.81,1.18,5.85,.57,8.75-.24,1.13-.74,3.76-1.96,4.13-1.3,.39-3.53-1.49-4.56-2.27-.34-.25-1.62,.32-1.36,.51,1.9,1.42,5.12,3.85,7.41,1.8,1.15-1.03,1.61-2.97,1.91-4.41,.33-1.61,.4-3.27,.25-4.91-.17-1.79-.6-3.55-1.22-5.23-.63-1.71-1.68-3.29-2.18-5.04-.91-3.21,1.76-6.35,.36-9.51-.14-.33-.95-.05-1.15,.07-2.16,1.24-3.95,2.98-4.78,5.37-.14,.39,1.26,.04,1.43-.24,1.67-2.62,2.01-5.68,.82-8.57-.15-.36-1.09,0-1.29,.15-1.97,1.52-3.52,3.43-4.25,5.84l1.43-.24c.44-2.08,.66-4.2,.58-6.33-.04-1.17-.19-2.71-1.66-2.84-1.13-.1-2.04,.53-2.6,1.44-1.14,1.84-1.99,3.92-2.72,5.95l1.44-.31c.05-2.45,.26-4.96,.15-7.41-.07-1.58-.97-2.55-2.6-2.38-3.54,.35-5.29,4.27-5.44,7.38-.19,4,1.07,8.24,2.5,11.93,1.54,4,3.7,7.75,6.28,11.17,.77,1.02,1.59,2.01,2.44,2.97,.61,.69,1.4,1.92,2.29,2.25,.45,.17,1.19,.07,1.56-.26s.31-.7-.24-.74c-.35-.03-1.67,.59-.93,.64h0Z"></path></g><g><path class="cls-2" d="M97.47,192.14c-2.91-.63-5.59,1.63-7.69,3.74-1.06,1.06-2.13,2.17-2.7,3.55-.63,1.53-.59,3.24-.53,4.9,.13,3.94,.32,8.07,2.35,11.44,3.22,5.37,10.78,7.25,16.52,4.77s9.45-8.62,9.89-14.87c.26-3.63-.67-7.63-3.56-9.84-1.01-.77-2.2-1.27-3.37-1.76-2.42-1.02-4.86-2.05-7.4-2.71"></path><path class="cls-2" d="M98.33,191.27c-3.41-.59-6.3,1.08-8.74,3.32-1.2,1.1-2.43,2.29-3.31,3.67-.98,1.53-1.23,3.29-1.22,5.08,.05,6.44,.66,13.6,6.8,17.18,5.04,2.93,11.54,2.6,16.42-.46,5.16-3.24,8.43-9.38,8.52-15.44,.05-3.32-.82-6.9-3.44-9.15-1.54-1.33-3.5-2.02-5.35-2.78-2.02-.84-4.06-1.62-6.18-2.2-.67-.18-1.57,.03-2.05,.55-.43,.46-.32,1.03,.32,1.21,3.08,.84,6.23,2,9.06,3.48,2.45,1.28,3.84,3.47,4.41,6.13,1.07,5.02-.68,10.74-4.09,14.52-3.29,3.65-7.99,5.19-12.75,3.76-2.25-.68-4.31-2-5.77-3.86-1.71-2.18-2.39-4.95-2.7-7.65-.2-1.77-.28-3.56-.31-5.34-.02-1.69,.09-3.36,1.03-4.82,.87-1.36,2.18-2.56,3.4-3.61,1.13-.97,2.61-2.1,4.19-1.82,.7,.12,1.54,0,2.05-.55,.39-.43,.35-1.09-.32-1.21h0Z"></path></g><path class="cls-5" d="M103.52,177.43c-.12-7.31,1.43-14.55,4.5-21.19,.24-.52-.99-.4-1.18-.37-.52,.08-1.43,.3-1.68,.84-3.11,6.73-4.65,14.08-4.53,21.5,0,.6,2.91,.13,2.9-.78h0Z"></path><path class="cls-5" d="M112.2,173.39c1.17-8.45,3.82-16.66,7.87-24.18,.62-1.16-2.26-.82-2.69-.02-4.13,7.66-6.88,15.96-8.08,24.58-.15,1.07,2.76,.55,2.89-.39h0Z"></path><g><path class="cls-2" d="M281.34,173.8c-2.43-1.69-5.78-1.5-8.46-.24-2.67,1.26-4.79,3.43-6.75,5.64-.67,.75-1.34,1.53-1.78,2.44-.54,1.12-.7,2.39-.76,3.63-.2,4.24,.88,8.85,4.16,11.54,1.76,1.44,3.97,2.18,6.18,2.7,1.61,.38,3.27,.65,4.92,.51,3.62-.31,6.87-2.66,8.83-5.72,1.96-3.06,2.75-6.75,2.84-10.38,.05-2.1-.13-4.26-.99-6.17s-2.51-3.57-4.56-4.02"></path><path class="cls-2" d="M282.69,173.24c-5.41-3.52-11.97-.17-15.98,3.89-2.16,2.19-4.19,4.31-4.5,7.5-.28,2.81,0,5.8,1.1,8.43s3.14,4.76,5.82,5.95c2.77,1.24,6.12,1.99,9.16,1.78,6.01-.41,10.8-4.89,12.62-10.46,1.86-5.68,2.24-15.48-5.03-17.37-.87-.23-3.39,1.09-1.79,1.51,5.42,1.4,5.39,8.86,4.67,13.19-.75,4.53-3.14,9.49-7.73,11.17-2.42,.89-5.17,.27-7.57-.44-2.42-.72-4.61-1.94-6.1-4.02-1.3-1.82-1.95-4.08-2.2-6.28-.27-2.32-.33-5.16,.97-7.2,1.49-2.32,3.87-4.65,6.18-6.14,2.33-1.5,5.25-1.99,7.69-.41,.56,.36,1.32,.24,1.91,0,.22-.09,1.34-.75,.79-1.1h0Z"></path></g><path class="cls-5" d="M254.67,150.89c3.66,3.94,6.32,8.67,7.81,13.84,.27,.94,3.17,.15,2.9-.78-1.52-5.27-4.28-10.14-8.01-14.16-.64-.69-3.4,.35-2.7,1.1h0Z"></path><path class="cls-5" d="M264.69,151.7c1.82,2.05,3.09,4.52,3.73,7.19,.14,.57,1.25,.4,1.63,.29s1.41-.47,1.27-1.06c-.66-2.78-2.03-5.38-3.93-7.52-.63-.71-3.39,.32-2.7,1.11h0Z"></path><g><path class="cls-1" d="M285.4,174.05c-3.65,1.21-6.92,3.58-9.21,6.67,2.83,.32,5.72,.09,8.47-.66-2.41,1.87-4.81,3.75-7.22,5.62,3.53,.16,7.1-1.17,9.65-3.61-3.18,1.69-6.13,3.79-8.76,6.24,3.5,1.34,7.1-1.46,9.8-4.05-3.1,2.55-5.84,5.53-8.12,8.84,2.81,.77,5.43-1.57,7.41-3.7-1.85,5.24-2.83,10.78-2.88,16.34-.03,2.63,.2,5.42,1.73,7.55,.27,.37,.6,.74,1.05,.85,.72,.18,1.41-.36,1.92-.9,1.94-2.07,3.18-4.7,4.17-7.36,2.95-7.95,3.99-16.6,2.98-25.01-.24-2.03-.68-4.19-2.15-5.61-1.86-1.8-4.76-1.83-7.34-1.75"></path><path class="cls-5" d="M285.13,173.79c-3.83,1.32-7.16,3.71-9.6,6.94-.14,.19,.02,.35,.22,.37,3.04,.31,6.05,.08,9.01-.7l-.66-.43c-2.41,1.87-4.81,3.75-7.22,5.62-.35,.28-.01,.47,.29,.48,3.88,.11,7.66-1.26,10.51-3.9,.62-.58-.76-.42-1.02-.28-3.22,1.73-6.2,3.85-8.89,6.33-.13,.12-.25,.35,0,.43,4.19,1.43,8.08-1.55,10.96-4.28,.61-.58-.83-.45-1.15-.19-3.13,2.6-5.89,5.59-8.22,8.93-.14,.21,.03,.33,.22,.37,3.46,.78,6.33-1.73,8.53-4.07l-1.39,.1c-1.88,5.4-2.9,11.1-2.89,16.83,0,2.37,.24,4.88,1.57,6.91,1.18,1.81,3.03,1.52,4.44,.1,3.69-3.71,5.31-9.68,6.4-14.64,1.23-5.6,1.58-11.4,1-17.1-.26-2.53-.64-5.47-2.86-7.08-2.04-1.48-4.76-1.46-7.17-1.4-.5,.01-1.55,.79-.58,.77,2.14-.06,4.57-.12,6.4,1.18s2.33,3.54,2.61,5.61c.66,4.9,.54,9.92-.21,14.8-.72,4.65-1.97,9.41-4.06,13.64-.55,1.11-1.19,2.17-1.95,3.15-.4,.51-1.16,1.71-1.99,1.26-.46-.25-.79-1.01-1.01-1.45-.95-1.89-1.13-4.07-1.13-6.16-.01-5.66,1.03-11.3,2.88-16.64,.19-.56-1.23-.07-1.39,.1-1.61,1.71-3.72,3.9-6.29,3.33l.22,.37c2.28-3.27,4.96-6.19,8.03-8.74l-1.15-.19c-2.25,2.13-5.31,4.95-8.65,3.81v.43c2.61-2.41,5.49-4.46,8.62-6.15l-1.02-.28c-2.43,2.24-5.48,3.42-8.79,3.32l.29,.48c2.41-1.87,4.81-3.75,7.22-5.62,.54-.42-.4-.49-.66-.43-2.61,.68-5.25,.89-7.94,.62l.22,.37c2.26-2.98,5.28-5.18,8.82-6.4,.96-.33,.08-.75-.56-.53h0Z"></path></g><path class="cls-5" d="M48.22,114.22c18.83-2.53,37.9-2.83,56.79-.89,.65,.07,1.61-.22,1.89-.87s-.25-1.09-.87-1.15c-19.13-1.96-38.47-1.67-57.54,.89-.6,.08-1.54,.41-1.61,1.14s.76,.96,1.32,.89h0Z"></path><path class="cls-5" d="M113.97,113.56c2.06,0,4.12,0,6.19,0,.61,0,1.56-.5,1.59-1.19,.03-.76-.73-.98-1.35-.98-2.06,0-4.12,0-6.19,0-.61,0-1.56,.5-1.59,1.19-.03,.76,.73,.98,1.35,.98h0Z"></path><path class="cls-5" d="M51.57,126.01c2.92-.61,6.03-.72,9.02-.37,.69,.08,1.51-.1,2.05-.55,.43-.36,.37-.83-.24-.9-3.74-.44-7.49-.23-11.17,.54-.39,.08-1.4,.47-1.28,1.02s1.3,.32,1.62,.25h0Z"></path><path class="cls-5" d="M70.61,125.3c15.98-.55,31.96-1.11,47.94-1.66,.65-.02,1.52-.13,2.05-.55,.36-.28,.48-.61-.16-.59-15.98,.55-31.96,1.11-47.94,1.66-.65,.02-1.52,.13-2.05,.55-.36,.28-.48,.61,.16,.59h0Z"></path><g class="cls-3"><path class="cls-5" d="M141.37,109.68c-4.87,1.69-4.93,9.28-1.2,12.85,3.73,3.57,9.31,4.17,14.45,4.55,55.47,4.09,111.22,4.21,166.71,.39,5.39-.37,12.3-2.21,12.67-7.6,.43-6.15-7.89-8.39-14.06-8.47-59.34-.76-118.67-1.51-178.01-2.27"></path><path class="cls-5" d="M140.74,108.88c-4.24,1.6-5.49,6.55-4.16,10.56,1.75,5.27,7.42,7.32,12.45,8.11,3.15,.49,6.36,.63,9.53,.85,3.8,.27,7.6,.51,11.4,.74,7.44,.45,14.87,.82,22.32,1.13,29.73,1.22,59.5,1.3,89.24,.26,7.53-.26,15.05-.6,22.57-1.01,3.72-.2,7.44-.42,11.15-.66,3.17-.2,6.37-.28,9.5-.85,4.19-.76,9.57-2.69,10.6-7.4,1.01-4.63-2.99-7.63-6.87-8.94-5.56-1.87-11.71-1.34-17.48-1.41-7.48-.1-14.96-.19-22.44-.29-14.96-.19-29.92-.38-44.88-.57-30.08-.38-60.17-.77-90.25-1.15-3.66-.05-7.31-.09-10.97-.14-.66,0-1.59,.18-1.89,.87-.26,.61,.24,1.13,.86,1.14,28.75,.37,57.51,.73,86.26,1.1,28.59,.36,57.18,.73,85.76,1.09,5.04,.06,10.63-.37,15.27,2.03,1.7,.88,3.25,2.19,3.7,4.12,.47,2.01-.31,4.04-1.91,5.3-4,3.13-10.22,2.77-14.98,3.08-7.1,.45-14.21,.84-21.32,1.17-28.57,1.3-57.18,1.56-85.76,.76-14.31-.4-28.62-1.06-42.91-1.99-3.47-.22-6.94-.46-10.4-.72-2.87-.21-5.78-.45-8.54-1.33-4.56-1.45-8.24-5.06-7.52-10.16,.26-1.83,1.14-3.44,2.92-4.11,.53-.2,1.09-.87,.7-1.42-.42-.6-1.41-.38-1.96-.18h0Z"></path></g><path class="cls-5" d="M427.51,111.75c-3.11-2.04-7.43-.88-9.71,1.88-2.23,2.7-1.88,6.6,.1,9.33,2.19,3.02,5.98,4.16,9.53,3.16,3.65-1.03,6.69-4.01,7.45-7.77,.44-2.19,.03-4.74-1.52-6.43-1.62-1.77-4-2.5-6.33-1.94-.61,.15-1.34,.74-1.17,1.44s1.14,.81,1.73,.67c1.2-.29,2.5,.41,3.27,1.31,1.04,1.21,1.36,2.86,1.19,4.41-.29,2.63-2.06,4.94-4.49,5.96-2.25,.94-4.73,.4-6.4-1.37-1.58-1.67-2.49-4.3-1.64-6.53s3.64-3.79,5.79-2.38c.62,.41,1.51,.3,2.08-.15,.48-.38,.75-1.18,.13-1.58h0Z"></path><path class="cls-5" d="M449.48,112.12c-3.94-.48-7.99,2.66-8.21,6.71s2.76,7.42,6.38,8.57c3.81,1.2,8.38,.26,11.05-2.82,2.36-2.72,2.93-7.01,.88-10.07-2.28-3.41-7.43-4.41-10.9-2.3-.52,.32-1.1,.9-.67,1.53,.38,.57,1.45,.56,1.97,.24,2.03-1.23,4.69-.66,6.32,1.03,1.93,1.99,2,5.15,.75,7.51-1.27,2.41-4,3.49-6.62,3.12-2.82-.4-5.3-2.52-6.03-5.29-.4-1.51-.18-3.14,.77-4.4,.8-1.05,1.96-1.83,3.32-1.67,.68,.08,1.59-.22,1.88-.9s-.26-1.19-.9-1.27h0Z"></path></g></svg>