<svg xmlns="http://www.w3.org/2000/svg" xmlns:xlink="http://www.w3.org/1999/xlink" zoomAndPan="magnify" preserveAspectRatio="xMidYMid meet" version="1.2" viewBox="46.29 148.9 284.07 63.72"><defs><clipPath id="0d2678a145"><path d="M 261 148.902344 L 330.640625 148.902344 L 330.640625 212.652344 L 261 212.652344 Z M 261 148.902344 "/></clipPath></defs><g id="6421086ecd"><g clip-rule="nonzero" clip-path="url(#0d2678a145)"><path style=" stroke:none;fill-rule:evenodd;fill:#00669c;fill-opacity:1;" d="M 330.363281 177.542969 C 330.238281 178.390625 329.652344 179.019531 329.289062 179.691406 C 326.683594 184.5 323.914062 189.226562 321.183594 194.0625 C 319.632812 196.808594 318.195312 199.667969 316.550781 202.296875 C 314.996094 204.78125 312.707031 207.210938 310.199219 208.777344 C 307.507812 210.453125 304.359375 211.539062 300.675781 212.121094 C 296.914062 212.714844 292.707031 212.691406 288.496094 212.507812 C 284.59375 212.335938 281.054688 211.390625 278.671875 209.503906 C 276.304688 207.632812 274.683594 204.945312 273.050781 202.296875 C 271.375 199.574219 269.867188 196.867188 268.203125 194.273438 C 266.941406 192.308594 265.808594 190.316406 264.554688 188.269531 C 264.148438 187.601562 263.84375 186.882812 263.484375 186.167969 C 262.769531 184.746094 262.003906 183.304688 261.554688 181.664062 C 260.523438 177.910156 261.765625 173.808594 263.097656 171.109375 C 263.472656 170.351562 263.769531 169.625 264.085938 168.878906 C 264.382812 168.179688 264.828125 167.519531 265.199219 166.820312 C 265.949219 165.40625 266.644531 163.984375 267.429688 162.617188 C 268.972656 159.941406 270.46875 157.121094 272.148438 154.46875 C 273.015625 153.101562 273.917969 152.003906 275.238281 151.164062 C 277.832031 149.515625 281.882812 148.71875 285.746094 149.535156 C 288.6875 150.15625 291.144531 151.65625 293.039062 153.480469 C 293.242188 153.675781 293.636719 154.179688 293.941406 154.167969 C 294.28125 154.152344 294.5625 153.496094 294.800781 153.179688 C 295.585938 152.140625 296.582031 151.269531 297.714844 150.652344 C 299.3125 149.78125 301.042969 149.074219 303.464844 148.933594 C 308.121094 148.664062 311.5 150.273438 314.058594 152.238281 C 316.730469 154.289062 318.335938 157.273438 320.023438 160.128906 C 322.597656 164.492188 325.445312 168.628906 327.914062 173.085938 C 328.734375 174.554688 329.796875 175.917969 330.363281 177.542969 Z M 282.316406 151.980469 C 279.015625 152.191406 275.984375 153.558594 275.066406 155.96875 C 274.457031 157.578125 274.929688 159.226562 275.582031 160.472656 C 276.261719 161.765625 276.976562 162.910156 277.640625 164.078125 C 280.011719 168.234375 282.402344 172.425781 284.976562 176.472656 C 285.304688 176.992188 285.933594 177.859375 285.921875 178.363281 C 285.910156 178.699219 285.546875 179.21875 285.320312 179.605469 C 283.671875 182.414062 282.242188 185.371094 280.644531 188.054688 C 278.847656 191.070312 276.410156 194.644531 277.554688 199.46875 C 278.988281 205.507812 283.527344 208.574219 290.640625 208.863281 C 293.058594 208.957031 295.480469 209.035156 298.019531 208.902344 C 302.609375 208.664062 306.222656 207.015625 308.871094 204.785156 C 311.601562 202.488281 313.328125 199.335938 315.175781 196.078125 C 316.996094 192.871094 318.832031 189.703125 320.582031 186.511719 C 321.914062 184.089844 323.382812 181.738281 324.613281 179.304688 C 325.027344 178.492188 325.632812 177.742188 325.902344 176.816406 C 325.902344 176.789062 325.902344 176.757812 325.902344 176.730469 C 325.234375 175.101562 324.117188 173.796875 323.285156 172.3125 C 322.453125 170.828125 321.515625 169.40625 320.625 167.9375 C 319.757812 166.511719 318.902344 165.019531 317.964844 163.5625 C 317.042969 162.128906 316.085938 160.679688 315.21875 159.226562 C 313.425781 156.230469 311.539062 153.53125 307.925781 152.449219 C 305.960938 151.863281 303.734375 151.90625 301.792969 152.40625 C 299.609375 152.96875 297.328125 154.28125 296.902344 156.527344 C 296.421875 159.054688 297.941406 160.761719 298.875 162.316406 C 299.132812 162.742188 299.277344 163.21875 299.519531 163.605469 C 301.660156 166.996094 303.238281 169.929688 305.308594 173.253906 C 306.015625 174.386719 306.8125 175.664062 307.5 176.859375 C 307.726562 177.257812 308.140625 177.828125 308.140625 178.191406 C 308.140625 178.855469 307.289062 179.972656 306.898438 180.636719 C 306.402344 181.472656 305.957031 182.289062 305.566406 182.996094 C 303.765625 186.261719 302.007812 189.160156 300.203125 192.390625 C 299.359375 193.90625 298.617188 195.984375 297.160156 196.722656 C 296.039062 197.289062 293.765625 197.171875 293.640625 195.777344 C 293.5625 194.910156 294.332031 193.980469 294.714844 193.289062 C 296.03125 190.921875 297.320312 188.640625 298.574219 186.425781 C 298.785156 186.050781 299 185.660156 299.175781 185.269531 C 299.746094 183.984375 300.476562 182.90625 301.0625 181.75 C 301.855469 180.1875 302.914062 178.78125 303.550781 177.074219 C 303.515625 176.621094 303.105469 176.097656 302.820312 175.574219 C 302.042969 174.144531 301.199219 172.75 300.417969 171.453125 C 299.863281 170.535156 299.394531 169.585938 298.875 168.667969 C 297.292969 165.875 295.679688 163.160156 294.070312 160.472656 C 292.988281 158.664062 291.976562 156.808594 290.59375 155.285156 C 288.574219 153.484375 286.269531 151.722656 282.316406 151.980469 Z M 282.316406 151.980469 "/></g><path style=" stroke:none;fill-rule:evenodd;fill:#00669c;fill-opacity:1;" d="M 321.097656 174.242188 C 321.476562 174.738281 321.722656 175.261719 322.082031 175.871094 C 322.378906 176.371094 322.976562 176.9375 322.984375 177.589844 C 322.992188 178.28125 322.1875 179.304688 321.824219 179.949219 C 319.699219 183.722656 317.636719 187.421875 315.476562 191.144531 C 314.613281 192.628906 313.699219 194.066406 312.859375 195.519531 C 311.949219 197.089844 311.320312 198.753906 310.414062 200.109375 C 307.632812 204.28125 303.210938 206.777344 296.34375 207.015625 C 291.671875 207.175781 287.1875 207.148438 284.117188 205.300781 C 281.492188 203.71875 279.070312 200.5625 279.441406 195.992188 C 279.601562 194.054688 280.511719 192.316406 281.328125 190.84375 C 283.441406 187.050781 285.351562 183.277344 287.550781 179.5625 C 287.980469 178.832031 288.445312 178.09375 288.75 177.285156 C 288.519531 176.402344 287.957031 175.679688 287.507812 174.929688 C 284.847656 170.5 282.214844 165.886719 279.527344 161.371094 C 278.769531 160.097656 277.472656 158.242188 278.410156 156.398438 C 279.070312 155.101562 280.730469 154.433594 282.273438 154.25 C 284.121094 154.03125 285.832031 154.660156 287.035156 155.410156 C 288.261719 156.175781 289.085938 157.359375 289.824219 158.625 C 292.78125 163.703125 295.511719 168.75 298.574219 173.898438 C 298.917969 174.476562 299.15625 175.140625 299.5625 175.914062 C 299.863281 176.488281 300.570312 177.269531 300.589844 177.84375 C 300.613281 178.578125 299.824219 179.453125 299.476562 180.117188 C 299.253906 180.542969 299.15625 180.980469 298.960938 181.316406 C 297.984375 183.019531 296.746094 184.984375 295.828125 186.636719 C 295.046875 188.046875 294.222656 189.570312 293.382812 190.96875 C 292.980469 191.644531 292.605469 192.308594 292.183594 193.160156 C 291.652344 194.230469 290.871094 195.453125 291.453125 196.847656 C 292.433594 199.203125 297 199.253906 299.089844 197.75 C 300.355469 196.199219 301.351562 194.523438 302.304688 192.816406 C 303.25 191.132812 304.238281 189.417969 305.222656 187.625 C 306.601562 185.113281 308.101562 182.398438 309.597656 179.773438 C 309.792969 179.4375 310.0625 178.914062 310.328125 178.488281 C 310.578125 178.085938 311.015625 177.492188 311.015625 177.15625 C 311.011719 176.832031 310.660156 176.359375 310.371094 175.914062 C 309.628906 174.761719 308.910156 173.46875 308.269531 172.355469 C 306.472656 169.21875 304.53125 166.054688 302.605469 162.917969 C 302.1875 162.238281 301.6875 161.402344 301.148438 160.601562 C 300.460938 159.582031 299.496094 158.222656 299.945312 156.652344 C 300.765625 153.789062 305.558594 153.289062 308.226562 154.808594 C 310.347656 156.019531 311.273438 157.753906 312.472656 159.828125 C 313.039062 160.8125 313.671875 161.738281 314.230469 162.660156 C 316.636719 166.617188 318.863281 170.433594 321.097656 174.242188 Z M 314.320312 180.078125 C 313.085938 182.304688 311.816406 184.429688 310.585938 186.640625 C 308.96875 189.546875 307.292969 192.453125 305.609375 195.433594 C 304.828125 196.824219 304.082031 198.46875 302.824219 199.507812 C 301.507812 200.59375 300.070312 201.445312 298.101562 201.695312 C 296.027344 201.964844 293.625 201.96875 291.753906 201.613281 C 288.636719 201.015625 285.796875 198.664062 286.734375 194.707031 C 287.117188 193.101562 288.074219 191.652344 288.921875 190.242188 C 289.785156 188.8125 290.5 187.378906 291.324219 185.953125 C 292.75 183.5 294.125 181.027344 295.570312 178.492188 C 295.792969 178.101562 296.132812 177.722656 296.128906 177.375 C 296.128906 177.078125 295.730469 176.382812 295.488281 175.957031 C 293.65625 172.789062 291.976562 170.003906 290.125 166.863281 C 288.597656 164.28125 287.058594 161.683594 285.578125 159.058594 C 285.109375 158.226562 284.484375 157.101562 283.476562 157 C 282.648438 156.914062 281.980469 157.3125 281.886719 157.941406 C 281.75 158.851562 282.699219 159.9375 283.132812 160.644531 C 285.738281 164.90625 287.949219 168.996094 290.425781 173.214844 C 290.875 173.984375 291.355469 174.757812 291.882812 175.699219 C 292.195312 176.265625 293.277344 177.621094 293.253906 178.320312 C 293.246094 178.578125 292.945312 179.050781 292.78125 179.304688 C 292.574219 179.632812 292.367188 179.992188 292.226562 180.25 C 290.382812 183.621094 288.664062 186.527344 286.820312 189.816406 C 286.085938 191.125 285.226562 192.472656 284.761719 193.761719 C 283.40625 197.539062 285.109375 200.558594 287.335938 202.128906 C 289.597656 203.722656 293.785156 204.054688 297.589844 203.671875 C 301.125 203.316406 303.839844 201.84375 305.609375 199.726562 C 306.488281 198.675781 307.105469 197.285156 307.839844 195.992188 C 310.761719 190.863281 313.492188 185.835938 316.464844 180.679688 C 316.792969 180.109375 317.1875 179.507812 317.578125 178.792969 C 317.800781 178.386719 318.621094 177.261719 318.609375 176.816406 C 318.597656 176.523438 318.175781 175.898438 317.921875 175.488281 C 314.511719 169.976562 311.347656 164.542969 307.925781 158.972656 C 307.394531 158.105469 306.839844 157.199219 305.996094 156.828125 C 304.996094 156.386719 303.949219 156.726562 303.722656 157.683594 C 303.898438 158.828125 304.625 159.417969 305.097656 160.257812 C 308.191406 165.316406 311.097656 170.511719 314.234375 175.445312 C 314.691406 176.164062 315.179688 176.929688 315.433594 177.761719 C 315.183594 178.613281 314.722656 179.347656 314.320312 180.078125 Z M 314.320312 180.078125 "/><g style="fill:#00669c;fill-opacity:1;"><g transform="translate(44.603948, 211.499986)"><path style="stroke:none" d="M 39.6875 -49.140625 L 39.6875 -39.546875 L 26.671875 -39.546875 L 26.671875 0 L 14.703125 0 L 14.703125 -39.546875 L 1.6875 -39.546875 L 1.6875 -49.140625 Z M 39.6875 -49.140625 "/></g></g><g style="fill:#00669c;fill-opacity:1;"><g transform="translate(84.571692, 211.499986)"><path style="stroke:none" d="M 41.15625 -20.15625 C 41.15625 -19.039062 41.085938 -17.875 40.953125 -16.65625 L 13.859375 -16.65625 C 14.046875 -14.226562 14.828125 -12.375 16.203125 -11.09375 C 17.578125 -9.8125 19.269531 -9.171875 21.28125 -9.171875 C 24.269531 -9.171875 26.347656 -10.429688 27.515625 -12.953125 L 40.25 -12.953125 C 39.59375 -10.378906 38.410156 -8.066406 36.703125 -6.015625 C 35.003906 -3.960938 32.867188 -2.351562 30.296875 -1.1875 C 27.734375 -0.0195312 24.867188 0.5625 21.703125 0.5625 C 17.867188 0.5625 14.457031 -0.253906 11.46875 -1.890625 C 8.488281 -3.523438 6.15625 -5.859375 4.46875 -8.890625 C 2.789062 -11.921875 1.953125 -15.46875 1.953125 -19.53125 C 1.953125 -23.59375 2.78125 -27.140625 4.4375 -30.171875 C 6.101562 -33.203125 8.425781 -35.535156 11.40625 -37.171875 C 14.394531 -38.804688 17.828125 -39.625 21.703125 -39.625 C 25.484375 -39.625 28.84375 -38.828125 31.78125 -37.234375 C 34.71875 -35.648438 37.015625 -33.390625 38.671875 -30.453125 C 40.328125 -27.515625 41.15625 -24.082031 41.15625 -20.15625 Z M 28.90625 -23.3125 C 28.90625 -25.363281 28.203125 -26.992188 26.796875 -28.203125 C 25.398438 -29.421875 23.65625 -30.03125 21.5625 -30.03125 C 19.550781 -30.03125 17.859375 -29.445312 16.484375 -28.28125 C 15.109375 -27.113281 14.257812 -25.457031 13.9375 -23.3125 Z M 28.90625 -23.3125 "/></g></g><g style="fill:#00669c;fill-opacity:1;"><g transform="translate(126.289341, 211.499986)"><path style="stroke:none" d="M 1.953125 -19.59375 C 1.953125 -23.613281 2.710938 -27.140625 4.234375 -30.171875 C 5.753906 -33.203125 7.816406 -35.535156 10.421875 -37.171875 C 13.035156 -38.804688 15.957031 -39.625 19.1875 -39.625 C 21.9375 -39.625 24.347656 -39.0625 26.421875 -37.9375 C 28.503906 -36.820312 30.101562 -35.351562 31.21875 -33.53125 L 31.21875 -39.0625 L 43.1875 -39.0625 L 43.1875 0 L 31.21875 0 L 31.21875 -5.53125 C 30.050781 -3.707031 28.425781 -2.234375 26.34375 -1.109375 C 24.269531 0.00390625 21.859375 0.5625 19.109375 0.5625 C 15.929688 0.5625 13.035156 -0.265625 10.421875 -1.921875 C 7.816406 -3.578125 5.753906 -5.929688 4.234375 -8.984375 C 2.710938 -12.046875 1.953125 -15.582031 1.953125 -19.59375 Z M 31.21875 -19.53125 C 31.21875 -22.519531 30.390625 -24.875 28.734375 -26.59375 C 27.078125 -28.320312 25.0625 -29.1875 22.6875 -29.1875 C 20.300781 -29.1875 18.28125 -28.332031 16.625 -26.625 C 14.96875 -24.925781 14.140625 -22.582031 14.140625 -19.59375 C 14.140625 -16.613281 14.96875 -14.25 16.625 -12.5 C 18.28125 -10.75 20.300781 -9.875 22.6875 -9.875 C 25.0625 -9.875 27.078125 -10.734375 28.734375 -12.453125 C 30.390625 -14.179688 31.21875 -16.539062 31.21875 -19.53125 Z M 31.21875 -19.53125 "/></g></g><g style="fill:#00669c;fill-opacity:1;"><g transform="translate(172.416753, 211.499986)"><path style="stroke:none" d="M 1.953125 -19.53125 C 1.953125 -23.59375 2.78125 -27.140625 4.4375 -30.171875 C 6.101562 -33.203125 8.414062 -35.535156 11.375 -37.171875 C 14.332031 -38.804688 17.726562 -39.625 21.5625 -39.625 C 26.457031 -39.625 30.550781 -38.335938 33.84375 -35.765625 C 37.132812 -33.203125 39.289062 -29.585938 40.3125 -24.921875 L 27.578125 -24.921875 C 26.503906 -27.910156 24.425781 -29.40625 21.34375 -29.40625 C 19.15625 -29.40625 17.40625 -28.550781 16.09375 -26.84375 C 14.789062 -25.144531 14.140625 -22.707031 14.140625 -19.53125 C 14.140625 -16.351562 14.789062 -13.910156 16.09375 -12.203125 C 17.40625 -10.503906 19.15625 -9.65625 21.34375 -9.65625 C 24.425781 -9.65625 26.503906 -11.148438 27.578125 -14.140625 L 40.3125 -14.140625 C 39.289062 -9.566406 37.125 -5.972656 33.8125 -3.359375 C 30.5 -0.742188 26.414062 0.5625 21.5625 0.5625 C 17.726562 0.5625 14.332031 -0.253906 11.375 -1.890625 C 8.414062 -3.523438 6.101562 -5.859375 4.4375 -8.890625 C 2.78125 -11.921875 1.953125 -15.46875 1.953125 -19.53125 Z M 1.953125 -19.53125 "/></g></g><g style="fill:#00669c;fill-opacity:1;"><g transform="translate(213.364443, 211.499986)"><path style="stroke:none" d="M 28.34375 -39.484375 C 32.820312 -39.484375 36.414062 -38 39.125 -35.03125 C 41.832031 -32.070312 43.1875 -28 43.1875 -22.8125 L 43.1875 0 L 31.296875 0 L 31.296875 -21.203125 C 31.296875 -23.816406 30.617188 -25.847656 29.265625 -27.296875 C 27.910156 -28.742188 26.085938 -29.46875 23.796875 -29.46875 C 21.515625 -29.46875 19.695312 -28.742188 18.34375 -27.296875 C 16.988281 -25.847656 16.3125 -23.816406 16.3125 -21.203125 L 16.3125 0 L 4.34375 0 L 4.34375 -51.796875 L 16.3125 -51.796875 L 16.3125 -33.8125 C 17.519531 -35.539062 19.175781 -36.914062 21.28125 -37.9375 C 23.382812 -38.96875 25.738281 -39.484375 28.34375 -39.484375 Z M 28.34375 -39.484375 "/></g></g></g></svg>