<svg xmlns="http://www.w3.org/2000/svg" xmlns:xlink="http://www.w3.org/1999/xlink" zoomAndPan="magnify" preserveAspectRatio="xMidYMid meet" version="1.2" viewBox="119.89 125.23 135.19 124.5"><defs><clipPath id="6cf3df91c1"><path d="M 119.335938 125.226562 L 255.835938 125.226562 L 255.835938 249.726562 L 119.335938 249.726562 Z M 119.335938 125.226562 "/></clipPath></defs><g id="b5bd077d5b"><g clip-rule="nonzero" clip-path="url(#6cf3df91c1)"><path style=" stroke:none;fill-rule:evenodd;fill:#f9fafb;fill-opacity:1;" d="M 255.074219 181.191406 C 254.828125 182.84375 253.6875 184.074219 252.980469 185.382812 C 247.890625 194.78125 242.472656 204.011719 237.136719 213.460938 C 234.105469 218.828125 231.296875 224.414062 228.085938 229.554688 C 225.050781 234.40625 220.578125 239.152344 215.679688 242.207031 C 210.421875 245.488281 204.269531 247.613281 197.074219 248.746094 C 189.71875 249.902344 181.503906 249.863281 173.269531 249.5 C 165.644531 249.164062 158.738281 247.316406 154.074219 243.632812 C 149.453125 239.976562 146.28125 234.726562 143.09375 229.550781 C 139.824219 224.234375 136.875 218.941406 133.625 213.875 C 131.15625 210.03125 128.945312 206.140625 126.5 202.140625 C 125.703125 200.839844 125.105469 199.433594 124.40625 198.039062 C 123.007812 195.261719 121.511719 192.445312 120.632812 189.238281 C 118.617188 181.902344 121.042969 173.890625 123.648438 168.621094 C 124.382812 167.136719 124.960938 165.714844 125.578125 164.261719 C 126.160156 162.890625 127.03125 161.601562 127.757812 160.238281 C 129.222656 157.472656 130.578125 154.695312 132.113281 152.027344 C 135.128906 146.792969 138.054688 141.289062 141.335938 136.101562 C 143.023438 133.429688 144.789062 131.289062 147.367188 129.648438 C 152.433594 126.421875 160.351562 124.867188 167.902344 126.460938 C 173.648438 127.675781 178.449219 130.605469 182.152344 134.171875 C 182.546875 134.554688 183.316406 135.535156 183.910156 135.515625 C 184.574219 135.488281 185.125 134.199219 185.589844 133.585938 C 187.125 131.550781 189.070312 129.847656 191.289062 128.644531 C 194.402344 126.945312 197.789062 125.5625 202.519531 125.289062 C 211.617188 124.757812 218.222656 127.902344 223.222656 131.742188 C 228.4375 135.75 231.574219 141.578125 234.871094 147.164062 C 239.90625 155.6875 245.464844 163.773438 250.292969 172.476562 C 251.894531 175.351562 253.96875 178.011719 255.074219 181.191406 Z M 161.199219 131.238281 C 154.753906 131.648438 148.824219 134.328125 147.035156 139.03125 C 145.839844 142.175781 146.765625 145.402344 148.042969 147.832031 C 149.367188 150.363281 150.765625 152.59375 152.066406 154.875 C 156.695312 162.996094 161.367188 171.183594 166.398438 179.097656 C 167.039062 180.105469 168.269531 181.804688 168.242188 182.785156 C 168.222656 183.441406 167.507812 184.460938 167.066406 185.214844 C 163.84375 190.703125 161.054688 196.480469 157.933594 201.726562 C 154.425781 207.613281 149.664062 214.597656 151.898438 224.023438 C 154.699219 235.824219 163.566406 241.820312 177.460938 242.378906 C 182.1875 242.566406 186.921875 242.71875 191.878906 242.460938 C 200.851562 241.992188 207.902344 238.773438 213.082031 234.414062 C 218.414062 229.925781 221.792969 223.765625 225.402344 217.398438 C 228.960938 211.132812 232.542969 204.949219 235.964844 198.707031 C 238.5625 193.972656 241.4375 189.378906 243.84375 184.628906 C 244.648438 183.035156 245.835938 181.574219 246.359375 179.765625 C 246.359375 179.710938 246.359375 179.65625 246.359375 179.597656 C 245.054688 176.417969 242.867188 173.863281 241.246094 170.964844 C 239.621094 168.066406 237.792969 165.285156 236.046875 162.417969 C 234.355469 159.628906 232.683594 156.71875 230.851562 153.867188 C 229.054688 151.066406 227.183594 148.238281 225.488281 145.402344 C 221.984375 139.546875 218.292969 134.269531 211.238281 132.160156 C 207.394531 131.011719 203.046875 131.097656 199.253906 132.074219 C 194.988281 133.171875 190.53125 135.734375 189.699219 140.121094 C 188.761719 145.066406 191.730469 148.398438 193.554688 151.4375 C 194.054688 152.269531 194.335938 153.203125 194.808594 153.953125 C 198.996094 160.578125 202.074219 166.308594 206.125 172.808594 C 207.503906 175.019531 209.058594 177.511719 210.402344 179.851562 C 210.847656 180.632812 211.660156 181.742188 211.65625 182.449219 C 211.65625 183.75 209.992188 185.9375 209.226562 187.226562 C 208.257812 188.859375 207.386719 190.457031 206.628906 191.839844 C 203.109375 198.222656 199.671875 203.878906 196.152344 210.195312 C 194.5 213.15625 193.050781 217.21875 190.199219 218.660156 C 188.007812 219.765625 183.570312 219.542969 183.324219 216.816406 C 183.171875 215.117188 184.671875 213.296875 185.421875 211.953125 C 187.996094 207.324219 190.511719 202.867188 192.964844 198.546875 C 193.378906 197.808594 193.796875 197.042969 194.136719 196.28125 C 195.253906 193.773438 196.683594 191.664062 197.824219 189.40625 C 199.371094 186.351562 201.441406 183.605469 202.6875 180.269531 C 202.621094 179.386719 201.820312 178.367188 201.261719 177.335938 C 199.742188 174.546875 198.09375 171.820312 196.566406 169.289062 C 195.480469 167.492188 194.570312 165.644531 193.550781 163.84375 C 190.460938 158.390625 187.304688 153.085938 184.164062 147.832031 C 182.046875 144.296875 180.074219 140.679688 177.371094 137.695312 C 173.429688 134.183594 168.925781 130.742188 161.199219 131.238281 Z M 161.199219 131.238281 "/></g><path style=" stroke:none;fill-rule:evenodd;fill:#f9fafb;fill-opacity:1;" d="M 236.96875 174.734375 C 237.707031 175.703125 238.191406 176.730469 238.894531 177.921875 C 239.472656 178.894531 240.644531 180 240.65625 181.273438 C 240.667969 182.628906 239.101562 184.625 238.390625 185.886719 C 234.238281 193.257812 230.210938 200.492188 225.988281 207.761719 C 224.304688 210.660156 222.515625 213.472656 220.875 216.308594 C 219.097656 219.378906 217.863281 222.628906 216.097656 225.273438 C 210.660156 233.425781 202.023438 238.308594 188.605469 238.773438 C 179.476562 239.085938 170.714844 239.03125 164.71875 235.417969 C 159.585938 232.328125 154.855469 226.160156 155.582031 217.230469 C 155.894531 213.445312 157.671875 210.046875 159.269531 207.171875 C 163.394531 199.761719 167.132812 192.386719 171.425781 185.128906 C 172.269531 183.699219 173.175781 182.261719 173.769531 180.6875 C 173.316406 178.960938 172.222656 177.546875 171.339844 176.078125 C 166.148438 167.421875 160.996094 158.410156 155.75 149.59375 C 154.269531 147.101562 151.738281 143.480469 153.570312 139.871094 C 154.855469 137.335938 158.101562 136.035156 161.113281 135.675781 C 164.730469 135.25 168.070312 136.476562 170.417969 137.941406 C 172.816406 139.433594 174.425781 141.75 175.867188 144.226562 C 181.644531 154.148438 186.984375 164.003906 192.964844 174.0625 C 193.636719 175.195312 194.101562 176.492188 194.890625 178.003906 C 195.480469 179.128906 196.867188 180.652344 196.90625 181.773438 C 196.953125 183.207031 195.40625 184.914062 194.726562 186.214844 C 194.289062 187.046875 194.101562 187.898438 193.71875 188.5625 C 191.8125 191.882812 189.394531 195.726562 187.601562 198.957031 C 186.074219 201.707031 184.464844 204.683594 182.824219 207.421875 C 182.03125 208.742188 181.300781 210.035156 180.476562 211.695312 C 179.441406 213.789062 177.914062 216.179688 179.050781 218.90625 C 180.96875 223.503906 189.890625 223.601562 193.96875 220.667969 C 196.441406 217.640625 198.386719 214.359375 200.257812 211.027344 C 202.101562 207.734375 204.035156 204.386719 205.957031 200.886719 C 208.652344 195.972656 211.582031 190.675781 214.503906 185.546875 C 214.882812 184.882812 215.410156 183.867188 215.929688 183.035156 C 216.417969 182.25 217.273438 181.089844 217.269531 180.429688 C 217.269531 179.796875 216.574219 178.871094 216.011719 178.003906 C 214.558594 175.75 213.15625 173.230469 211.90625 171.046875 C 208.394531 164.917969 204.601562 158.742188 200.84375 152.605469 C 200.027344 151.28125 199.046875 149.648438 197.992188 148.082031 C 196.648438 146.09375 194.765625 143.4375 195.644531 140.371094 C 197.25 134.773438 206.613281 133.792969 211.820312 136.769531 C 215.96875 139.136719 217.777344 142.523438 220.117188 146.574219 C 221.226562 148.496094 222.457031 150.304688 223.554688 152.105469 C 228.257812 159.839844 232.605469 167.296875 236.96875 174.734375 Z M 223.726562 186.136719 C 221.316406 190.488281 218.839844 194.644531 216.4375 198.960938 C 213.273438 204.636719 210 210.316406 206.714844 216.144531 C 205.183594 218.859375 203.722656 222.074219 201.265625 224.105469 C 198.699219 226.226562 195.886719 227.886719 192.042969 228.378906 C 187.992188 228.902344 183.292969 228.910156 179.640625 228.210938 C 173.542969 227.046875 168 222.449219 169.832031 214.71875 C 170.578125 211.582031 172.449219 208.757812 174.109375 206 C 175.792969 203.207031 177.1875 200.402344 178.800781 197.621094 C 181.585938 192.828125 184.269531 187.996094 187.097656 183.035156 C 187.53125 182.277344 188.191406 181.539062 188.1875 180.855469 C 188.183594 180.28125 187.410156 178.917969 186.929688 178.089844 C 183.359375 171.898438 180.074219 166.457031 176.453125 160.320312 C 173.472656 155.269531 170.464844 150.199219 167.570312 145.066406 C 166.65625 143.445312 165.433594 141.246094 163.460938 141.046875 C 161.851562 140.882812 160.546875 141.65625 160.359375 142.890625 C 160.09375 144.664062 161.945312 146.789062 162.792969 148.171875 C 167.886719 156.496094 172.199219 164.488281 177.039062 172.726562 C 177.921875 174.234375 178.859375 175.742188 179.890625 177.585938 C 180.503906 178.6875 182.613281 181.339844 182.570312 182.703125 C 182.554688 183.207031 181.964844 184.132812 181.648438 184.628906 C 181.242188 185.269531 180.835938 185.96875 180.558594 186.472656 C 176.960938 193.0625 173.601562 198.742188 170 205.164062 C 168.566406 207.71875 166.882812 210.351562 165.976562 212.878906 C 163.328125 220.253906 166.65625 226.15625 171.003906 229.21875 C 175.421875 232.335938 183.609375 232.980469 191.039062 232.238281 C 197.949219 231.542969 203.25 228.664062 206.710938 224.527344 C 208.425781 222.480469 209.632812 219.761719 211.070312 217.234375 C 216.78125 207.214844 222.109375 197.386719 227.917969 187.316406 C 228.558594 186.199219 229.332031 185.019531 230.097656 183.625 C 230.527344 182.835938 232.136719 180.636719 232.109375 179.769531 C 232.089844 179.191406 231.261719 177.972656 230.769531 177.171875 C 224.101562 166.402344 217.917969 155.785156 211.238281 144.902344 C 210.199219 143.207031 209.113281 141.441406 207.46875 140.710938 C 205.515625 139.847656 203.464844 140.511719 203.027344 142.386719 C 203.363281 144.621094 204.785156 145.769531 205.707031 147.417969 C 211.753906 157.296875 217.429688 167.449219 223.558594 177.089844 C 224.453125 178.492188 225.410156 179.984375 225.90625 181.609375 C 225.414062 183.273438 224.511719 184.714844 223.726562 186.136719 Z M 223.726562 186.136719 "/></g></svg>